<?xml version="1.0" encoding="UTF-8"?>
<svg xmlns="http://www.w3.org/2000/svg"
     xmlns:xlink="http://www.w3.org/1999/xlink"
     xmlns:gadfly="http://www.gadflyjl.org/ns"
     version="1.2"
     width="150mm" height="80mm" viewBox="0 0 150 80"
     stroke="none"
     fill="#000000"
     stroke-width="0.3"
     font-size="3.88"
>
<g class="plotroot xscalable yscalable" id="fig-949d2a3f851a45f28c678b9d336c9b9c-element-1">
  <g font-size="3.88" font-family="'PT Sans','Helvetica Neue','Helvetica',sans-serif" fill="#564A55" stroke="#000000" stroke-opacity="0.000" id="fig-949d2a3f851a45f28c678b9d336c9b9c-element-2">
    <text x="76.08" y="68.39" text-anchor="middle" dy="0.6em">x</text>
  </g>
  <g class="guide xlabels" font-size="2.82" font-family="'PT Sans Caption','Helvetica Neue','Helvetica',sans-serif" fill="#6C606B" id="fig-949d2a3f851a45f28c678b9d336c9b9c-element-3">
    <text x="21.75" y="61.72" text-anchor="middle" dy="0.6em">-5</text>
    <text x="76.08" y="61.72" text-anchor="middle" dy="0.6em">0</text>
    <text x="130.41" y="61.72" text-anchor="middle" dy="0.6em">5</text>
  </g>
  <g class="guide colorkey" id="fig-949d2a3f851a45f28c678b9d336c9b9c-element-4">
    <g fill="#4C404B" font-size="2.82" font-family="'PT Sans','Helvetica Neue','Helvetica',sans-serif" id="fig-949d2a3f851a45f28c678b9d336c9b9c-element-5">
      <text x="136.22" y="32.86" dy="0.35em" id="fig-949d2a3f851a45f28c678b9d336c9b9c-element-6" class="color_logistic">logistic</text>
      <text x="136.22" y="36.48" dy="0.35em" id="fig-949d2a3f851a45f28c678b9d336c9b9c-element-7" class="color_tanh">tanh</text>
    </g>
    <g stroke="#000000" stroke-opacity="0.000" id="fig-949d2a3f851a45f28c678b9d336c9b9c-element-8">
      <rect x="133.41" y="31.95" width="1.81" height="1.81" id="fig-949d2a3f851a45f28c678b9d336c9b9c-element-9" class="color_logistic" fill="#00BFFF"/>
      <rect x="133.41" y="35.58" width="1.81" height="1.81" id="fig-949d2a3f851a45f28c678b9d336c9b9c-element-10" class="color_tanh" fill="#D4CA3A"/>
    </g>
    <g fill="#362A35" font-size="3.88" font-family="'PT Sans','Helvetica Neue','Helvetica',sans-serif" stroke="#000000" stroke-opacity="0.000" id="fig-949d2a3f851a45f28c678b9d336c9b9c-element-11">
      <text x="133.41" y="29.04" id="fig-949d2a3f851a45f28c678b9d336c9b9c-element-12">Color</text>
    </g>
  </g>
  <g clip-path="url(#fig-949d2a3f851a45f28c678b9d336c9b9c-element-14)" id="fig-949d2a3f851a45f28c678b9d336c9b9c-element-13">
    <g pointer-events="visible" opacity="1" fill="#000000" fill-opacity="0.000" stroke="#000000" stroke-opacity="0.000" class="guide background" id="fig-949d2a3f851a45f28c678b9d336c9b9c-element-15">
      <rect x="19.75" y="5" width="112.66" height="55.72" id="fig-949d2a3f851a45f28c678b9d336c9b9c-element-16"/>
    </g>
    <g class="guide ygridlines xfixed" stroke-dasharray="0.5,0.5" stroke-width="0.2" stroke="#D0D0E0" id="fig-949d2a3f851a45f28c678b9d336c9b9c-element-17">
      <path fill="none" d="M19.75,58.72 L 132.41 58.72" id="fig-949d2a3f851a45f28c678b9d336c9b9c-element-18"/>
      <path fill="none" d="M19.75,45.79 L 132.41 45.79" id="fig-949d2a3f851a45f28c678b9d336c9b9c-element-19"/>
      <path fill="none" d="M19.75,32.86 L 132.41 32.86" id="fig-949d2a3f851a45f28c678b9d336c9b9c-element-20"/>
      <path fill="none" d="M19.75,19.93 L 132.41 19.93" id="fig-949d2a3f851a45f28c678b9d336c9b9c-element-21"/>
      <path fill="none" d="M19.75,7 L 132.41 7" id="fig-949d2a3f851a45f28c678b9d336c9b9c-element-22"/>
    </g>
    <g class="guide xgridlines yfixed" stroke-dasharray="0.5,0.5" stroke-width="0.2" stroke="#D0D0E0" id="fig-949d2a3f851a45f28c678b9d336c9b9c-element-23">
      <path fill="none" d="M21.75,5 L 21.75 60.72" id="fig-949d2a3f851a45f28c678b9d336c9b9c-element-24"/>
      <path fill="none" d="M76.08,5 L 76.08 60.72" id="fig-949d2a3f851a45f28c678b9d336c9b9c-element-25"/>
      <path fill="none" d="M130.41,5 L 130.41 60.72" id="fig-949d2a3f851a45f28c678b9d336c9b9c-element-26"/>
    </g>
    <g class="plotpanel" id="fig-949d2a3f851a45f28c678b9d336c9b9c-element-27">
      <g stroke-width="0.3" fill="#000000" fill-opacity="0.000" stroke-dasharray="none" id="fig-949d2a3f851a45f28c678b9d336c9b9c-element-28">
        <path fill="none" d="M21.75,32.68 L 22.18 32.68 22.62 32.67 23.05 32.66 23.49 32.65 23.93 32.65 24.36 32.64 24.8 32.63 25.24 32.62 25.67 32.61 26.11 32.6 26.55 32.59 26.98 32.58 27.42 32.57 27.85 32.56 28.29 32.54 28.73 32.53 29.16 32.52 29.6 32.5 30.04 32.49 30.47 32.47 30.91 32.46 31.35 32.44 31.78 32.43 32.22 32.41 32.65 32.39 33.09 32.37 33.53 32.35 33.96 32.33 34.4 32.31 34.84 32.29 35.27 32.27 35.71 32.24 36.15 32.22 36.58 32.19 37.02 32.17 37.46 32.14 37.89 32.11 38.33 32.08 38.76 32.05 39.2 32.02 39.64 31.98 40.07 31.95 40.51 31.91 40.95 31.88 41.38 31.84 41.82 31.8 42.26 31.76 42.69 31.71 43.13 31.67 43.56 31.62 44 31.57 44.44 31.52 44.87 31.47 45.31 31.42 45.75 31.36 46.18 31.31 46.62 31.25 47.06 31.18 47.49 31.12 47.93 31.05 48.36 30.99 48.8 30.91 49.24 30.84 49.67 30.76 50.11 30.69 50.55 30.6 50.98 30.52 51.42 30.43 51.86 30.34 52.29 30.25 52.73 30.16 53.17 30.06 53.6 29.96 54.04 29.85 54.47 29.74 54.91 29.63 55.35 29.52 55.78 29.4 56.22 29.27 56.66 29.15 57.09 29.02 57.53 28.89 57.97 28.75 58.4 28.61 58.84 28.46 59.27 28.32 59.71 28.16 60.15 28.01 60.58 27.85 61.02 27.68 61.46 27.51 61.89 27.34 62.33 27.17 62.77 26.99 63.2 26.8 63.64 26.61 64.08 26.42 64.51 26.23 64.95 26.03 65.38 25.82 65.82 25.61 66.26 25.4 66.69 25.19 67.13 24.97 67.57 24.75 68 24.52 68.44 24.29 68.88 24.06 69.31 23.83 69.75 23.59 70.18 23.35 70.62 23.11 71.06 22.86 71.49 22.62 71.93 22.37 72.37 22.11 72.8 21.86 73.24 21.61 73.68 21.35 74.11 21.09 74.55 20.84 74.98 20.58 75.42 20.32 75.86 20.06 76.29 19.8 76.73 19.54 77.17 19.28 77.6 19.02 78.04 18.76 78.48 18.51 78.91 18.25 79.35 18 79.79 17.74 80.22 17.49 80.66 17.24 81.09 17 81.53 16.75 81.97 16.51 82.4 16.27 82.84 16.03 83.28 15.8 83.71 15.56 84.15 15.34 84.59 15.11 85.02 14.89 85.46 14.67 85.89 14.45 86.33 14.24 86.77 14.04 87.2 13.83 87.64 13.63 88.08 13.44 88.51 13.24 88.95 13.06 89.39 12.87 89.82 12.69 90.26 12.52 90.69 12.34 91.13 12.17 91.57 12.01 92 11.85 92.44 11.69 92.88 11.54 93.31 11.39 93.75 11.25 94.19 11.11 94.62 10.97 95.06 10.84 95.5 10.71 95.93 10.58 96.37 10.46 96.8 10.34 97.24 10.23 97.68 10.12 98.11 10.01 98.55 9.9 98.99 9.8 99.42 9.7 99.86 9.61 100.3 9.51 100.73 9.42 101.17 9.34 101.6 9.25 102.04 9.17 102.48 9.09 102.91 9.02 103.35 8.94 103.79 8.87 104.22 8.8 104.66 8.74 105.1 8.67 105.53 8.61 105.97 8.55 106.41 8.49 106.84 8.44 107.28 8.39 107.71 8.33 108.15 8.28 108.59 8.24 109.02 8.19 109.46 8.14 109.9 8.1 110.33 8.06 110.77 8.02 111.21 7.98 111.64 7.94 112.08 7.91 112.51 7.87 112.95 7.84 113.39 7.81 113.82 7.78 114.26 7.75 114.7 7.72 115.13 7.69 115.57 7.66 116.01 7.64 116.44 7.61 116.88 7.59 117.31 7.57 117.75 7.55 118.19 7.53 118.62 7.51 119.06 7.49 119.5 7.47 119.93 7.45 120.37 7.43 120.81 7.41 121.24 7.4 121.68 7.38 122.12 7.37 122.55 7.35 122.99 7.34 123.42 7.33 123.86 7.31 124.3 7.3 124.73 7.29 125.17 7.28 125.61 7.27 126.04 7.26 126.48 7.25 126.92 7.24 127.35 7.23 127.79 7.22 128.22 7.21 128.66 7.2 129.1 7.2 129.53 7.19 129.97 7.18 130.41 7.17" id="fig-949d2a3f851a45f28c678b9d336c9b9c-element-29" class="geometry color_logistic" stroke="#00BFFF"/>
        <path fill="none" d="M21.75,58.71 L 22.18 58.71 22.62 58.71 23.05 58.71 23.49 58.71 23.93 58.71 24.36 58.71 24.8 58.71 25.24 58.71 25.67 58.71 26.11 58.71 26.55 58.71 26.98 58.71 27.42 58.71 27.85 58.71 28.29 58.71 28.73 58.71 29.16 58.71 29.6 58.71 30.04 58.7 30.47 58.7 30.91 58.7 31.35 58.7 31.78 58.7 32.22 58.7 32.65 58.7 33.09 58.7 33.53 58.69 33.96 58.69 34.4 58.69 34.84 58.69 35.27 58.69 35.71 58.68 36.15 58.68 36.58 58.68 37.02 58.68 37.46 58.67 37.89 58.67 38.33 58.67 38.76 58.66 39.2 58.66 39.64 58.65 40.07 58.65 40.51 58.64 40.95 58.63 41.38 58.63 41.82 58.62 42.26 58.61 42.69 58.6 43.13 58.6 43.56 58.59 44 58.57 44.44 58.56 44.87 58.55 45.31 58.54 45.75 58.52 46.18 58.5 46.62 58.49 47.06 58.47 47.49 58.45 47.93 58.43 48.36 58.4 48.8 58.38 49.24 58.35 49.67 58.32 50.11 58.28 50.55 58.25 50.98 58.21 51.42 58.17 51.86 58.12 52.29 58.07 52.73 58.02 53.17 57.96 53.6 57.9 54.04 57.83 54.47 57.76 54.91 57.68 55.35 57.6 55.78 57.51 56.22 57.41 56.66 57.3 57.09 57.19 57.53 57.07 57.97 56.93 58.4 56.79 58.84 56.64 59.27 56.47 59.71 56.29 60.15 56.1 60.58 55.89 61.02 55.67 61.46 55.43 61.89 55.17 62.33 54.9 62.77 54.61 63.2 54.29 63.64 53.96 64.08 53.6 64.51 53.21 64.95 52.81 65.38 52.37 65.82 51.91 66.26 51.42 66.69 50.91 67.13 50.36 67.57 49.78 68 49.17 68.44 48.53 68.88 47.86 69.31 47.15 69.75 46.42 70.18 45.65 70.62 44.85 71.06 44.02 71.49 43.16 71.93 42.27 72.37 41.36 72.8 40.42 73.24 39.46 73.68 38.48 74.11 37.48 74.55 36.47 74.98 35.44 75.42 34.41 75.86 33.38 76.29 32.34 76.73 31.3 77.17 30.27 77.6 29.25 78.04 28.23 78.48 27.24 78.91 26.26 79.35 25.3 79.79 24.36 80.22 23.44 80.66 22.56 81.09 21.7 81.53 20.87 81.97 20.07 82.4 19.3 82.84 18.56 83.28 17.86 83.71 17.18 84.15 16.54 84.59 15.93 85.02 15.36 85.46 14.81 85.89 14.29 86.33 13.8 86.77 13.34 87.2 12.91 87.64 12.5 88.08 12.12 88.51 11.76 88.95 11.42 89.39 11.11 89.82 10.82 90.26 10.54 90.69 10.28 91.13 10.05 91.57 9.82 92 9.62 92.44 9.42 92.88 9.25 93.31 9.08 93.75 8.92 94.19 8.78 94.62 8.65 95.06 8.52 95.5 8.41 95.93 8.3 96.37 8.21 96.8 8.11 97.24 8.03 97.68 7.95 98.11 7.88 98.55 7.81 98.99 7.75 99.42 7.69 99.86 7.64 100.3 7.59 100.73 7.55 101.17 7.51 101.6 7.47 102.04 7.43 102.48 7.4 102.91 7.37 103.35 7.34 103.79 7.31 104.22 7.29 104.66 7.27 105.1 7.25 105.53 7.23 105.97 7.21 106.41 7.19 106.84 7.18 107.28 7.17 107.71 7.15 108.15 7.14 108.59 7.13 109.02 7.12 109.46 7.11 109.9 7.1 110.33 7.09 110.77 7.09 111.21 7.08 111.64 7.07 112.08 7.07 112.51 7.06 112.95 7.06 113.39 7.05 113.82 7.05 114.26 7.05 114.7 7.04 115.13 7.04 115.57 7.04 116.01 7.03 116.44 7.03 116.88 7.03 117.31 7.03 117.75 7.02 118.19 7.02 118.62 7.02 119.06 7.02 119.5 7.02 119.93 7.02 120.37 7.01 120.81 7.01 121.24 7.01 121.68 7.01 122.12 7.01 122.55 7.01 122.99 7.01 123.42 7.01 123.86 7.01 124.3 7.01 124.73 7.01 125.17 7.01 125.61 7.01 126.04 7.01 126.48 7 126.92 7 127.35 7 127.79 7 128.22 7 128.66 7 129.1 7 129.53 7 129.97 7 130.41 7" id="fig-949d2a3f851a45f28c678b9d336c9b9c-element-30" class="geometry color_tanh" stroke="#D4CA3A"/>
      </g>
    </g>
  </g>
  <g class="guide ylabels" font-size="2.82" font-family="'PT Sans Caption','Helvetica Neue','Helvetica',sans-serif" fill="#6C606B" id="fig-949d2a3f851a45f28c678b9d336c9b9c-element-31">
    <text x="18.75" y="58.72" text-anchor="end" dy="0.35em" id="fig-949d2a3f851a45f28c678b9d336c9b9c-element-32">-1.0</text>
    <text x="18.75" y="45.79" text-anchor="end" dy="0.35em" id="fig-949d2a3f851a45f28c678b9d336c9b9c-element-33">-0.5</text>
    <text x="18.75" y="32.86" text-anchor="end" dy="0.35em" id="fig-949d2a3f851a45f28c678b9d336c9b9c-element-34">0.0</text>
    <text x="18.75" y="19.93" text-anchor="end" dy="0.35em" id="fig-949d2a3f851a45f28c678b9d336c9b9c-element-35">0.5</text>
    <text x="18.75" y="7" text-anchor="end" dy="0.35em" id="fig-949d2a3f851a45f28c678b9d336c9b9c-element-36">1.0</text>
  </g>
  <g font-size="3.88" font-family="'PT Sans','Helvetica Neue','Helvetica',sans-serif" fill="#564A55" stroke="#000000" stroke-opacity="0.000" id="fig-949d2a3f851a45f28c678b9d336c9b9c-element-37">
    <text x="8.81" y="30.86" text-anchor="middle" dy="0.35em" transform="rotate(-90, 8.81, 32.86)" id="fig-949d2a3f851a45f28c678b9d336c9b9c-element-38">f(x)</text>
  </g>
</g>
<defs>
<clipPath id="fig-949d2a3f851a45f28c678b9d336c9b9c-element-14">
  <path d="M19.75,5 L 132.41 5 132.41 60.72 19.75 60.72" />
</clipPath
></defs>
</svg>
