<?xml version="1.0" encoding="UTF-8" standalone="no"?>
<!DOCTYPE svg PUBLIC "-//W3C//DTD SVG 1.1//EN"
 "http://www.w3.org/Graphics/SVG/1.1/DTD/svg11.dtd">
<!-- Generated by graphviz version 2.38.0 (20140413.2041)
 -->
<!-- Title: G Pages: 1 -->
<svg width="252pt" height="202pt"
 viewBox="0.00 0.00 252.00 202.37" xmlns="http://www.w3.org/2000/svg" xmlns:xlink="http://www.w3.org/1999/xlink">
<g id="graph0" class="graph" transform="scale(0.644501 0.644501) rotate(0) translate(4 310)">
<title>G</title>
<polygon fill="white" stroke="none" points="-4,4 -4,-310 387,-310 387,4 -4,4"/>
<g id="clust1" class="cluster"><title>cluster_0</title>
<polygon fill="none" stroke="white" points="0,-8 0,-298 77,-298 77,-8 0,-8"/>
<text text-anchor="middle" x="38.5" y="-282.8" font-family="Times,serif" font-size="14.00">Input layer</text>
</g>
<g id="clust2" class="cluster"><title>cluster_1</title>
<polygon fill="none" stroke="white" points="97,-8 97,-244 182,-244 182,-8 97,-8"/>
<text text-anchor="middle" x="139.5" y="-228.8" font-family="Times,serif" font-size="14.00">hidden layer</text>
</g>
<g id="clust3" class="cluster"><title>cluster_2</title>
<polygon fill="none" stroke="white" points="202,-35 202,-217 285,-217 285,-35 202,-35"/>
<text text-anchor="middle" x="243.5" y="-201.8" font-family="Times,serif" font-size="14.00">output layer</text>
</g>
<g id="clust4" class="cluster"><title>cluster_3</title>
<polygon fill="none" stroke="white" points="305,-35 305,-195 375,-195 375,-35 305,-35"/>
</g>
<!-- b1 -->
<g id="node1" class="node"><title>b1</title>
<ellipse fill="none" stroke="black" cx="38" cy="-34" rx="18" ry="18"/>
<text text-anchor="middle" x="38" y="-29.8" font-family="Times,serif" font-size="14.00">+1</text>
</g>
<!-- a -->
<g id="node6" class="node"><title>a</title>
<ellipse fill="none" stroke="black" cx="139" cy="-142" rx="18" ry="18"/>
</g>
<!-- b1&#45;&gt;a -->
<g id="edge29" class="edge"><title>b1&#45;&gt;a</title>
<path fill="none" stroke="black" d="M50.7454,-46.8131C67.7148,-65.3253 99.2589,-99.7369 119.41,-121.72"/>
<polygon fill="black" stroke="black" points="116.933,-124.197 126.27,-129.204 122.093,-119.467 116.933,-124.197"/>
</g>
<!-- b -->
<g id="node7" class="node"><title>b</title>
<ellipse fill="none" stroke="black" cx="139" cy="-88" rx="18" ry="18"/>
<text text-anchor="middle" x="139" y="-83.8" font-family="Times,serif" font-size="14.00">i</text>
</g>
<!-- b1&#45;&gt;b -->
<g id="edge24" class="edge"><title>b1&#45;&gt;b</title>
<path fill="none" stroke="black" d="M54.036,-42.2014C69.9541,-50.8841 95.312,-64.7156 114,-74.9089"/>
<polygon fill="black" stroke="black" points="112.368,-78.0054 122.823,-79.7214 115.72,-71.8602 112.368,-78.0054"/>
</g>
<!-- c -->
<g id="node8" class="node"><title>c</title>
<ellipse fill="none" stroke="black" cx="139" cy="-196" rx="18" ry="18"/>
</g>
<!-- b1&#45;&gt;c -->
<g id="edge30" class="edge"><title>b1&#45;&gt;c</title>
<path fill="none" stroke="black" d="M48.1362,-48.9502C65.3754,-77.1597 102.824,-138.44 123.523,-172.31"/>
<polygon fill="black" stroke="black" points="120.685,-174.378 128.886,-181.086 126.658,-170.728 120.685,-174.378"/>
</g>
<!-- x1 -->
<g id="node2" class="node"><title>x1</title>
<ellipse fill="none" stroke="black" cx="38" cy="-250" rx="18" ry="18"/>
<text text-anchor="middle" x="38" y="-245.8" font-family="Times,serif" font-size="14.00">x1</text>
</g>
<!-- x1&#45;&gt;a -->
<g id="edge16" class="edge"><title>x1&#45;&gt;a</title>
<path fill="none" stroke="black" d="M50.7454,-237.187C67.7148,-218.675 99.2589,-184.263 119.41,-162.28"/>
<polygon fill="black" stroke="black" points="122.093,-164.533 126.27,-154.796 116.933,-159.803 122.093,-164.533"/>
</g>
<!-- x1&#45;&gt;b -->
<g id="edge20" class="edge"><title>x1&#45;&gt;b</title>
<path fill="none" stroke="black" d="M48.1362,-235.05C65.3754,-206.84 102.824,-145.56 123.523,-111.69"/>
<polygon fill="black" stroke="black" points="126.658,-113.272 128.886,-102.914 120.685,-109.622 126.658,-113.272"/>
</g>
<!-- x1&#45;&gt;c -->
<g id="edge17" class="edge"><title>x1&#45;&gt;c</title>
<path fill="none" stroke="black" d="M54.036,-241.799C69.9541,-233.116 95.312,-219.284 114,-209.091"/>
<polygon fill="black" stroke="black" points="115.72,-212.14 122.823,-204.279 112.368,-205.995 115.72,-212.14"/>
</g>
<!-- x2 -->
<g id="node3" class="node"><title>x2</title>
<ellipse fill="none" stroke="black" cx="38" cy="-196" rx="18" ry="18"/>
<text text-anchor="middle" x="38" y="-191.8" font-family="Times,serif" font-size="14.00">x2</text>
</g>
<!-- x2&#45;&gt;a -->
<g id="edge18" class="edge"><title>x2&#45;&gt;a</title>
<path fill="none" stroke="black" d="M54.036,-187.799C69.9541,-179.116 95.312,-165.284 114,-155.091"/>
<polygon fill="black" stroke="black" points="115.72,-158.14 122.823,-150.279 112.368,-151.995 115.72,-158.14"/>
</g>
<!-- x2&#45;&gt;b -->
<g id="edge21" class="edge"><title>x2&#45;&gt;b</title>
<path fill="none" stroke="black" d="M50.7454,-183.187C67.7148,-164.675 99.2589,-130.263 119.41,-108.28"/>
<polygon fill="black" stroke="black" points="122.093,-110.533 126.27,-100.796 116.933,-105.803 122.093,-110.533"/>
</g>
<!-- x2&#45;&gt;c -->
<g id="edge19" class="edge"><title>x2&#45;&gt;c</title>
<path fill="none" stroke="black" d="M56.2445,-196C71.2922,-196 93.3837,-196 110.81,-196"/>
<polygon fill="black" stroke="black" points="110.953,-199.5 120.953,-196 110.953,-192.5 110.953,-199.5"/>
</g>
<!-- x3 -->
<g id="node4" class="node"><title>x3</title>
<ellipse fill="none" stroke="black" cx="38" cy="-142" rx="18" ry="18"/>
<text text-anchor="middle" x="38" y="-137.8" font-family="Times,serif" font-size="14.00">x3</text>
</g>
<!-- x3&#45;&gt;a -->
<g id="edge25" class="edge"><title>x3&#45;&gt;a</title>
<path fill="none" stroke="black" d="M56.2445,-142C71.2922,-142 93.3837,-142 110.81,-142"/>
<polygon fill="black" stroke="black" points="110.953,-145.5 120.953,-142 110.953,-138.5 110.953,-145.5"/>
</g>
<!-- x3&#45;&gt;b -->
<g id="edge22" class="edge"><title>x3&#45;&gt;b</title>
<path fill="none" stroke="black" d="M54.036,-133.799C69.9541,-125.116 95.312,-111.284 114,-101.091"/>
<polygon fill="black" stroke="black" points="115.72,-104.14 122.823,-96.2786 112.368,-97.9946 115.72,-104.14"/>
</g>
<!-- x3&#45;&gt;c -->
<g id="edge26" class="edge"><title>x3&#45;&gt;c</title>
<path fill="none" stroke="black" d="M54.036,-150.201C69.9541,-158.884 95.312,-172.716 114,-182.909"/>
<polygon fill="black" stroke="black" points="112.368,-186.005 122.823,-187.721 115.72,-179.86 112.368,-186.005"/>
</g>
<!-- x4 -->
<g id="node5" class="node"><title>x4</title>
<ellipse fill="none" stroke="black" cx="38" cy="-88" rx="18" ry="18"/>
<text text-anchor="middle" x="38" y="-83.8" font-family="Times,serif" font-size="14.00">x4</text>
</g>
<!-- x4&#45;&gt;a -->
<g id="edge27" class="edge"><title>x4&#45;&gt;a</title>
<path fill="none" stroke="black" d="M54.036,-96.2014C69.9541,-104.884 95.312,-118.716 114,-128.909"/>
<polygon fill="black" stroke="black" points="112.368,-132.005 122.823,-133.721 115.72,-125.86 112.368,-132.005"/>
</g>
<!-- x4&#45;&gt;b -->
<g id="edge23" class="edge"><title>x4&#45;&gt;b</title>
<path fill="none" stroke="black" d="M56.2445,-88C71.2922,-88 93.3837,-88 110.81,-88"/>
<polygon fill="black" stroke="black" points="110.953,-91.5001 120.953,-88 110.953,-84.5001 110.953,-91.5001"/>
</g>
<!-- x4&#45;&gt;c -->
<g id="edge28" class="edge"><title>x4&#45;&gt;c</title>
<path fill="none" stroke="black" d="M50.7454,-100.813C67.7148,-119.325 99.2589,-153.737 119.41,-175.72"/>
<polygon fill="black" stroke="black" points="116.933,-178.197 126.27,-183.204 122.093,-173.467 116.933,-178.197"/>
</g>
<!-- o0 -->
<g id="node10" class="node"><title>o0</title>
<ellipse fill="none" stroke="black" cx="243" cy="-115" rx="18" ry="18"/>
</g>
<!-- a&#45;&gt;o0 -->
<g id="edge4" class="edge"><title>a&#45;&gt;o0</title>
<path fill="none" stroke="black" d="M156.843,-137.541C172.81,-133.315 197.045,-126.9 215.583,-121.993"/>
<polygon fill="black" stroke="black" points="216.699,-125.318 225.47,-119.376 214.907,-118.551 216.699,-125.318"/>
</g>
<!-- o1 -->
<g id="node11" class="node"><title>o1</title>
<ellipse fill="none" stroke="black" cx="243" cy="-61" rx="18" ry="18"/>
<text text-anchor="middle" x="243" y="-56.8" font-family="Times,serif" font-size="14.00">j</text>
</g>
<!-- a&#45;&gt;o1 -->
<g id="edge5" class="edge"><title>a&#45;&gt;o1</title>
<path fill="none" stroke="black" d="M153.756,-131.076C170.885,-117.473 200.339,-94.0837 220.469,-78.0984"/>
<polygon fill="black" stroke="black" points="222.807,-80.7107 228.462,-71.7509 218.454,-75.2289 222.807,-80.7107"/>
</g>
<!-- o2 -->
<g id="node12" class="node"><title>o2</title>
<ellipse fill="none" stroke="black" cx="243" cy="-169" rx="18" ry="18"/>
</g>
<!-- a&#45;&gt;o2 -->
<g id="edge6" class="edge"><title>a&#45;&gt;o2</title>
<path fill="none" stroke="black" d="M156.843,-146.459C172.81,-150.685 197.045,-157.1 215.583,-162.007"/>
<polygon fill="black" stroke="black" points="214.907,-165.449 225.47,-164.624 216.699,-158.682 214.907,-165.449"/>
</g>
<!-- b&#45;&gt;o0 -->
<g id="edge2" class="edge"><title>b&#45;&gt;o0</title>
<path fill="none" stroke="black" d="M156.843,-92.4585C172.81,-96.6851 197.045,-103.1 215.583,-108.007"/>
<polygon fill="black" stroke="black" points="214.907,-111.449 225.47,-110.624 216.699,-104.682 214.907,-111.449"/>
</g>
<!-- b&#45;&gt;o1 -->
<g id="edge1" class="edge"><title>b&#45;&gt;o1</title>
<path fill="none" stroke="red" d="M156.843,-83.5415C172.81,-79.3149 197.045,-72.9 215.583,-67.9928"/>
<polygon fill="red" stroke="red" points="216.699,-71.318 225.47,-65.3755 214.907,-64.5511 216.699,-71.318"/>
</g>
<!-- b&#45;&gt;o2 -->
<g id="edge3" class="edge"><title>b&#45;&gt;o2</title>
<path fill="none" stroke="black" d="M153.756,-98.924C170.885,-112.527 200.339,-135.916 220.469,-151.902"/>
<polygon fill="black" stroke="black" points="218.454,-154.771 228.462,-158.249 222.807,-149.289 218.454,-154.771"/>
</g>
<!-- c&#45;&gt;o0 -->
<g id="edge7" class="edge"><title>c&#45;&gt;o0</title>
<path fill="none" stroke="black" d="M153.756,-185.076C170.885,-171.473 200.339,-148.084 220.469,-132.098"/>
<polygon fill="black" stroke="black" points="222.807,-134.711 228.462,-125.751 218.454,-129.229 222.807,-134.711"/>
</g>
<!-- c&#45;&gt;o1 -->
<g id="edge8" class="edge"><title>c&#45;&gt;o1</title>
<path fill="none" stroke="black" d="M150.532,-182.061C168.245,-158.617 204.135,-111.115 225.31,-83.0895"/>
<polygon fill="black" stroke="black" points="228.137,-85.1539 231.373,-75.0653 222.552,-80.9341 228.137,-85.1539"/>
</g>
<!-- c&#45;&gt;o2 -->
<g id="edge9" class="edge"><title>c&#45;&gt;o2</title>
<path fill="none" stroke="black" d="M156.843,-191.541C172.81,-187.315 197.045,-180.9 215.583,-175.993"/>
<polygon fill="black" stroke="black" points="216.699,-179.318 225.47,-173.376 214.907,-172.551 216.699,-179.318"/>
</g>
<!-- b2 -->
<g id="node9" class="node"><title>b2</title>
<ellipse fill="none" stroke="black" cx="139" cy="-34" rx="18" ry="18"/>
<text text-anchor="middle" x="139" y="-29.8" font-family="Times,serif" font-size="14.00">+1</text>
</g>
<!-- b2&#45;&gt;o0 -->
<g id="edge10" class="edge"><title>b2&#45;&gt;o0</title>
<path fill="none" stroke="black" d="M153.756,-44.924C170.885,-58.5266 200.339,-81.9163 220.469,-97.9016"/>
<polygon fill="black" stroke="black" points="218.454,-100.771 228.462,-104.249 222.807,-95.2893 218.454,-100.771"/>
</g>
<!-- b2&#45;&gt;o1 -->
<g id="edge11" class="edge"><title>b2&#45;&gt;o1</title>
<path fill="none" stroke="black" d="M156.843,-38.4585C172.81,-42.6851 197.045,-49.1 215.583,-54.0072"/>
<polygon fill="black" stroke="black" points="214.907,-57.4489 225.47,-56.6245 216.699,-50.682 214.907,-57.4489"/>
</g>
<!-- b2&#45;&gt;o2 -->
<g id="edge12" class="edge"><title>b2&#45;&gt;o2</title>
<path fill="none" stroke="black" d="M150.532,-47.9389C168.245,-71.3829 204.135,-118.885 225.31,-146.911"/>
<polygon fill="black" stroke="black" points="222.552,-149.066 231.373,-154.935 228.137,-144.846 222.552,-149.066"/>
</g>
<!-- u -->
<g id="node13" class="node"><title>u</title>
<text text-anchor="middle" x="340" y="-110.8" font-family="Times,serif" font-size="14.00">y2</text>
</g>
<!-- o0&#45;&gt;u -->
<g id="edge13" class="edge"><title>o0&#45;&gt;u</title>
<path fill="none" stroke="black" d="M261.424,-115C272.864,-115 288.257,-115 302.316,-115"/>
<polygon fill="black" stroke="black" points="302.719,-118.5 312.719,-115 302.718,-111.5 302.719,-118.5"/>
</g>
<!-- v -->
<g id="node14" class="node"><title>v</title>
<text text-anchor="middle" x="340" y="-56.8" font-family="Times,serif" font-size="14.00" fill="red">y3</text>
</g>
<!-- o1&#45;&gt;v -->
<g id="edge15" class="edge"><title>o1&#45;&gt;v</title>
<path fill="none" stroke="black" d="M261.424,-61C272.864,-61 288.257,-61 302.316,-61"/>
<polygon fill="black" stroke="black" points="302.719,-64.5001 312.719,-61 302.718,-57.5001 302.719,-64.5001"/>
</g>
<!-- w -->
<g id="node15" class="node"><title>w</title>
<text text-anchor="middle" x="340" y="-164.8" font-family="Times,serif" font-size="14.00">y1</text>
</g>
<!-- o2&#45;&gt;w -->
<g id="edge14" class="edge"><title>o2&#45;&gt;w</title>
<path fill="none" stroke="black" d="M261.424,-169C272.864,-169 288.257,-169 302.316,-169"/>
<polygon fill="black" stroke="black" points="302.719,-172.5 312.719,-169 302.718,-165.5 302.719,-172.5"/>
</g>
</g>
</svg>
