<?xml version="1.0" encoding="UTF-8" standalone="no"?>
<!DOCTYPE svg PUBLIC "-//W3C//DTD SVG 1.1//EN"
 "http://www.w3.org/Graphics/SVG/1.1/DTD/svg11.dtd">
<!-- Generated by graphviz version 2.38.0 (20140413.2041)
 -->
<!-- Title: G Pages: 1 -->
<svg width="252pt" height="222pt"
 viewBox="0.00 0.00 252.00 222.46" xmlns="http://www.w3.org/2000/svg" xmlns:xlink="http://www.w3.org/1999/xlink">
<g id="graph0" class="graph" transform="scale(0.602871 0.602871) rotate(0) translate(4 365)">
<title>G</title>
<polygon fill="white" stroke="none" points="-4,4 -4,-365 414,-365 414,4 -4,4"/>
<g id="clust1" class="cluster"><title>cluster_0</title>
<polygon fill="none" stroke="white" points="98,-62 98,-353 150,-353 150,-62 98,-62"/>
<text text-anchor="middle" x="124" y="-337.8" font-family="Ricty" font-size="14.00">l&#45;1</text>
</g>
<g id="clust2" class="cluster"><title>cluster_1</title>
<polygon fill="none" stroke="white" points="170,-62 170,-299 222,-299 222,-62 170,-62"/>
<text text-anchor="middle" x="196" y="-283.8" font-family="Ricty" font-size="14.00">l</text>
</g>
<g id="clust3" class="cluster"><title>cluster_2</title>
<polygon fill="none" stroke="white" points="242,-8 242,-245 312,-245 312,-8 242,-8"/>
<text text-anchor="middle" x="277" y="-229.8" font-family="Ricty" font-size="14.00">l+1</text>
</g>
<g id="clust4" class="cluster"><title>cluster_3</title>
<polygon fill="none" stroke="white" points="332,-35 332,-218 402,-218 402,-35 332,-35"/>
<text text-anchor="middle" x="367" y="-202.8" font-family="Ricty" font-size="14.00">l+2</text>
</g>
<g id="clust5" class="cluster"><title>cluster_4</title>
<polygon fill="none" stroke="white" points="8,-143 8,-326 78,-326 78,-143 8,-143"/>
<text text-anchor="middle" x="43" y="-310.8" font-family="Ricty" font-size="14.00">l&#45;2</text>
</g>
<!-- b1 -->
<g id="node1" class="node"><title>b1</title>
<ellipse fill="none" stroke="black" cx="124" cy="-88" rx="18" ry="18"/>
<text text-anchor="middle" x="124" y="-83.8" font-family="Times,serif" font-size="14.00">+1</text>
</g>
<!-- a -->
<g id="node6" class="node"><title>a</title>
<ellipse fill="none" stroke="black" cx="196" cy="-196" rx="18" ry="18"/>
</g>
<!-- b1&#45;&gt;a -->
<g id="edge25" class="edge"><title>b1&#45;&gt;a</title>
<path fill="none" stroke="black" d="M134.733,-103.017C146.435,-121.071 166.206,-151.575 179.896,-172.696"/>
<polygon fill="black" stroke="black" points="176.973,-174.623 185.349,-181.111 182.848,-170.815 176.973,-174.623"/>
</g>
<!-- b -->
<g id="node7" class="node"><title>b</title>
<ellipse fill="none" stroke="black" cx="196" cy="-142" rx="18" ry="18"/>
<text text-anchor="middle" x="196" y="-137.8" font-family="Times,serif" font-size="14.00">j</text>
</g>
<!-- b1&#45;&gt;b -->
<g id="edge26" class="edge"><title>b1&#45;&gt;b</title>
<path fill="none" stroke="black" d="M138.83,-98.6687C148.609,-106.213 161.92,-116.481 173.13,-125.129"/>
<polygon fill="black" stroke="black" points="171.143,-128.017 181.199,-131.354 175.419,-122.474 171.143,-128.017"/>
</g>
<!-- c -->
<g id="node8" class="node"><title>c</title>
<ellipse fill="none" stroke="black" cx="196" cy="-250" rx="18" ry="18"/>
</g>
<!-- b1&#45;&gt;c -->
<g id="edge27" class="edge"><title>b1&#45;&gt;c</title>
<path fill="none" stroke="black" d="M132.097,-104.425C144.308,-132.685 169.378,-190.704 183.911,-224.337"/>
<polygon fill="black" stroke="black" points="180.705,-225.74 187.884,-233.532 187.13,-222.964 180.705,-225.74"/>
</g>
<!-- x1 -->
<g id="node2" class="node"><title>x1</title>
<ellipse fill="none" stroke="black" cx="124" cy="-304" rx="18" ry="18"/>
</g>
<!-- x1&#45;&gt;a -->
<g id="edge34" class="edge"><title>x1&#45;&gt;a</title>
<path fill="none" stroke="black" d="M134.733,-288.983C146.435,-270.929 166.206,-240.425 179.896,-219.304"/>
<polygon fill="black" stroke="black" points="182.848,-221.185 185.349,-210.889 176.973,-217.377 182.848,-221.185"/>
</g>
<!-- x1&#45;&gt;b -->
<g id="edge21" class="edge"><title>x1&#45;&gt;b</title>
<path fill="none" stroke="black" d="M132.097,-287.575C144.308,-259.315 169.378,-201.296 183.911,-167.663"/>
<polygon fill="black" stroke="black" points="187.13,-169.036 187.884,-158.468 180.705,-166.26 187.13,-169.036"/>
</g>
<!-- x1&#45;&gt;c -->
<g id="edge35" class="edge"><title>x1&#45;&gt;c</title>
<path fill="none" stroke="black" d="M138.83,-293.331C148.609,-285.787 161.92,-275.519 173.13,-266.871"/>
<polygon fill="black" stroke="black" points="175.419,-269.526 181.199,-260.646 171.143,-263.983 175.419,-269.526"/>
</g>
<!-- x2 -->
<g id="node3" class="node"><title>x2</title>
<ellipse fill="none" stroke="black" cx="124" cy="-196" rx="18" ry="18"/>
<text text-anchor="middle" x="124" y="-191.8" font-family="Times,serif" font-size="14.00">i</text>
</g>
<!-- x2&#45;&gt;a -->
<g id="edge32" class="edge"><title>x2&#45;&gt;a</title>
<path fill="none" stroke="black" d="M142.303,-196C150.017,-196 159.288,-196 167.888,-196"/>
<polygon fill="black" stroke="black" points="167.896,-199.5 177.896,-196 167.896,-192.5 167.896,-199.5"/>
</g>
<!-- x2&#45;&gt;b -->
<g id="edge24" class="edge"><title>x2&#45;&gt;b</title>
<path fill="none" stroke="red" d="M138.83,-185.331C148.609,-177.787 161.92,-167.519 173.13,-158.871"/>
<polygon fill="red" stroke="red" points="175.419,-161.526 181.199,-152.646 171.143,-155.983 175.419,-161.526"/>
</g>
<!-- x2&#45;&gt;c -->
<g id="edge33" class="edge"><title>x2&#45;&gt;c</title>
<path fill="none" stroke="black" d="M138.83,-206.669C148.609,-214.213 161.92,-224.481 173.13,-233.129"/>
<polygon fill="black" stroke="black" points="171.143,-236.017 181.199,-239.354 175.419,-230.474 171.143,-236.017"/>
</g>
<!-- x3 -->
<g id="node4" class="node"><title>x3</title>
<ellipse fill="none" stroke="black" cx="124" cy="-142" rx="18" ry="18"/>
</g>
<!-- x3&#45;&gt;a -->
<g id="edge30" class="edge"><title>x3&#45;&gt;a</title>
<path fill="none" stroke="black" d="M138.83,-152.669C148.609,-160.213 161.92,-170.481 173.13,-179.129"/>
<polygon fill="black" stroke="black" points="171.143,-182.017 181.199,-185.354 175.419,-176.474 171.143,-182.017"/>
</g>
<!-- x3&#45;&gt;b -->
<g id="edge22" class="edge"><title>x3&#45;&gt;b</title>
<path fill="none" stroke="black" d="M142.303,-142C150.017,-142 159.288,-142 167.888,-142"/>
<polygon fill="black" stroke="black" points="167.896,-145.5 177.896,-142 167.896,-138.5 167.896,-145.5"/>
</g>
<!-- x3&#45;&gt;c -->
<g id="edge31" class="edge"><title>x3&#45;&gt;c</title>
<path fill="none" stroke="black" d="M134.733,-157.017C146.435,-175.071 166.206,-205.575 179.896,-226.696"/>
<polygon fill="black" stroke="black" points="176.973,-228.623 185.349,-235.111 182.848,-224.815 176.973,-228.623"/>
</g>
<!-- x4 -->
<g id="node5" class="node"><title>x4</title>
<ellipse fill="none" stroke="black" cx="124" cy="-250" rx="18" ry="18"/>
</g>
<!-- x4&#45;&gt;a -->
<g id="edge28" class="edge"><title>x4&#45;&gt;a</title>
<path fill="none" stroke="black" d="M138.83,-239.331C148.609,-231.787 161.92,-221.519 173.13,-212.871"/>
<polygon fill="black" stroke="black" points="175.419,-215.526 181.199,-206.646 171.143,-209.983 175.419,-215.526"/>
</g>
<!-- x4&#45;&gt;b -->
<g id="edge23" class="edge"><title>x4&#45;&gt;b</title>
<path fill="none" stroke="black" d="M134.733,-234.983C146.435,-216.929 166.206,-186.425 179.896,-165.304"/>
<polygon fill="black" stroke="black" points="182.848,-167.185 185.349,-156.889 176.973,-163.377 182.848,-167.185"/>
</g>
<!-- x4&#45;&gt;c -->
<g id="edge29" class="edge"><title>x4&#45;&gt;c</title>
<path fill="none" stroke="black" d="M142.303,-250C150.017,-250 159.288,-250 167.888,-250"/>
<polygon fill="black" stroke="black" points="167.896,-253.5 177.896,-250 167.896,-246.5 167.896,-253.5"/>
</g>
<!-- o0 -->
<g id="node10" class="node"><title>o0</title>
<ellipse fill="none" stroke="black" cx="277" cy="-196" rx="18" ry="18"/>
</g>
<!-- a&#45;&gt;o0 -->
<g id="edge13" class="edge"><title>a&#45;&gt;o0</title>
<path fill="none" stroke="black" d="M214.142,-196C224.287,-196 237.366,-196 248.883,-196"/>
<polygon fill="black" stroke="black" points="248.892,-199.5 258.892,-196 248.892,-192.5 248.892,-199.5"/>
</g>
<!-- o1 -->
<g id="node11" class="node"><title>o1</title>
<ellipse fill="none" stroke="black" cx="277" cy="-142" rx="18" ry="18"/>
<text text-anchor="middle" x="277" y="-137.8" font-family="Times,serif" font-size="14.00">k</text>
</g>
<!-- a&#45;&gt;o1 -->
<g id="edge14" class="edge"><title>a&#45;&gt;o1</title>
<path fill="none" stroke="black" d="M211.49,-186.096C223.183,-178.103 239.843,-166.715 253.303,-157.514"/>
<polygon fill="black" stroke="black" points="255.321,-160.374 261.602,-151.842 251.371,-154.595 255.321,-160.374"/>
</g>
<!-- b&#45;&gt;o0 -->
<g id="edge15" class="edge"><title>b&#45;&gt;o0</title>
<path fill="none" stroke="black" d="M211.49,-151.904C223.183,-159.897 239.843,-171.285 253.303,-180.486"/>
<polygon fill="black" stroke="black" points="251.371,-183.405 261.602,-186.158 255.321,-177.626 251.371,-183.405"/>
</g>
<!-- b&#45;&gt;o1 -->
<g id="edge16" class="edge"><title>b&#45;&gt;o1</title>
<path fill="none" stroke="black" d="M214.142,-142C224.287,-142 237.366,-142 248.883,-142"/>
<polygon fill="black" stroke="black" points="248.892,-145.5 258.892,-142 248.892,-138.5 248.892,-145.5"/>
</g>
<!-- c&#45;&gt;o0 -->
<g id="edge17" class="edge"><title>c&#45;&gt;o0</title>
<path fill="none" stroke="black" d="M211.49,-240.096C223.183,-232.103 239.843,-220.715 253.303,-211.514"/>
<polygon fill="black" stroke="black" points="255.321,-214.374 261.602,-205.842 251.371,-208.595 255.321,-214.374"/>
</g>
<!-- c&#45;&gt;o1 -->
<g id="edge18" class="edge"><title>c&#45;&gt;o1</title>
<path fill="none" stroke="black" d="M207.328,-235.881C220.635,-217.689 243.922,-185.854 259.646,-164.357"/>
<polygon fill="black" stroke="black" points="262.591,-166.26 265.67,-156.123 256.941,-162.127 262.591,-166.26"/>
</g>
<!-- b2 -->
<g id="node9" class="node"><title>b2</title>
<ellipse fill="none" stroke="black" cx="196" cy="-88" rx="18" ry="18"/>
<text text-anchor="middle" x="196" y="-83.8" font-family="Times,serif" font-size="14.00">+1</text>
</g>
<!-- b2&#45;&gt;o0 -->
<g id="edge19" class="edge"><title>b2&#45;&gt;o0</title>
<path fill="none" stroke="black" d="M207.328,-102.119C220.635,-120.311 243.922,-152.146 259.646,-173.643"/>
<polygon fill="black" stroke="black" points="256.941,-175.873 265.67,-181.877 262.591,-171.74 256.941,-175.873"/>
</g>
<!-- b2&#45;&gt;o1 -->
<g id="edge20" class="edge"><title>b2&#45;&gt;o1</title>
<path fill="none" stroke="black" d="M211.49,-97.9044C223.183,-105.897 239.843,-117.285 253.303,-126.486"/>
<polygon fill="black" stroke="black" points="251.371,-129.405 261.602,-132.158 255.321,-123.626 251.371,-129.405"/>
</g>
<!-- u -->
<g id="node14" class="node"><title>u</title>
</g>
<!-- o0&#45;&gt;u -->
<g id="edge36" class="edge"><title>o0&#45;&gt;u</title>
<path fill="none" stroke="black" d="M287.585,-181.296C302.216,-158.85 330.346,-115.697 348.634,-87.6412"/>
<polygon fill="black" stroke="black" points="351.667,-89.3968 354.196,-79.1082 345.803,-85.5742 351.667,-89.3968"/>
</g>
<!-- v -->
<g id="node15" class="node"><title>v</title>
</g>
<!-- o0&#45;&gt;v -->
<g id="edge37" class="edge"><title>o0&#45;&gt;v</title>
<path fill="none" stroke="black" d="M294.552,-190.922C304.609,-187.836 317.852,-183.773 330.201,-179.984"/>
<polygon fill="black" stroke="black" points="331.302,-183.307 339.835,-177.028 329.249,-176.615 331.302,-183.307"/>
</g>
<!-- w -->
<g id="node16" class="node"><title>w</title>
</g>
<!-- o0&#45;&gt;w -->
<g id="edge38" class="edge"><title>o0&#45;&gt;w</title>
<path fill="none" stroke="black" d="M290.985,-184.048C303.475,-172.551 322.75,-154.81 338.633,-140.19"/>
<polygon fill="black" stroke="black" points="341.127,-142.652 346.114,-133.304 336.386,-137.501 341.127,-142.652"/>
</g>
<!-- o1&#45;&gt;u -->
<g id="edge39" class="edge"><title>o1&#45;&gt;u</title>
<path fill="none" stroke="black" d="M290.985,-130.048C303.475,-118.551 322.75,-100.81 338.633,-86.1897"/>
<polygon fill="black" stroke="black" points="341.127,-88.6518 346.114,-79.3043 336.386,-83.5015 341.127,-88.6518"/>
</g>
<!-- o1&#45;&gt;v -->
<g id="edge40" class="edge"><title>o1&#45;&gt;v</title>
<path fill="none" stroke="black" d="M294.552,-147.078C304.609,-150.164 317.852,-154.227 330.201,-158.016"/>
<polygon fill="black" stroke="black" points="329.249,-161.385 339.835,-160.972 331.302,-154.693 329.249,-161.385"/>
</g>
<!-- o1&#45;&gt;w -->
<g id="edge41" class="edge"><title>o1&#45;&gt;w</title>
<path fill="none" stroke="black" d="M294.552,-136.922C304.609,-133.836 317.852,-129.773 330.201,-125.984"/>
<polygon fill="black" stroke="black" points="331.302,-129.307 339.835,-123.028 329.249,-122.615 331.302,-129.307"/>
</g>
<!-- o2 -->
<g id="node12" class="node"><title>o2</title>
<text text-anchor="middle" x="277" y="-97.8" font-family="Times,serif" font-size="14.00">.</text>
<text text-anchor="middle" x="277" y="-83.8" font-family="Times,serif" font-size="14.00">.</text>
<text text-anchor="middle" x="277" y="-69.8" font-family="Times,serif" font-size="14.00">.</text>
</g>
<!-- o2&#45;&gt;u -->
<g id="edge42" class="edge"><title>o2&#45;&gt;u</title>
<path fill="none" stroke="black" d="M304.403,-79.8991C312.481,-77.4206 321.507,-74.6514 330.105,-72.0134"/>
<polygon fill="black" stroke="black" points="331.386,-75.2815 339.919,-69.0021 329.332,-68.5894 331.386,-75.2815"/>
</g>
<!-- o2&#45;&gt;v -->
<g id="edge43" class="edge"><title>o2&#45;&gt;v</title>
<path fill="none" stroke="black" d="M297.969,-106.38C310.092,-117.539 325.727,-131.931 338.951,-144.103"/>
<polygon fill="black" stroke="black" points="336.686,-146.774 346.414,-150.972 341.426,-141.624 336.686,-146.774"/>
</g>
<!-- o2&#45;&gt;w -->
<g id="edge44" class="edge"><title>o2&#45;&gt;w</title>
<path fill="none" stroke="black" d="M304.403,-96.1009C312.481,-98.5794 321.507,-101.349 330.105,-103.987"/>
<polygon fill="black" stroke="black" points="329.332,-107.411 339.919,-106.998 331.386,-100.719 329.332,-107.411"/>
</g>
<!-- b3 -->
<g id="node13" class="node"><title>b3</title>
<ellipse fill="none" stroke="black" cx="277" cy="-34" rx="18" ry="18"/>
<text text-anchor="middle" x="277" y="-29.8" font-family="Times,serif" font-size="14.00">+1</text>
</g>
<!-- b3&#45;&gt;u -->
<g id="edge45" class="edge"><title>b3&#45;&gt;u</title>
<path fill="none" stroke="black" d="M294.552,-39.0785C304.609,-42.1642 317.852,-46.2273 330.201,-50.0162"/>
<polygon fill="black" stroke="black" points="329.249,-53.385 339.835,-52.9722 331.302,-46.6929 329.249,-53.385"/>
</g>
<!-- b3&#45;&gt;v -->
<g id="edge46" class="edge"><title>b3&#45;&gt;v</title>
<path fill="none" stroke="black" d="M287.585,-48.7044C302.216,-71.1502 330.346,-114.303 348.634,-142.359"/>
<polygon fill="black" stroke="black" points="345.803,-144.426 354.196,-150.892 351.667,-140.603 345.803,-144.426"/>
</g>
<!-- b3&#45;&gt;w -->
<g id="edge47" class="edge"><title>b3&#45;&gt;w</title>
<path fill="none" stroke="black" d="M290.985,-45.9518C303.475,-57.4486 322.75,-75.1902 338.633,-89.8103"/>
<polygon fill="black" stroke="black" points="336.386,-92.4985 346.114,-96.6957 341.127,-87.3482 336.386,-92.4985"/>
</g>
<!-- l0 -->
<g id="node17" class="node"><title>l0</title>
</g>
<!-- l0&#45;&gt;x1 -->
<g id="edge9" class="edge"><title>l0&#45;&gt;x1</title>
<path fill="none" stroke="black" d="M61.9263,-241.38C74.4084,-254.178 91.0366,-271.227 103.791,-284.304"/>
<polygon fill="black" stroke="black" points="101.304,-286.767 110.792,-291.483 106.315,-281.88 101.304,-286.767"/>
</g>
<!-- l0&#45;&gt;x2 -->
<g id="edge10" class="edge"><title>l0&#45;&gt;x2</title>
<path fill="none" stroke="black" d="M70.3059,-214.009C78.9518,-211.054 88.5507,-207.774 97.1616,-204.831"/>
<polygon fill="black" stroke="black" points="98.3693,-208.117 106.7,-201.571 96.1055,-201.493 98.3693,-208.117"/>
</g>
<!-- l0&#45;&gt;x3 -->
<g id="edge11" class="edge"><title>l0&#45;&gt;x3</title>
<path fill="none" stroke="black" d="M61.9263,-204.62C74.4084,-191.822 91.0366,-174.773 103.791,-161.696"/>
<polygon fill="black" stroke="black" points="106.315,-164.12 110.792,-154.517 101.304,-159.233 106.315,-164.12"/>
</g>
<!-- l0&#45;&gt;x4 -->
<g id="edge12" class="edge"><title>l0&#45;&gt;x4</title>
<path fill="none" stroke="black" d="M70.3059,-231.991C78.9518,-234.946 88.5507,-238.226 97.1616,-241.169"/>
<polygon fill="black" stroke="black" points="96.1055,-244.507 106.7,-244.429 98.3693,-237.883 96.1055,-244.507"/>
</g>
<!-- l1 -->
<g id="node18" class="node"><title>l1</title>
</g>
<!-- l1&#45;&gt;x1 -->
<g id="edge5" class="edge"><title>l1&#45;&gt;x1</title>
<path fill="none" stroke="black" d="M54.6543,-187.207C68.6692,-211.156 93.3367,-253.31 108.89,-279.888"/>
<polygon fill="black" stroke="black" points="105.907,-281.721 113.979,-288.584 111.949,-278.185 105.907,-281.721"/>
</g>
<!-- l1&#45;&gt;x2 -->
<g id="edge6" class="edge"><title>l1&#45;&gt;x2</title>
<path fill="none" stroke="black" d="M70.3059,-177.991C78.9518,-180.946 88.5507,-184.226 97.1616,-187.169"/>
<polygon fill="black" stroke="black" points="96.1055,-190.507 106.7,-190.429 98.3693,-183.883 96.1055,-190.507"/>
</g>
<!-- l1&#45;&gt;x3 -->
<g id="edge7" class="edge"><title>l1&#45;&gt;x3</title>
<path fill="none" stroke="black" d="M70.3059,-160.009C78.9518,-157.054 88.5507,-153.774 97.1616,-150.831"/>
<polygon fill="black" stroke="black" points="98.3693,-154.117 106.7,-147.571 96.1055,-147.493 98.3693,-154.117"/>
</g>
<!-- l1&#45;&gt;x4 -->
<g id="edge8" class="edge"><title>l1&#45;&gt;x4</title>
<path fill="none" stroke="black" d="M61.9263,-187.38C74.4084,-200.178 91.0366,-217.227 103.791,-230.304"/>
<polygon fill="black" stroke="black" points="101.304,-232.767 110.792,-237.483 106.315,-227.88 101.304,-232.767"/>
</g>
<!-- l2 -->
<g id="node19" class="node"><title>l2</title>
</g>
<!-- l2&#45;&gt;x1 -->
<g id="edge1" class="edge"><title>l2&#45;&gt;x1</title>
<path fill="none" stroke="black" d="M70.3059,-285.991C78.9518,-288.946 88.5507,-292.226 97.1616,-295.169"/>
<polygon fill="black" stroke="black" points="96.1055,-298.507 106.7,-298.429 98.3693,-291.883 96.1055,-298.507"/>
</g>
<!-- l2&#45;&gt;x2 -->
<g id="edge2" class="edge"><title>l2&#45;&gt;x2</title>
<path fill="none" stroke="black" d="M61.9263,-258.62C74.4084,-245.822 91.0366,-228.773 103.791,-215.696"/>
<polygon fill="black" stroke="black" points="106.315,-218.12 110.792,-208.517 101.304,-213.233 106.315,-218.12"/>
</g>
<!-- l2&#45;&gt;x3 -->
<g id="edge3" class="edge"><title>l2&#45;&gt;x3</title>
<path fill="none" stroke="black" d="M54.6543,-258.793C68.6692,-234.844 93.3367,-192.69 108.89,-166.112"/>
<polygon fill="black" stroke="black" points="111.949,-167.815 113.979,-157.416 105.907,-164.279 111.949,-167.815"/>
</g>
<!-- l2&#45;&gt;x4 -->
<g id="edge4" class="edge"><title>l2&#45;&gt;x4</title>
<path fill="none" stroke="black" d="M70.3059,-268.009C78.9518,-265.054 88.5507,-261.774 97.1616,-258.831"/>
<polygon fill="black" stroke="black" points="98.3693,-262.117 106.7,-255.571 96.1055,-255.493 98.3693,-262.117"/>
</g>
</g>
</svg>
