<?xml version="1.0" encoding="utf-8" standalone="no"?>
<!DOCTYPE svg PUBLIC "-//W3C//DTD SVG 1.1//EN"
  "http://www.w3.org/Graphics/SVG/1.1/DTD/svg11.dtd">
<!-- Created with matplotlib (http://matplotlib.org/) -->
<svg height="170pt" version="1.1" viewBox="0 0 396 170" width="396pt" xmlns="http://www.w3.org/2000/svg" xmlns:xlink="http://www.w3.org/1999/xlink">
 <defs>
  <style type="text/css">
*{stroke-linecap:butt;stroke-linejoin:round;stroke-miterlimit:100000;}
  </style>
 </defs>
 <g id="figure_1">
  <g id="patch_1">
   <path d="M 0 170.07874 
L 396.850394 170.07874 
L 396.850394 0 
L 0 0 
z
" style="fill:#ffffff;"/>
  </g>
  <g id="axes_1">
   <g id="patch_2">
    <path clip-path="url(#p2fcd602f8d)" d="M 90.708661 102.047244 
L 255.11811 102.047244 
L 255.11811 11.338583 
L 90.708661 11.338583 
L 90.708661 102.047244 
z
" style="fill:none;stroke:#000000;stroke-linejoin:miter;"/>
   </g>
   <g id="patch_3">
    <path clip-path="url(#p2fcd602f8d)" d="M 141.732283 90.708661 
L 243.779528 90.708661 
L 243.779528 28.346457 
L 141.732283 28.346457 
L 141.732283 90.708661 
z
" style="fill:none;stroke:#000000;stroke-linejoin:miter;"/>
   </g>
   <g id="patch_4">
    <path clip-path="url(#p2fcd602f8d)" d="M 266.456693 90.708661 
L 300.472441 90.708661 
L 300.472441 28.346457 
L 266.456693 28.346457 
L 266.456693 90.708661 
z
" style="fill:none;stroke:#000000;stroke-linejoin:miter;"/>
   </g>
   <g id="patch_5">
    <path clip-path="url(#p2fcd602f8d)" d="M 99.212598 56.692913 
L 92.125984 58.110236 
L 92.125984 56.692913 
L 70.866142 56.692913 
L 70.866142 56.692913 
L 92.125984 56.692913 
L 92.125984 55.275591 
z
" style="stroke:#000000;stroke-linejoin:miter;"/>
   </g>
   <g id="patch_6">
    <path clip-path="url(#p2fcd602f8d)" d="M 155.905512 56.692913 
L 148.818898 58.110236 
L 148.818898 56.692913 
L 127.559055 56.692913 
L 127.559055 56.692913 
L 148.818898 56.692913 
L 148.818898 55.275591 
z
" style="stroke:#000000;stroke-linejoin:miter;"/>
   </g>
   <g id="patch_7">
    <path clip-path="url(#p2fcd602f8d)" d="M 212.598425 56.692913 
L 205.511811 58.110236 
L 205.511811 56.692913 
L 184.251969 56.692913 
L 184.251969 56.692913 
L 205.511811 56.692913 
L 205.511811 55.275591 
z
" style="stroke:#000000;stroke-linejoin:miter;"/>
   </g>
   <g id="patch_8">
    <path clip-path="url(#p2fcd602f8d)" d="M 297.637795 56.692913 
L 304.724409 55.275591 
L 304.724409 56.692913 
L 325.984252 56.692913 
L 325.984252 56.692913 
L 304.724409 56.692913 
L 304.724409 58.110236 
z
" style="stroke:#000000;stroke-linejoin:miter;"/>
   </g>
   <g id="patch_9">
    <path clip-path="url(#p2fcd602f8d)" d="M 240.944882 56.692913 
L 248.031496 55.275591 
L 248.031496 56.692913 
L 269.291339 56.692913 
L 269.291339 56.692913 
L 248.031496 56.692913 
L 248.031496 58.110236 
z
" style="stroke:#000000;stroke-linejoin:miter;"/>
   </g>
   <g id="patch_10">
    <path clip-path="url(#p2fcd602f8d)" d="M 283.464567 70.866142 
C 287.223351 70.866142 290.828691 69.372761 293.486553 66.714899 
C 296.144415 64.057038 297.637795 60.451697 297.637795 56.692913 
C 297.637795 52.934129 296.144415 49.328789 293.486553 46.670928 
C 290.828691 44.013066 287.223351 42.519685 283.464567 42.519685 
C 279.705783 42.519685 276.100443 44.013066 273.442581 46.670928 
C 270.784719 49.328789 269.291339 52.934129 269.291339 56.692913 
C 269.291339 60.451697 270.784719 64.057038 273.442581 66.714899 
C 276.100443 69.372761 279.705783 70.866142 283.464567 70.866142 
L 283.464567 70.866142 
z
" style="fill:none;stroke:#000000;stroke-linejoin:miter;"/>
   </g>
   <g id="patch_11">
    <path clip-path="url(#p2fcd602f8d)" d="M 340.15748 70.866142 
C 343.916264 70.866142 347.521604 69.372761 350.179466 66.714899 
C 352.837328 64.057038 354.330709 60.451697 354.330709 56.692913 
C 354.330709 52.934129 352.837328 49.328789 350.179466 46.670928 
C 347.521604 44.013066 343.916264 42.519685 340.15748 42.519685 
C 336.398696 42.519685 332.793356 44.013066 330.135494 46.670928 
C 327.477633 49.328789 325.984252 52.934129 325.984252 56.692913 
C 325.984252 60.451697 327.477633 64.057038 330.135494 66.714899 
C 332.793356 69.372761 336.398696 70.866142 340.15748 70.866142 
L 340.15748 70.866142 
z
" style="fill:none;stroke:#000000;stroke-linejoin:miter;"/>
   </g>
   <g id="patch_12">
    <path clip-path="url(#p2fcd602f8d)" d="M 226.771654 70.866142 
C 230.530438 70.866142 234.135778 69.372761 236.793639 66.714899 
C 239.451501 64.057038 240.944882 60.451697 240.944882 56.692913 
C 240.944882 52.934129 239.451501 49.328789 236.793639 46.670928 
C 234.135778 44.013066 230.530438 42.519685 226.771654 42.519685 
C 223.012869 42.519685 219.407529 44.013066 216.749668 46.670928 
C 214.091806 49.328789 212.598425 52.934129 212.598425 56.692913 
C 212.598425 60.451697 214.091806 64.057038 216.749668 66.714899 
C 219.407529 69.372761 223.012869 70.866142 226.771654 70.866142 
z
" style="fill:#b2b2b2;stroke:#000000;stroke-linejoin:miter;"/>
   </g>
   <g id="patch_13">
    <path clip-path="url(#p2fcd602f8d)" d="M 226.771654 70.866142 
C 230.530438 70.866142 234.135778 69.372761 236.793639 66.714899 
C 239.451501 64.057038 240.944882 60.451697 240.944882 56.692913 
C 240.944882 52.934129 239.451501 49.328789 236.793639 46.670928 
C 234.135778 44.013066 230.530438 42.519685 226.771654 42.519685 
C 223.012869 42.519685 219.407529 44.013066 216.749668 46.670928 
C 214.091806 49.328789 212.598425 52.934129 212.598425 56.692913 
C 212.598425 60.451697 214.091806 64.057038 216.749668 66.714899 
C 219.407529 69.372761 223.012869 70.866142 226.771654 70.866142 
L 226.771654 70.866142 
z
" style="fill:none;stroke:#000000;stroke-linejoin:miter;"/>
   </g>
   <g id="patch_14">
    <path clip-path="url(#p2fcd602f8d)" d="M 113.385827 70.866142 
C 117.144611 70.866142 120.749951 69.372761 123.407813 66.714899 
C 126.065674 64.057038 127.559055 60.451697 127.559055 56.692913 
C 127.559055 52.934129 126.065674 49.328789 123.407813 46.670928 
C 120.749951 44.013066 117.144611 42.519685 113.385827 42.519685 
C 109.627043 42.519685 106.021703 44.013066 103.363841 46.670928 
C 100.705979 49.328789 99.212598 52.934129 99.212598 56.692913 
C 99.212598 60.451697 100.705979 64.057038 103.363841 66.714899 
C 106.021703 69.372761 109.627043 70.866142 113.385827 70.866142 
L 113.385827 70.866142 
z
" style="fill:none;stroke:#000000;stroke-linejoin:miter;"/>
   </g>
   <g id="patch_15">
    <path clip-path="url(#p2fcd602f8d)" d="M 56.692913 70.866142 
C 60.451697 70.866142 64.057038 69.372761 66.714899 66.714899 
C 69.372761 64.057038 70.866142 60.451697 70.866142 56.692913 
C 70.866142 52.934129 69.372761 49.328789 66.714899 46.670928 
C 64.057038 44.013066 60.451697 42.519685 56.692913 42.519685 
C 52.934129 42.519685 49.328789 44.013066 46.670928 46.670928 
C 44.013066 49.328789 42.519685 52.934129 42.519685 56.692913 
C 42.519685 60.451697 44.013066 64.057038 46.670928 66.714899 
C 49.328789 69.372761 52.934129 70.866142 56.692913 70.866142 
L 56.692913 70.866142 
z
" style="fill:none;stroke:#000000;stroke-linejoin:miter;"/>
   </g>
   <g id="patch_16">
    <path clip-path="url(#p2fcd602f8d)" d="M 170.07874 70.866142 
C 173.837524 70.866142 177.442864 69.372761 180.100726 66.714899 
C 182.758588 64.057038 184.251969 60.451697 184.251969 56.692913 
C 184.251969 52.934129 182.758588 49.328789 180.100726 46.670928 
C 177.442864 44.013066 173.837524 42.519685 170.07874 42.519685 
C 166.319956 42.519685 162.714616 44.013066 160.056754 46.670928 
C 157.398893 49.328789 155.905512 52.934129 155.905512 56.692913 
C 155.905512 60.451697 157.398893 64.057038 160.056754 66.714899 
C 162.714616 69.372761 166.319956 70.866142 170.07874 70.866142 
L 170.07874 70.866142 
z
" style="fill:none;stroke:#000000;stroke-linejoin:miter;"/>
   </g>
   <g id="matplotlib.axis_1"/>
   <g id="matplotlib.axis_2"/>
   <g id="text_1">
    <!-- $D$ -->
    <defs>
     <path d="M 15.703125 7.375 
C 14.796875 3.890625 14.59375 2.890625 7.59375 2.890625 
C 5.703125 2.890625 4.703125 2.890625 4.703125 1.09375 
C 4.703125 0 5.296875 0 7.296875 0 
L 39 0 
C 59.203125 0 78.90625 20.8125 78.90625 43.015625 
C 78.90625 57.359375 70.296875 68 56 68 
L 23.90625 68 
C 22 68 21.09375 68 21.09375 66.109375 
C 21.09375 65.109375 22 65.109375 23.5 65.109375 
C 29.59375 65.109375 29.59375 64.3125 29.59375 63.21875 
C 29.59375 63.03125 29.59375 62.421875 29.203125 60.921875 
z
M 36.796875 61.421875 
C 37.703125 65.109375 38.09375 65.109375 42 65.109375 
L 53 65.109375 
C 62.40625 65.109375 71 60.03125 71 46.296875 
C 71 41.3125 69 24 59.296875 13.046875 
C 56.5 9.765625 48.90625 2.890625 37.40625 2.890625 
L 26 2.890625 
C 24.59375 2.890625 24.40625 2.890625 23.796875 3 
C 22.703125 3.09375 22.59375 3.296875 22.59375 4.09375 
C 22.59375 4.796875 22.796875 5.390625 23 6.28125 
z
" id="CMMI12-68"/>
    </defs>
    <g transform="translate(95.7086614173 97.0472440945)scale(0.15 -0.15)">
     <use transform="scale(0.996264009963)" xlink:href="#CMMI12-68"/>
    </g>
   </g>
   <g id="text_2">
    <!-- $N$ -->
    <defs>
     <path d="M 74 57.78125 
C 75.09375 62.09375 76.703125 65.09375 84.296875 65.09375 
C 84.59375 65.09375 85.796875 65.09375 85.796875 66.859375 
C 85.796875 68 84.90625 68 84.5 68 
C 82.5 68 77.40625 68 75.40625 68 
L 70.59375 68 
C 69.203125 68 67.40625 68 66 68 
C 65.40625 68 64.203125 68 64.203125 66.09375 
C 64.203125 65.09375 65 65.09375 65.703125 65.09375 
C 71.703125 65.09375 72.09375 62.796875 72.09375 60.984375 
C 72.09375 60.09375 72 59.78125 71.703125 58.390625 
L 60.40625 13.28125 
L 39 66.390625 
C 38.296875 68 38.203125 68 36 68 
L 23.796875 68 
C 21.796875 68 20.90625 68 20.90625 66.09375 
C 20.90625 65.09375 21.59375 65.09375 23.5 65.09375 
C 24 65.09375 29.90625 65.09375 29.90625 64.296875 
C 29.90625 64.09375 29.703125 63.296875 29.59375 63 
L 16.296875 9.921875 
C 15.09375 5 12.703125 2.90625 6.09375 2.90625 
C 5.59375 2.90625 4.59375 2.90625 4.59375 1.046875 
C 4.59375 0 5.59375 0 5.90625 0 
C 7.90625 0 13 0 15 0 
L 19.796875 0 
C 21.203125 0 22.90625 0 24.296875 0 
C 25 0 26.09375 0 26.09375 1.90625 
C 26.09375 2.8125 25.09375 2.90625 24.703125 2.90625 
C 21.40625 2.90625 18.203125 3.5 18.203125 7.09375 
C 18.203125 7.890625 18.40625 8.78125 18.59375 9.578125 
L 32.09375 63 
C 32.703125 62 32.703125 61.8125 33.09375 60.90625 
L 56.90625 1.796875 
C 57.40625 0.59375 57.59375 0 58.5 0 
C 59.5 0 59.59375 0.296875 60 2 
z
" id="CMMI12-78"/>
    </defs>
    <g transform="translate(146.732283465 85.7086614173)scale(0.15 -0.15)">
     <use transform="scale(0.996264009963)" xlink:href="#CMMI12-78"/>
    </g>
   </g>
   <g id="text_3">
    <!-- $K$ -->
    <defs>
     <path d="M 50 40.171875 
C 49.90625 40.46875 49.5 41.265625 49.5 41.578125 
C 49.5 41.671875 49.59375 41.765625 51.296875 43.0625 
L 61 50.65625 
C 74.40625 61.015625 78.796875 64.5 85.703125 65.109375 
C 86.40625 65.109375 87.40625 65.109375 87.40625 66.90625 
C 87.40625 67.5 87.09375 68 86.296875 68 
C 85.203125 68 84 68 82.90625 68 
L 79.09375 68 
C 76 68 72.703125 68 69.703125 68 
C 69 68 67.796875 68 67.796875 66.203125 
C 67.796875 65.203125 68.5 65.109375 69.09375 65.109375 
C 70.203125 65 71.5 64.625 71.5 63.21875 
C 71.5 61.234375 68.5 58.828125 67.703125 58.234375 
L 28.5 27.875 
L 36.796875 60.734375 
C 37.703125 64.109375 37.90625 65.109375 45 65.109375 
C 46.90625 65.109375 47.796875 65.109375 47.796875 67 
C 47.796875 68 46.796875 68 46.296875 68 
C 44.5 68 42.40625 68 40.5 68 
L 28.703125 68 
C 26.90625 68 24.703125 68 22.90625 68 
C 22.09375 68 21 68 21 66.109375 
C 21 65.109375 21.90625 65.109375 23.40625 65.109375 
C 29.5 65.109375 29.5 64.3125 29.5 63.21875 
C 29.5 63.03125 29.5 62.421875 29.09375 60.921875 
L 15.59375 7.375 
C 14.703125 3.890625 14.5 2.890625 7.5 2.890625 
C 5.59375 2.890625 4.59375 2.890625 4.59375 1.09375 
C 4.59375 0 5.5 0 6.09375 0 
C 8 0 10 0 11.90625 0 
L 23.59375 0 
C 25.5 0 27.59375 0 29.5 0 
C 30.296875 0 31.40625 0 31.40625 1.890625 
C 31.40625 2.890625 30.5 2.890625 29 2.890625 
C 22.90625 2.890625 22.90625 3.6875 22.90625 4.6875 
C 22.90625 5.390625 23.5 7.875 23.90625 9.46875 
L 27.796875 24.890625 
L 43 36.734375 
C 45.90625 30.359375 51.203125 17.625 55.296875 7.890625 
C 55.59375 7.28125 55.796875 6.6875 55.796875 5.984375 
C 55.796875 2.890625 51.796875 2.890625 50.90625 2.890625 
C 50 2.890625 49 2.890625 49 1 
C 49 0 50.09375 0 50.40625 0 
C 53.90625 0 57.59375 0 61.09375 0 
L 65.90625 0 
C 67.40625 0 69.09375 0 70.59375 0 
C 71.203125 0 72.296875 0 72.296875 1.890625 
C 72.296875 2.890625 71.40625 2.890625 70.40625 2.890625 
C 66.703125 2.890625 65.40625 3.6875 63.90625 7.28125 
z
" id="CMMI12-75"/>
    </defs>
    <g transform="translate(271.456692913 85.7086614173)scale(0.15 -0.15)">
     <use transform="scale(0.996264009963)" xlink:href="#CMMI12-75"/>
    </g>
   </g>
   <g id="text_4">
    <!-- $\phi$ -->
    <defs>
     <path d="M 43 68.59375 
C 43 69.5 42.296875 69.5 42 69.5 
C 41.09375 69.5 41 69.296875 40.59375 67.59375 
L 35.203125 45.921875 
C 34.90625 44.625 34.796875 44.515625 34.703125 44.421875 
C 34.59375 44.21875 33.90625 44.125 33.703125 44.125 
C 17.296875 42.71875 4.703125 29.125 4.703125 16.515625 
C 4.703125 5.640625 13 -1 23.40625 -1 
C 22.59375 -4.078125 21.90625 -7.234375 21.09375 -10.296875 
C 19.703125 -15.546875 18.90625 -18.8125 18.90625 -19.203125 
C 18.90625 -19.390625 18.90625 -20 19.90625 -20 
C 20.203125 -20 20.59375 -20 20.796875 -19.59375 
C 21 -19.390625 21.59375 -17.015625 22 -15.75 
L 25.703125 -1 
C 42.796875 -1 55.796875 13.34375 55.796875 26.25 
C 55.796875 36.609375 48.203125 44 37.09375 44 
z
M 36.5 42.203125 
C 43.09375 42.203125 49.703125 38.46875 49.703125 28.5625 
C 49.703125 17.140625 41.796875 2 26.203125 0.78125 
z
M 23.90625 0.78125 
C 19 0.78125 10.796875 3.4375 10.796875 14.65625 
C 10.796875 27.515625 19.90625 41.8125 34.296875 41.8125 
z
" id="CMMI12-30"/>
    </defs>
    <g transform="translate(279.134506438 60.7509683847)scale(0.15 -0.15)">
     <use transform="scale(0.996264009963)" xlink:href="#CMMI12-30"/>
    </g>
   </g>
   <g id="text_5">
    <!-- $\beta$ -->
    <defs>
     <path d="M 56.59375 57.828125 
C 56.59375 63.765625 51.5 70 42.40625 70 
C 29.5 70 21.296875 54.328125 18.703125 44 
L 2.90625 -18.3125 
C 2.703125 -19.109375 3.296875 -19.3125 3.796875 -19.3125 
C 4.5 -19.3125 5 -19.21875 5.09375 -18.71875 
L 12.09375 9.15625 
C 13.09375 3.578125 18.59375 -1 24.5 -1 
C 38.796875 -1 52.296875 10.15625 52.296875 24.984375 
C 52.296875 28.765625 51.40625 32.546875 49.296875 35.734375 
C 48.09375 37.625 46.59375 39.015625 45 40.21875 
C 52.203125 43.984375 56.59375 50 56.59375 57.828125 
M 39.203125 40.3125 
C 37.59375 39.71875 36 39.515625 34.09375 39.515625 
C 32.703125 39.515625 31.40625 39.421875 29.59375 40.015625 
C 30.59375 40.71875 32.09375 40.90625 34.203125 40.90625 
C 36 40.90625 37.796875 40.71875 39.203125 40.3125 
M 51.40625 58.71875 
C 51.40625 53.28125 48.703125 45.359375 42.203125 41.703125 
C 40.296875 42.46875 37.703125 43 35.5 43 
C 33.40625 43 27.40625 43 27.40625 39.921875 
C 27.40625 37.328125 32.90625 37.328125 34.59375 37.328125 
C 37.203125 37.328125 39.5 38 41.90625 38.8125 
C 45.09375 36.21875 46.5 32.828125 46.5 27.859375 
C 46.5 22.078125 44.90625 17.421875 43 13.140625 
C 39.703125 5.765625 31.90625 1 25 1 
C 17.703125 1 13.90625 6.75 13.90625 13.5 
C 13.90625 14.40625 13.90625 15.703125 14.296875 17.171875 
L 20.796875 43.296875 
C 24.09375 56.296875 32.5 68.015625 42.203125 68.015625 
C 49.40625 68.015625 51.40625 63.0625 51.40625 58.71875 
" id="CMMI12-12"/>
    </defs>
    <g transform="translate(336.027178845 60.7509683847)scale(0.15 -0.15)">
     <use transform="scale(0.996264009963)" xlink:href="#CMMI12-12"/>
    </g>
   </g>
   <g id="text_6">
    <!-- $w_{d,i}$ -->
    <defs>
     <path d="M 50.296875 66.515625 
C 50.40625 66.90625 50.59375 67.5 50.59375 68 
C 50.59375 69 49.59375 69 49.40625 69 
C 49.296875 69 44.40625 68.5625 43.90625 68.4375 
C 42.203125 68.328125 40.703125 68.09375 38.90625 68.09375 
C 36.40625 67.890625 35.703125 67.796875 35.703125 66 
C 35.703125 65 36.5 65 37.90625 65 
C 42.796875 65 42.90625 64.109375 42.90625 63.125 
C 42.90625 62.53125 42.703125 61.75 42.59375 61.453125 
L 36.5 37.421875 
C 35.40625 40.015625 32.703125 44 27.5 44 
C 16.203125 44 4 29.4375 4 14.671875 
C 4 4.796875 9.796875 -1 16.59375 -1 
C 22.09375 -1 26.796875 3.296875 29.59375 6.59375 
C 30.59375 0.703125 35.296875 -1 38.296875 -1 
C 41.296875 -1 43.703125 0.796875 45.5 4.390625 
C 47.09375 7.78125 48.5 13.875 48.5 14.265625 
C 48.5 14.765625 48.09375 15.171875 47.5 15.171875 
C 46.59375 15.171875 46.5 14.671875 46.09375 13.171875 
C 44.59375 7.28125 42.703125 1 38.59375 1 
C 35.703125 1 35.5 3.578125 35.5 5.578125 
C 35.5 5.96875 35.5 8.046875 36.203125 10.84375 
z
M 30.09375 11.875 
C 29.59375 10.171875 29.59375 9.984375 28.203125 8.078125 
C 26 5.28125 21.59375 1 16.90625 1 
C 12.796875 1 10.5 4.6875 10.5 10.578125 
C 10.5 16.0625 13.59375 27.234375 15.5 31.4375 
C 18.90625 38.421875 23.59375 42.015625 27.5 42.015625 
C 34.09375 42.015625 35.40625 33.828125 35.40625 33.03125 
C 35.40625 32.9375 35.09375 31.625 35 31.4375 
z
" id="CMMI12-100"/>
     <path d="M 34.40625 6.09375 
C 36.59375 0.09375 42.796875 -1 46.59375 -1 
C 54.203125 -1 58.703125 5.59375 61.5 12.46875 
C 63.796875 18.265625 67.5 31.4375 67.5 37.328125 
C 67.5 43.40625 64.40625 44 63.5 44 
C 61.09375 44 58.90625 41.609375 58.90625 39.609375 
C 58.90625 38.421875 59.59375 37.71875 60.09375 37.328125 
C 61 36.421875 63.59375 33.734375 63.59375 28.546875 
C 63.59375 25.140625 60.796875 15.765625 58.703125 11.078125 
C 55.90625 4.984375 52.203125 1 47 1 
C 41.40625 1 39.59375 5.1875 39.59375 9.78125 
C 39.59375 12.671875 40.5 16.171875 40.90625 17.859375 
L 45.09375 34.625 
C 45.59375 36.625 46.5 40.109375 46.5 40.515625 
C 46.5 42.015625 45.296875 43.015625 43.796875 43.015625 
C 40.90625 43.015625 40.203125 40.515625 39.59375 38.125 
C 38.59375 34.234375 34.40625 17.359375 34 15.171875 
C 33.59375 13.46875 33.59375 12.375 33.59375 10.171875 
C 33.59375 7.78125 30.40625 3.984375 30.296875 3.796875 
C 29.203125 2.6875 27.59375 1 24.5 1 
C 16.59375 1 16.59375 8.484375 16.59375 10.171875 
C 16.59375 13.375 17.296875 17.765625 21.796875 29.640625 
C 23 32.734375 23.5 34.03125 23.5 36.015625 
C 23.5 40.21875 20.5 44 15.59375 44 
C 6.40625 44 2.703125 29.53125 2.703125 28.734375 
C 2.703125 28.34375 3.09375 27.84375 3.796875 27.84375 
C 4.703125 27.84375 4.796875 28.234375 5.203125 29.625 
C 7.703125 38.34375 11.59375 41.90625 15.296875 41.90625 
C 16.296875 41.90625 17.90625 41.90625 17.90625 38.71875 
C 17.90625 38.21875 17.90625 36.125 16.203125 31.734375 
C 11.5 19.265625 10.5 15.171875 10.5 11.375 
C 10.5 0.890625 19.09375 -1 24.203125 -1 
C 25.90625 -1 30.40625 -1 34.40625 6.09375 
" id="CMMI12-119"/>
     <path d="M 28.296875 14.265625 
C 28.296875 14.765625 27.90625 15.171875 27.296875 15.171875 
C 26.40625 15.171875 26.296875 14.875 25.796875 13.171875 
C 23.203125 4.09375 19.09375 1 15.796875 1 
C 14.59375 1 13.203125 1.296875 13.203125 4.296875 
C 13.203125 6.984375 14.40625 9.984375 15.5 12.96875 
L 22.5 31.53125 
C 22.796875 32.328125 23.5 34.125 23.5 36.015625 
C 23.5 40.21875 20.5 44 15.59375 44 
C 6.40625 44 2.703125 29.53125 2.703125 28.734375 
C 2.703125 28.34375 3.09375 27.84375 3.796875 27.84375 
C 4.703125 27.84375 4.796875 28.234375 5.203125 29.625 
C 7.59375 37.9375 11.40625 41.90625 15.296875 41.90625 
C 16.203125 41.90625 17.90625 41.90625 17.90625 38.71875 
C 17.90625 36.125 16.59375 32.828125 15.796875 30.640625 
L 8.796875 12.078125 
C 8.203125 10.484375 7.59375 8.875 7.59375 7.078125 
C 7.59375 2.59375 10.703125 -1 15.5 -1 
C 24.703125 -1 28.296875 13.578125 28.296875 14.265625 
M 27.5 62.703125 
C 27.5 64.203125 26.296875 66 24.09375 66 
C 21.796875 66 19.203125 63.796875 19.203125 61.203125 
C 19.203125 58.71875 21.296875 57.921875 22.5 57.921875 
C 25.203125 57.921875 27.5 60.515625 27.5 62.703125 
" id="CMMI12-105"/>
     <path d="M 19.5 -0.484375 
C 19.5 5.359375 17.59375 9.671875 13.5 9.671875 
C 10.296875 9.671875 8.703125 7.078125 8.703125 4.890625 
C 8.703125 2.6875 10.203125 0 13.59375 0 
C 14.90625 0 16 0.40625 16.90625 1.296875 
C 17.09375 1.5 17.203125 1.5 17.296875 1.5 
C 17.5 1.5 17.5 0.078125 17.5 -0.421875 
C 17.5 -3.75 16.90625 -10.296875 11.09375 -16.875 
C 10 -18.078125 10 -18.28125 10 -18.484375 
C 10 -19 10.5 -19.5 11 -19.5 
C 11.796875 -19.5 19.5 -12.046875 19.5 -0.484375 
" id="CMMI12-59"/>
    </defs>
    <g transform="translate(215.564618341 60.8174153754)scale(0.15 -0.15)">
     <use transform="translate(0.0 14.9439145441)scale(0.996264009963)" xlink:href="#CMMI12-119"/>
     <use transform="translate(69.7319895363 0.0)scale(0.697381766617)" xlink:href="#CMMI12-100"/>
     <use transform="translate(105.214196154 0.0)scale(0.697381766617)" xlink:href="#CMMI12-59"/>
     <use transform="translate(124.182128906 0.0)scale(0.697381766617)" xlink:href="#CMMI12-105"/>
    </g>
   </g>
   <g id="text_7">
    <!-- $\theta$ -->
    <defs>
     <path d="M 44.296875 50 
C 44.296875 60.15625 41.09375 70 32.90625 70 
C 18.90625 70 4 40.859375 4 19 
C 4 14.421875 5 -1 15.5 -1 
C 29.09375 -1 44.296875 27.4375 44.296875 50 
M 14 36 
C 15.5 41.859375 17.59375 50.21875 21.59375 57.265625 
C 24.90625 63.234375 28.40625 68 32.796875 68 
C 36.09375 68 38.296875 65.21875 38.296875 55.6875 
C 38.296875 52.09375 38 47.140625 35.09375 36 
z
M 34.40625 33.015625 
C 31.90625 23.28125 29.796875 17 26.203125 10.734375 
C 23.296875 5.671875 19.796875 1 15.59375 1 
C 12.5 1 10 3.390625 10 13.21875 
C 10 19.6875 11.59375 26.453125 13.203125 33.015625 
z
" id="CMMI12-18"/>
    </defs>
    <g transform="translate(109.976348217 60.8174153754)scale(0.15 -0.15)">
     <use transform="scale(0.996264009963)" xlink:href="#CMMI12-18"/>
    </g>
   </g>
   <g id="text_8">
    <!-- $\alpha$ -->
    <defs>
     <path d="M 46.296875 25.25 
C 46.296875 34.921875 40.796875 43.984375 30.203125 43.984375 
C 17.09375 43.984375 4 29.71875 4 15.5625 
C 4 6.890625 9.40625 -1 19.59375 -1 
C 25.796875 -1 33.203125 1.390625 40.296875 7.375 
C 41.703125 1.796875 44.796875 -1 49.09375 -1 
C 54.5 -1 57.203125 4.59375 57.203125 5.890625 
C 57.203125 6.78125 56.5 6.78125 56.203125 6.78125 
C 55.40625 6.78125 55.296875 6.484375 55 5.6875 
C 54.09375 3.1875 51.796875 1 49.40625 1 
C 46.296875 1 46.296875 7.375 46.296875 13.46875 
C 56.5 25.640625 58.90625 38.21875 58.90625 38.3125 
C 58.90625 39.21875 58.09375 39.21875 57.796875 39.21875 
C 56.90625 39.21875 56.796875 38.921875 56.40625 37.125 
C 55.09375 32.734375 52.5 24.953125 46.296875 16.765625 
z
M 40 9.78125 
C 31.203125 1.890625 23.296875 1 19.796875 1 
C 12.703125 1 10.703125 7.28125 10.703125 11.96875 
C 10.703125 16.25 12.90625 26.4375 16 31.9375 
C 20.09375 38.921875 25.703125 42 30.203125 42 
C 39.90625 42 39.90625 29.328125 39.90625 20.953125 
C 39.90625 18.46875 39.796875 15.875 39.796875 13.375 
C 39.796875 11.375 39.90625 10.875 40 9.78125 
" id="CMMI12-11"/>
    </defs>
    <g transform="translate(52.0394121721 60.8174153754)scale(0.15 -0.15)">
     <use transform="scale(0.996264009963)" xlink:href="#CMMI12-11"/>
    </g>
   </g>
   <g id="text_9">
    <!-- $z_{d,i}$ -->
    <defs>
     <path d="M 12.703125 7.59375 
C 17 12.546875 20.5 15.6875 25.5 20.25 
C 31.5 25.5 34.09375 28.015625 35.5 29.546875 
C 42.5 36.53125 46 42.390625 46 43.1875 
C 46 44 45.203125 44 45 44 
C 44.296875 44 44.09375 43.640625 43.59375 42.96875 
C 41.09375 38.96875 38.703125 36.984375 36.09375 36.984375 
C 34 36.984375 32.90625 37.828125 31 40.078125 
C 28.90625 42.421875 27.203125 44 24.296875 44 
C 17 44 12.59375 35.265625 12.59375 33.25 
C 12.59375 32.9375 12.703125 32.3125 13.59375 32.3125 
C 14.40625 32.3125 14.5 32.671875 14.796875 33.328125 
C 16.5 37.0625 21.296875 37.71875 23.203125 37.71875 
C 25.296875 37.71875 27.296875 37.125 29.40625 36.359375 
C 33.203125 35 34.796875 35 35.796875 35 
C 36.5 35 36.90625 35 37.40625 35.09375 
C 34.09375 31.15625 28.703125 26.296875 24.203125 22.15625 
L 14.09375 12.75 
C 8 6.484375 4.296875 0.515625 4.296875 -0.1875 
C 4.296875 -0.796875 4.796875 -1 5.40625 -1 
C 6 -1 6.09375 -0.890625 6.796875 0.21875 
C 8.40625 2.546875 11.59375 6 15.296875 6 
C 17.40625 6 18.40625 5.34375 20.40625 3.015625 
C 22.296875 0.953125 24 -1 27.203125 -1 
C 37 -1 42.59375 11.4375 42.59375 13.6875 
C 42.59375 14.109375 42.5 14.71875 41.5 14.71875 
C 40.703125 14.71875 40.59375 14.328125 40.296875 13.359375 
C 38.09375 7.625 32.203125 5.28125 28.296875 5.28125 
C 26.203125 5.28125 24.203125 5.875 22.09375 6.640625 
C 18.09375 8 17 8 15.703125 8 
C 14.703125 8 13.59375 8 12.703125 7.59375 
" id="CMMI12-122"/>
    </defs>
    <g transform="translate(160.702926862 60.8174153754)scale(0.15 -0.15)">
     <use transform="translate(0.0 14.9439145441)scale(0.996264009963)" xlink:href="#CMMI12-122"/>
     <use transform="translate(45.3157531814 0.0)scale(0.697381766617)" xlink:href="#CMMI12-100"/>
     <use transform="translate(80.7979597992 0.0)scale(0.697381766617)" xlink:href="#CMMI12-59"/>
     <use transform="translate(99.7658925514 0.0)scale(0.697381766617)" xlink:href="#CMMI12-105"/>
    </g>
   </g>
  </g>
 </g>
 <defs>
  <clipPath id="p2fcd602f8d">
   <rect height="170.078740157" width="396.850393701" x="0.0" y="0.0"/>
  </clipPath>
 </defs>
</svg>
