<?xml version="1.0" encoding="UTF-8" standalone="no"?>
<!DOCTYPE svg PUBLIC "-//W3C//DTD SVG 1.1//EN"
 "http://www.w3.org/Graphics/SVG/1.1/DTD/svg11.dtd">
<!-- Generated by graphviz version 2.38.0 (20140413.2041)
 -->
<!-- Title: G Pages: 1 -->
<svg width="152pt" height="338pt"
 viewBox="0.00 0.00 152.00 338.00" xmlns="http://www.w3.org/2000/svg" xmlns:xlink="http://www.w3.org/1999/xlink">
<g id="graph0" class="graph" transform="scale(1 1) rotate(0) translate(4 334)">
<title>G</title>
<polygon fill="white" stroke="none" points="-4,4 -4,-334 148,-334 148,4 -4,4"/>
<g id="clust1" class="cluster"><title>clusterA</title>
<polygon fill="none" stroke="black" points="8,-8 8,-194 76,-194 76,-8 8,-8"/>
<text text-anchor="middle" x="42" y="-14.8" font-family="Times,serif" font-size="14.00">D</text>
</g>
<g id="clust2" class="cluster"><title>clusterB</title>
<polygon fill="none" stroke="black" points="16,-38 16,-112 68,-112 68,-38 16,-38"/>
<text text-anchor="middle" x="42" y="-44.8" font-family="Times,serif" font-size="14.00">N</text>
</g>
<g id="clust3" class="cluster"><title>clusterC</title>
<polygon fill="none" stroke="black" points="84,-120 84,-194 136,-194 136,-120 84,-120"/>
<text text-anchor="middle" x="110" y="-126.8" font-family="Times,serif" font-size="14.00">K</text>
</g>
<!-- w -->
<g id="node1" class="node"><title>w</title>
<ellipse fill="gray" stroke="black" cx="42" cy="-86" rx="18" ry="18"/>
<text text-anchor="middle" x="42" y="-81.8" font-family="Times,serif" font-size="14.00">w</text>
</g>
<!-- z -->
<g id="node2" class="node"><title>z</title>
<ellipse fill="none" stroke="black" cx="42" cy="-168" rx="18" ry="18"/>
<text text-anchor="middle" x="42" y="-163.8" font-family="Times,serif" font-size="14.00">z</text>
</g>
<!-- z&#45;&gt;w -->
<g id="edge1" class="edge"><title>z&#45;&gt;w</title>
<path fill="none" stroke="black" d="M42,-149.641C42,-139.297 42,-125.941 42,-114.221"/>
<polygon fill="black" stroke="black" points="45.5001,-114.05 42,-104.05 38.5001,-114.05 45.5001,-114.05"/>
</g>
<!-- φ -->
<g id="node3" class="node"><title>φ</title>
<ellipse fill="none" stroke="black" cx="110" cy="-168" rx="18" ry="18"/>
<text text-anchor="middle" x="110" y="-163.8" font-family="Times,serif" font-size="14.00">φ</text>
</g>
<!-- φ&#45;&gt;w -->
<g id="edge4" class="edge"><title>φ&#45;&gt;w</title>
<path fill="none" stroke="black" d="M101.828,-151.843C96.2964,-142.238 88.474,-129.821 80,-120 75.2444,-114.489 69.5595,-109.069 64.0539,-104.266"/>
<polygon fill="black" stroke="black" points="66.1598,-101.464 56.2448,-97.7303 61.6671,-106.832 66.1598,-101.464"/>
</g>
<!-- α -->
<g id="node4" class="node"><title>α</title>
<ellipse fill="none" stroke="black" cx="42" cy="-312" rx="18" ry="18"/>
<text text-anchor="middle" x="42" y="-307.8" font-family="Times,serif" font-size="14.00">α</text>
</g>
<!-- θ -->
<g id="node5" class="node"><title>θ</title>
<ellipse fill="none" stroke="black" cx="42" cy="-240" rx="18" ry="18"/>
<text text-anchor="middle" x="42" y="-235.8" font-family="Times,serif" font-size="14.00">θ</text>
</g>
<!-- α&#45;&gt;θ -->
<g id="edge2" class="edge"><title>α&#45;&gt;θ</title>
<path fill="none" stroke="black" d="M42,-293.697C42,-285.983 42,-276.712 42,-268.112"/>
<polygon fill="black" stroke="black" points="45.5001,-268.104 42,-258.104 38.5001,-268.104 45.5001,-268.104"/>
</g>
<!-- θ&#45;&gt;z -->
<g id="edge5" class="edge"><title>θ&#45;&gt;z</title>
<path fill="none" stroke="black" d="M42,-221.697C42,-213.983 42,-204.712 42,-196.112"/>
<polygon fill="black" stroke="black" points="45.5001,-196.104 42,-186.104 38.5001,-196.104 45.5001,-196.104"/>
</g>
<!-- β -->
<g id="node6" class="node"><title>β</title>
<ellipse fill="none" stroke="black" cx="110" cy="-240" rx="18" ry="18"/>
<text text-anchor="middle" x="110" y="-235.8" font-family="Times,serif" font-size="14.00">β</text>
</g>
<!-- β&#45;&gt;φ -->
<g id="edge3" class="edge"><title>β&#45;&gt;φ</title>
<path fill="none" stroke="black" d="M110,-221.697C110,-213.983 110,-204.712 110,-196.112"/>
<polygon fill="black" stroke="black" points="113.5,-196.104 110,-186.104 106.5,-196.104 113.5,-196.104"/>
</g>
</g>
</svg>
