<?xml version="1.0" encoding="UTF-8"?>
<svg xmlns="http://www.w3.org/2000/svg"
     xmlns:xlink="http://www.w3.org/1999/xlink"
     xmlns:gadfly="http://www.gadflyjl.org/ns"
     version="1.2"
     width="200mm" height="160mm" viewBox="0 0 200 160"
     stroke="none"
     fill="#000000"
     stroke-width="0.3"
     font-size="3.88"
>
<g class="plotroot xscalable yscalable" id="fig-5e9648bf565346ab807930f02053adfe-element-1">
  <g font-size="3.88" font-family="'PT Sans','Helvetica Neue','Helvetica',sans-serif" fill="#564A55" stroke="#000000" stroke-opacity="0.000" id="fig-5e9648bf565346ab807930f02053adfe-element-2">
    <text x="81.62" y="148.39" text-anchor="middle" dy="0.6em">ite</text>
  </g>
  <g class="guide xlabels" font-size="2.82" font-family="'PT Sans Caption','Helvetica Neue','Helvetica',sans-serif" fill="#6C606B" id="fig-5e9648bf565346ab807930f02053adfe-element-3">
    <text x="26.38" y="141.72" text-anchor="middle" dy="0.6em">0</text>
    <text x="81.62" y="141.72" text-anchor="middle" dy="0.6em">500</text>
    <text x="136.87" y="141.72" text-anchor="middle" dy="0.6em">1000</text>
  </g>
  <g class="guide colorkey" id="fig-5e9648bf565346ab807930f02053adfe-element-4">
    <g fill="#4C404B" font-size="2.82" font-family="'PT Sans','Helvetica Neue','Helvetica',sans-serif" id="fig-5e9648bf565346ab807930f02053adfe-element-5">
      <text x="142.68" y="71.04" dy="0.35em" id="fig-5e9648bf565346ab807930f02053adfe-element-6" class="color_ite=1000:epsion=0.2:hidden_layer:100-75-1">ite=1000:epsion=0.2:hidden_layer:100-75-1</text>
      <text x="142.68" y="74.67" dy="0.35em" id="fig-5e9648bf565346ab807930f02053adfe-element-7" class="color_ite=1000:epsion=0.5:hidden_layer:100-75-1">ite=1000:epsion=0.5:hidden_layer:100-75-1</text>
      <text x="142.68" y="78.3" dy="0.35em" id="fig-5e9648bf565346ab807930f02053adfe-element-8" class="color_ite=1000:epsion=0.9:hidden_layer:100-75-1">ite=1000:epsion=0.9:hidden_layer:100-75-1</text>
    </g>
    <g stroke="#000000" stroke-opacity="0.000" id="fig-5e9648bf565346ab807930f02053adfe-element-9">
      <rect x="139.87" y="70.14" width="1.81" height="1.81" id="fig-5e9648bf565346ab807930f02053adfe-element-10" class="color_ite=1000:epsion=0.2:hidden_layer:100-75-1" fill="#00BFFF"/>
      <rect x="139.87" y="73.76" width="1.81" height="1.81" id="fig-5e9648bf565346ab807930f02053adfe-element-11" class="color_ite=1000:epsion=0.5:hidden_layer:100-75-1" fill="#D4CA3A"/>
      <rect x="139.87" y="77.39" width="1.81" height="1.81" id="fig-5e9648bf565346ab807930f02053adfe-element-12" class="color_ite=1000:epsion=0.9:hidden_layer:100-75-1" fill="#FF5EA0"/>
    </g>
    <g fill="#362A35" font-size="3.88" font-family="'PT Sans','Helvetica Neue','Helvetica',sans-serif" stroke="#000000" stroke-opacity="0.000" id="fig-5e9648bf565346ab807930f02053adfe-element-13">
      <text x="139.87" y="67.22" id="fig-5e9648bf565346ab807930f02053adfe-element-14">params</text>
    </g>
  </g>
  <g clip-path="url(#fig-5e9648bf565346ab807930f02053adfe-element-16)" id="fig-5e9648bf565346ab807930f02053adfe-element-15">
    <g pointer-events="visible" opacity="1" fill="#000000" fill-opacity="0.000" stroke="#000000" stroke-opacity="0.000" class="guide background" id="fig-5e9648bf565346ab807930f02053adfe-element-17">
      <rect x="24.38" y="5" width="114.49" height="135.72" id="fig-5e9648bf565346ab807930f02053adfe-element-18"/>
    </g>
    <g class="guide ygridlines xfixed" stroke-dasharray="0.5,0.5" stroke-width="0.2" stroke="#D0D0E0" id="fig-5e9648bf565346ab807930f02053adfe-element-19">
      <path fill="none" d="M24.38,138.72 L 138.87 138.72" id="fig-5e9648bf565346ab807930f02053adfe-element-20"/>
      <path fill="none" d="M24.38,94.81 L 138.87 94.81" id="fig-5e9648bf565346ab807930f02053adfe-element-21"/>
      <path fill="none" d="M24.38,50.91 L 138.87 50.91" id="fig-5e9648bf565346ab807930f02053adfe-element-22"/>
      <path fill="none" d="M24.38,7 L 138.87 7" id="fig-5e9648bf565346ab807930f02053adfe-element-23"/>
    </g>
    <g class="guide xgridlines yfixed" stroke-dasharray="0.5,0.5" stroke-width="0.2" stroke="#D0D0E0" id="fig-5e9648bf565346ab807930f02053adfe-element-24">
      <path fill="none" d="M26.38,5 L 26.38 140.72" id="fig-5e9648bf565346ab807930f02053adfe-element-25"/>
      <path fill="none" d="M81.62,5 L 81.62 140.72" id="fig-5e9648bf565346ab807930f02053adfe-element-26"/>
      <path fill="none" d="M136.87,5 L 136.87 140.72" id="fig-5e9648bf565346ab807930f02053adfe-element-27"/>
    </g>
    <g class="plotpanel" id="fig-5e9648bf565346ab807930f02053adfe-element-28">
      <g stroke-width="0.3" fill="#000000" fill-opacity="0.000" stroke-dasharray="none" id="fig-5e9648bf565346ab807930f02053adfe-element-29">
        <path fill="none" d="M26.49,115.52 L 26.6 119.43 26.71 119.71 26.82 119.82 26.93 119.89 27.04 119.94 27.15 119.98 27.26 120.03 27.37 120.07 27.48 120.12 27.59 120.16 27.7 120.2 27.81 120.25 27.93 120.29 28.04 120.33 28.15 120.37 28.26 120.41 28.37 120.45 28.48 120.49 28.59 120.53 28.7 120.57 28.81 120.61 28.92 120.65 29.03 120.69 29.14 120.73 29.25 120.77 29.36 120.81 29.47 120.84 29.58 120.88 29.69 120.92 29.8 120.96 29.91 121 30.02 121.03 30.13 121.07 30.25 121.11 30.36 121.15 30.47 121.18 30.58 121.22 30.69 121.26 30.8 121.29 30.91 121.33 31.02 121.37 31.13 121.4 31.24 121.44 31.35 121.48 31.46 121.52 31.57 121.55 31.68 121.59 31.79 121.63 31.9 121.66 32.01 121.7 32.12 121.74 32.23 121.77 32.34 121.81 32.46 121.85 32.57 121.88 32.68 121.92 32.79 121.96 32.9 122 33.01 122.03 33.12 122.07 33.23 122.11 33.34 122.15 33.45 122.18 33.56 122.22 33.67 122.26 33.78 122.3 33.89 122.34 34 122.37 34.11 122.41 34.22 122.45 34.33 122.49 34.44 122.53 34.55 122.57 34.66 122.6 34.78 122.64 34.89 122.68 35 122.72 35.11 122.76 35.22 122.8 35.33 122.84 35.44 122.88 35.55 122.92 35.66 122.96 35.77 123 35.88 123.04 35.99 123.08 36.1 123.12 36.21 123.16 36.32 123.2 36.43 123.24 36.54 123.28 36.65 123.33 36.76 123.37 36.87 123.41 36.99 123.45 37.1 123.49 37.21 123.53 37.32 123.58 37.43 123.62 37.54 123.66 37.65 123.7 37.76 123.75 37.87 123.79 37.98 123.83 38.09 123.87 38.2 123.92 38.31 123.96 38.42 124 38.53 124.05 38.64 124.09 38.75 124.13 38.86 124.18 38.97 124.22 39.08 124.26 39.19 124.31 39.31 124.35 39.42 124.4 39.53 124.44 39.64 124.48 39.75 124.53 39.86 124.57 39.97 124.62 40.08 124.66 40.19 124.71 40.3 124.75 40.41 124.8 40.52 124.84 40.63 124.88 40.74 124.93 40.85 124.97 40.96 125.02 41.07 125.06 41.18 125.11 41.29 125.15 41.4 125.2 41.52 125.24 41.63 125.29 41.74 125.33 41.85 125.38 41.96 125.42 42.07 125.47 42.18 125.51 42.29 125.56 42.4 125.6 42.51 125.65 42.62 125.69 42.73 125.73 42.84 125.78 42.95 125.82 43.06 125.87 43.17 125.91 43.28 125.96 43.39 126 43.5 126.05 43.61 126.09 43.73 126.13 43.84 126.18 43.95 126.22 44.06 126.26 44.17 126.31 44.28 126.35 44.39 126.4 44.5 126.44 44.61 126.48 44.72 126.53 44.83 126.57 44.94 126.61 45.05 126.65 45.16 126.7 45.27 126.74 45.38 126.78 45.49 126.82 45.6 126.87 45.71 126.91 45.82 126.95 45.93 126.99 46.05 127.03 46.16 127.08 46.27 127.12 46.38 127.16 46.49 127.2 46.6 127.24 46.71 127.28 46.82 127.32 46.93 127.36 47.04 127.4 47.15 127.44 47.26 127.48 47.37 127.52 47.48 127.56 47.59 127.6 47.7 127.64 47.81 127.68 47.92 127.72 48.03 127.76 48.14 127.8 48.26 127.84 48.37 127.87 48.48 127.91 48.59 127.95 48.7 127.99 48.81 128.03 48.92 128.06 49.03 128.1 49.14 128.14 49.25 128.18 49.36 128.21 49.47 128.25 49.58 128.29 49.69 128.32 49.8 128.36 49.91 128.4 50.02 128.43 50.13 128.47 50.24 128.5 50.35 128.54 50.46 128.57 50.58 128.61 50.69 128.64 50.8 128.68 50.91 128.71 51.02 128.75 51.13 128.78 51.24 128.82 51.35 128.85 51.46 128.88 51.57 128.92 51.68 128.95 51.79 128.98 51.9 129.02 52.01 129.05 52.12 129.08 52.23 129.11 52.34 129.15 52.45 129.18 52.56 129.21 52.67 129.24 52.79 129.27 52.9 129.31 53.01 129.34 53.12 129.37 53.23 129.4 53.34 129.43 53.45 129.46 53.56 129.49 53.67 129.52 53.78 129.55 53.89 129.58 54 129.61 54.11 129.64 54.22 129.67 54.33 129.7 54.44 129.73 54.55 129.76 54.66 129.79 54.77 129.82 54.88 129.85 54.99 129.88 55.11 129.9 55.22 129.93 55.33 129.96 55.44 129.99 55.55 130.02 55.66 130.05 55.77 130.07 55.88 130.1 55.99 130.13 56.1 130.15 56.21 130.18 56.32 130.21 56.43 130.24 56.54 130.26 56.65 130.29 56.76 130.32 56.87 130.34 56.98 130.37 57.09 130.39 57.2 130.42 57.32 130.45 57.43 130.47 57.54 130.5 57.65 130.52 57.76 130.55 57.87 130.57 57.98 130.6 58.09 130.62 58.2 130.65 58.31 130.67 58.42 130.7 58.53 130.72 58.64 130.74 58.75 130.77 58.86 130.79 58.97 130.82 59.08 130.84 59.19 130.86 59.3 130.89 59.41 130.91 59.52 130.93 59.64 130.96 59.75 130.98 59.86 131 59.97 131.03 60.08 131.05 60.19 131.07 60.3 131.09 60.41 131.12 60.52 131.14 60.63 131.16 60.74 131.18 60.85 131.21 60.96 131.23 61.07 131.25 61.18 131.27 61.29 131.29 61.4 131.32 61.51 131.34 61.62 131.36 61.73 131.38 61.85 131.4 61.96 131.42 62.07 131.44 62.18 131.46 62.29 131.48 62.4 131.51 62.51 131.53 62.62 131.55 62.73 131.57 62.84 131.59 62.95 131.61 63.06 131.63 63.17 131.65 63.28 131.67 63.39 131.69 63.5 131.71 63.61 131.73 63.72 131.75 63.83 131.77 63.94 131.79 64.05 131.81 64.17 131.82 64.28 131.84 64.39 131.86 64.5 131.88 64.61 131.9 64.72 131.92 64.83 131.94 64.94 131.96 65.05 131.98 65.16 132 65.27 132.01 65.38 132.03 65.49 132.05 65.6 132.07 65.71 132.09 65.82 132.11 65.93 132.12 66.04 132.14 66.15 132.16 66.26 132.18 66.38 132.2 66.49 132.21 66.6 132.23 66.71 132.25 66.82 132.27 66.93 132.28 67.04 132.3 67.15 132.32 67.26 132.34 67.37 132.35 67.48 132.37 67.59 132.39 67.7 132.4 67.81 132.42 67.92 132.44 68.03 132.45 68.14 132.47 68.25 132.49 68.36 132.5 68.47 132.52 68.58 132.54 68.7 132.55 68.81 132.57 68.92 132.59 69.03 132.6 69.14 132.62 69.25 132.63 69.36 132.65 69.47 132.67 69.58 132.68 69.69 132.7 69.8 132.71 69.91 132.73 70.02 132.74 70.13 132.76 70.24 132.78 70.35 132.79 70.46 132.81 70.57 132.82 70.68 132.84 70.79 132.85 70.91 132.87 71.02 132.88 71.13 132.9 71.24 132.91 71.35 132.93 71.46 132.94 71.57 132.96 71.68 132.97 71.79 132.99 71.9 133 72.01 133.02 72.12 133.03 72.23 133.05 72.34 133.06 72.45 133.07 72.56 133.09 72.67 133.1 72.78 133.12 72.89 133.13 73 133.15 73.11 133.16 73.23 133.17 73.34 133.19 73.45 133.2 73.56 133.22 73.67 133.23 73.78 133.24 73.89 133.26 74 133.27 74.11 133.28 74.22 133.3 74.33 133.31 74.44 133.32 74.55 133.34 74.66 133.35 74.77 133.36 74.88 133.38 74.99 133.39 75.1 133.4 75.21 133.42 75.32 133.43 75.44 133.44 75.55 133.46 75.66 133.47 75.77 133.48 75.88 133.49 75.99 133.51 76.1 133.52 76.21 133.53 76.32 133.55 76.43 133.56 76.54 133.57 76.65 133.58 76.76 133.6 76.87 133.61 76.98 133.62 77.09 133.63 77.2 133.64 77.31 133.66 77.42 133.67 77.53 133.68 77.64 133.69 77.76 133.71 77.87 133.72 77.98 133.73 78.09 133.74 78.2 133.75 78.31 133.76 78.42 133.78 78.53 133.79 78.64 133.8 78.75 133.81 78.86 133.82 78.97 133.83 79.08 133.85 79.19 133.86 79.3 133.87 79.41 133.88 79.52 133.89 79.63 133.9 79.74 133.91 79.85 133.93 79.97 133.94 80.08 133.95 80.19 133.96 80.3 133.97 80.41 133.98 80.52 133.99 80.63 134 80.74 134.01 80.85 134.02 80.96 134.04 81.07 134.05 81.18 134.06 81.29 134.07 81.4 134.08 81.51 134.09 81.62 134.1 81.73 134.11 81.84 134.12 81.95 134.13 82.06 134.14 82.17 134.15 82.29 134.16 82.4 134.17 82.51 134.18 82.62 134.19 82.73 134.2 82.84 134.21 82.95 134.22 83.06 134.23 83.17 134.24 83.28 134.25 83.39 134.26 83.5 134.27 83.61 134.28 83.72 134.29 83.83 134.3 83.94 134.31 84.05 134.32 84.16 134.33 84.27 134.34 84.38 134.35 84.5 134.36 84.61 134.37 84.72 134.38 84.83 134.39 84.94 134.4 85.05 134.41 85.16 134.42 85.27 134.43 85.38 134.44 85.49 134.45 85.6 134.45 85.71 134.46 85.82 134.47 85.93 134.48 86.04 134.49 86.15 134.5 86.26 134.51 86.37 134.52 86.48 134.53 86.59 134.54 86.7 134.55 86.82 134.55 86.93 134.56 87.04 134.57 87.15 134.58 87.26 134.59 87.37 134.6 87.48 134.61 87.59 134.62 87.7 134.62 87.81 134.63 87.92 134.64 88.03 134.65 88.14 134.66 88.25 134.67 88.36 134.68 88.47 134.68 88.58 134.69 88.69 134.7 88.8 134.71 88.91 134.72 89.03 134.73 89.14 134.73 89.25 134.74 89.36 134.75 89.47 134.76 89.58 134.77 89.69 134.78 89.8 134.78 89.91 134.79 90.02 134.8 90.13 134.81 90.24 134.82 90.35 134.82 90.46 134.83 90.57 134.84 90.68 134.85 90.79 134.86 90.9 134.86 91.01 134.87 91.12 134.88 91.23 134.89 91.35 134.89 91.46 134.9 91.57 134.91 91.68 134.92 91.79 134.92 91.9 134.93 92.01 134.94 92.12 134.95 92.23 134.95 92.34 134.96 92.45 134.97 92.56 134.98 92.67 134.98 92.78 134.99 92.89 135 93 135.01 93.11 135.01 93.22 135.02 93.33 135.03 93.44 135.04 93.56 135.04 93.67 135.05 93.78 135.06 93.89 135.06 94 135.07 94.11 135.08 94.22 135.08 94.33 135.09 94.44 135.1 94.55 135.11 94.66 135.11 94.77 135.12 94.88 135.13 94.99 135.13 95.1 135.14 95.21 135.15 95.32 135.15 95.43 135.16 95.54 135.17 95.65 135.17 95.77 135.18 95.88 135.19 95.99 135.19 96.1 135.2 96.21 135.21 96.32 135.21 96.43 135.22 96.54 135.23 96.65 135.23 96.76 135.24 96.87 135.25 96.98 135.25 97.09 135.26 97.2 135.27 97.31 135.27 97.42 135.28 97.53 135.29 97.64 135.29 97.75 135.3 97.86 135.3 97.97 135.31 98.09 135.32 98.2 135.32 98.31 135.33 98.42 135.34 98.53 135.34 98.64 135.35 98.75 135.35 98.86 135.36 98.97 135.37 99.08 135.37 99.19 135.38 99.3 135.38 99.41 135.39 99.52 135.4 99.63 135.4 99.74 135.41 99.85 135.41 99.96 135.42 100.07 135.43 100.18 135.43 100.3 135.44 100.41 135.44 100.52 135.45 100.63 135.46 100.74 135.46 100.85 135.47 100.96 135.47 101.07 135.48 101.18 135.48 101.29 135.49 101.4 135.5 101.51 135.5 101.62 135.51 101.73 135.51 101.84 135.52 101.95 135.52 102.06 135.53 102.17 135.53 102.28 135.54 102.39 135.55 102.5 135.55 102.62 135.56 102.73 135.56 102.84 135.57 102.95 135.57 103.06 135.58 103.17 135.58 103.28 135.59 103.39 135.59 103.5 135.6 103.61 135.61 103.72 135.61 103.83 135.62 103.94 135.62 104.05 135.63 104.16 135.63 104.27 135.64 104.38 135.64 104.49 135.65 104.6 135.65 104.71 135.66 104.83 135.66 104.94 135.67 105.05 135.67 105.16 135.68 105.27 135.68 105.38 135.69 105.49 135.69 105.6 135.7 105.71 135.7 105.82 135.71 105.93 135.71 106.04 135.72 106.15 135.72 106.26 135.73 106.37 135.73 106.48 135.74 106.59 135.74 106.7 135.75 106.81 135.75 106.92 135.76 107.03 135.76 107.15 135.77 107.26 135.77 107.37 135.78 107.48 135.78 107.59 135.79 107.7 135.79 107.81 135.8 107.92 135.8 108.03 135.8 108.14 135.81 108.25 135.81 108.36 135.82 108.47 135.82 108.58 135.83 108.69 135.83 108.8 135.84 108.91 135.84 109.02 135.85 109.13 135.85 109.24 135.86 109.36 135.86 109.47 135.86 109.58 135.87 109.69 135.87 109.8 135.88 109.91 135.88 110.02 135.89 110.13 135.89 110.24 135.9 110.35 135.9 110.46 135.9 110.57 135.91 110.68 135.91 110.79 135.92 110.9 135.92 111.01 135.93 111.12 135.93 111.23 135.93 111.34 135.94 111.45 135.94 111.56 135.95 111.68 135.95 111.79 135.96 111.9 135.96 112.01 135.96 112.12 135.97 112.23 135.97 112.34 135.98 112.45 135.98 112.56 135.98 112.67 135.99 112.78 135.99 112.89 136 113 136 113.11 136.01 113.22 136.01 113.33 136.01 113.44 136.02 113.55 136.02 113.66 136.03 113.77 136.03 113.89 136.03 114 136.04 114.11 136.04 114.22 136.04 114.33 136.05 114.44 136.05 114.55 136.06 114.66 136.06 114.77 136.06 114.88 136.07 114.99 136.07 115.1 136.08 115.21 136.08 115.32 136.08 115.43 136.09 115.54 136.09 115.65 136.09 115.76 136.1 115.87 136.1 115.98 136.11 116.09 136.11 116.21 136.11 116.32 136.12 116.43 136.12 116.54 136.12 116.65 136.13 116.76 136.13 116.87 136.14 116.98 136.14 117.09 136.14 117.2 136.15 117.31 136.15 117.42 136.15 117.53 136.16 117.64 136.16 117.75 136.16 117.86 136.17 117.97 136.17 118.08 136.18 118.19 136.18 118.3 136.18 118.42 136.19 118.53 136.19 118.64 136.19 118.75 136.2 118.86 136.2 118.97 136.2 119.08 136.21 119.19 136.21 119.3 136.21 119.41 136.22 119.52 136.22 119.63 136.22 119.74 136.23 119.85 136.23 119.96 136.23 120.07 136.24 120.18 136.24 120.29 136.24 120.4 136.25 120.51 136.25 120.62 136.25 120.74 136.26 120.85 136.26 120.96 136.26 121.07 136.27 121.18 136.27 121.29 136.27 121.4 136.28 121.51 136.28 121.62 136.28 121.73 136.29 121.84 136.29 121.95 136.29 122.06 136.3 122.17 136.3 122.28 136.3 122.39 136.3 122.5 136.31 122.61 136.31 122.72 136.31 122.83 136.32 122.95 136.32 123.06 136.32 123.17 136.33 123.28 136.33 123.39 136.33 123.5 136.34 123.61 136.34 123.72 136.34 123.83 136.34 123.94 136.35 124.05 136.35 124.16 136.35 124.27 136.36 124.38 136.36 124.49 136.36 124.6 136.37 124.71 136.37 124.82 136.37 124.93 136.37 125.04 136.38 125.15 136.38 125.27 136.38 125.38 136.39 125.49 136.39 125.6 136.39 125.71 136.39 125.82 136.4 125.93 136.4 126.04 136.4 126.15 136.41 126.26 136.41 126.37 136.41 126.48 136.41 126.59 136.42 126.7 136.42 126.81 136.42 126.92 136.43 127.03 136.43 127.14 136.43 127.25 136.43 127.36 136.44 127.48 136.44 127.59 136.44 127.7 136.44 127.81 136.45 127.92 136.45 128.03 136.45 128.14 136.46 128.25 136.46 128.36 136.46 128.47 136.46 128.58 136.47 128.69 136.47 128.8 136.47 128.91 136.47 129.02 136.48 129.13 136.48 129.24 136.48 129.35 136.48 129.46 136.49 129.57 136.49 129.68 136.49 129.8 136.49 129.91 136.5 130.02 136.5 130.13 136.5 130.24 136.51 130.35 136.51 130.46 136.51 130.57 136.51 130.68 136.52 130.79 136.52 130.9 136.52 131.01 136.52 131.12 136.53 131.23 136.53 131.34 136.53 131.45 136.53 131.56 136.53 131.67 136.54 131.78 136.54 131.89 136.54 132.01 136.54 132.12 136.55 132.23 136.55 132.34 136.55 132.45 136.55 132.56 136.56 132.67 136.56 132.78 136.56 132.89 136.56 133 136.57 133.11 136.57 133.22 136.57 133.33 136.57 133.44 136.58 133.55 136.58 133.66 136.58 133.77 136.58 133.88 136.58 133.99 136.59 134.1 136.59 134.21 136.59 134.33 136.59 134.44 136.6 134.55 136.6 134.66 136.6 134.77 136.6 134.88 136.61 134.99 136.61 135.1 136.61 135.21 136.61 135.32 136.61 135.43 136.62 135.54 136.62 135.65 136.62 135.76 136.62 135.87 136.63 135.98 136.63 136.09 136.63 136.2 136.63 136.31 136.63 136.42 136.64 136.54 136.64 136.65 136.64 136.76 136.64 136.87 136.64" id="fig-5e9648bf565346ab807930f02053adfe-element-30" stroke="#00BFFF" class="geometry color_ite=1000:epsion=0.2:hidden_layer:100-75-1"/>
        <path fill="none" d="M26.49,116.07 L 26.6 102.24 26.71 77.78 26.82 112.44 26.93 93.93 27.04 104.13 27.15 88.56 27.26 112.72 27.37 100.39 27.48 108.45 27.59 98.82 27.7 112.66 27.81 105.33 27.93 112.16 28.04 106.94 28.15 113.76 28.26 110.14 28.37 114.7 28.48 112.3 28.59 115.76 28.7 114.22 28.81 116.74 28.92 115.79 29.03 117.63 29.14 117.06 29.25 118.41 29.36 118.08 29.47 119.09 29.58 118.9 29.69 119.65 29.8 119.56 29.91 120.13 30.02 120.09 30.13 120.54 30.25 120.52 30.36 120.88 30.47 120.88 30.58 121.17 30.69 121.18 30.8 121.42 30.91 121.43 31.02 121.64 31.13 121.65 31.24 121.84 31.35 121.84 31.46 122.01 31.57 122 31.68 122.16 31.79 122.14 31.9 122.29 32.01 122.26 32.12 122.41 32.23 122.36 32.34 122.5 32.46 122.43 32.57 122.58 32.68 122.49 32.79 122.65 32.9 122.53 33.01 122.72 33.12 122.57 33.23 122.79 33.34 122.62 33.45 122.87 33.56 122.69 33.67 122.97 33.78 122.78 33.89 123.1 34 122.91 34.11 123.24 34.22 123.06 34.33 123.41 34.44 123.23 34.55 123.6 34.66 123.43 34.78 123.8 34.89 123.63 35 124.01 35.11 123.84 35.22 124.22 35.33 124.06 35.44 124.43 35.55 124.27 35.66 124.64 35.77 124.48 35.88 124.85 35.99 124.69 36.1 125.05 36.21 124.9 36.32 125.26 36.43 125.11 36.54 125.46 36.65 125.31 36.76 125.66 36.87 125.51 36.99 125.86 37.1 125.71 37.21 126.06 37.32 125.91 37.43 126.26 37.54 126.11 37.65 126.46 37.76 126.31 37.87 126.66 37.98 126.51 38.09 126.85 38.2 126.71 38.31 127.05 38.42 126.92 38.53 127.25 38.64 127.12 38.75 127.45 38.86 127.32 38.97 127.65 39.08 127.53 39.19 127.84 39.31 127.73 39.42 128.04 39.53 127.93 39.64 128.23 39.75 128.13 39.86 128.42 39.97 128.33 40.08 128.61 40.19 128.53 40.3 128.8 40.41 128.72 40.52 128.98 40.63 128.91 40.74 129.17 40.85 129.1 40.96 129.35 41.07 129.29 41.18 129.52 41.29 129.47 41.4 129.7 41.52 129.66 41.63 129.87 41.74 129.83 41.85 130.03 41.96 130.01 42.07 130.2 42.18 130.18 42.29 130.36 42.4 130.34 42.51 130.51 42.62 130.5 42.73 130.66 42.84 130.66 42.95 130.81 43.06 130.82 43.17 130.96 43.28 130.97 43.39 131.1 43.5 131.11 43.61 131.24 43.73 131.25 43.84 131.37 43.95 131.39 44.06 131.5 44.17 131.53 44.28 131.63 44.39 131.65 44.5 131.75 44.61 131.78 44.72 131.87 44.83 131.9 44.94 131.98 45.05 132.02 45.16 132.09 45.27 132.13 45.38 132.2 45.49 132.24 45.6 132.31 45.71 132.34 45.82 132.41 45.93 132.45 46.05 132.5 46.16 132.54 46.27 132.6 46.38 132.64 46.49 132.69 46.6 132.73 46.71 132.78 46.82 132.82 46.93 132.87 47.04 132.9 47.15 132.95 47.26 132.99 47.37 133.03 47.48 133.07 47.59 133.11 47.7 133.14 47.81 133.18 47.92 133.22 48.03 133.26 48.14 133.29 48.26 133.33 48.37 133.36 48.48 133.4 48.59 133.43 48.7 133.47 48.81 133.5 48.92 133.53 49.03 133.56 49.14 133.6 49.25 133.63 49.36 133.66 49.47 133.69 49.58 133.72 49.69 133.75 49.8 133.78 49.91 133.81 50.02 133.84 50.13 133.87 50.24 133.9 50.35 133.93 50.46 133.95 50.58 133.98 50.69 134.01 50.8 134.04 50.91 134.06 51.02 134.09 51.13 134.12 51.24 134.14 51.35 134.17 51.46 134.2 51.57 134.22 51.68 134.25 51.79 134.27 51.9 134.3 52.01 134.32 52.12 134.35 52.23 134.37 52.34 134.4 52.45 134.42 52.56 134.45 52.67 134.47 52.79 134.49 52.9 134.52 53.01 134.54 53.12 134.56 53.23 134.59 53.34 134.61 53.45 134.63 53.56 134.65 53.67 134.68 53.78 134.7 53.89 134.72 54 134.74 54.11 134.76 54.22 134.78 54.33 134.8 54.44 134.83 54.55 134.85 54.66 134.87 54.77 134.89 54.88 134.91 54.99 134.93 55.11 134.95 55.22 134.97 55.33 134.99 55.44 135.01 55.55 135.02 55.66 135.04 55.77 135.06 55.88 135.08 55.99 135.1 56.1 135.12 56.21 135.14 56.32 135.15 56.43 135.17 56.54 135.19 56.65 135.21 56.76 135.23 56.87 135.24 56.98 135.26 57.09 135.28 57.2 135.29 57.32 135.31 57.43 135.33 57.54 135.35 57.65 135.36 57.76 135.38 57.87 135.39 57.98 135.41 58.09 135.43 58.2 135.44 58.31 135.46 58.42 135.47 58.53 135.49 58.64 135.5 58.75 135.52 58.86 135.53 58.97 135.55 59.08 135.56 59.19 135.58 59.3 135.59 59.41 135.61 59.52 135.62 59.64 135.64 59.75 135.65 59.86 135.66 59.97 135.68 60.08 135.69 60.19 135.7 60.3 135.72 60.41 135.73 60.52 135.74 60.63 135.76 60.74 135.77 60.85 135.78 60.96 135.8 61.07 135.81 61.18 135.82 61.29 135.83 61.4 135.85 61.51 135.86 61.62 135.87 61.73 135.88 61.85 135.89 61.96 135.91 62.07 135.92 62.18 135.93 62.29 135.94 62.4 135.95 62.51 135.96 62.62 135.98 62.73 135.99 62.84 136 62.95 136.01 63.06 136.02 63.17 136.03 63.28 136.04 63.39 136.05 63.5 136.06 63.61 136.07 63.72 136.08 63.83 136.09 63.94 136.1 64.05 136.11 64.17 136.12 64.28 136.13 64.39 136.14 64.5 136.15 64.61 136.16 64.72 136.17 64.83 136.18 64.94 136.19 65.05 136.2 65.16 136.21 65.27 136.22 65.38 136.23 65.49 136.24 65.6 136.25 65.71 136.25 65.82 136.26 65.93 136.27 66.04 136.28 66.15 136.29 66.26 136.3 66.38 136.31 66.49 136.32 66.6 136.32 66.71 136.33 66.82 136.34 66.93 136.35 67.04 136.36 67.15 136.36 67.26 136.37 67.37 136.38 67.48 136.39 67.59 136.4 67.7 136.4 67.81 136.41 67.92 136.42 68.03 136.43 68.14 136.43 68.25 136.44 68.36 136.45 68.47 136.46 68.58 136.46 68.7 136.47 68.81 136.48 68.92 136.48 69.03 136.49 69.14 136.5 69.25 136.5 69.36 136.51 69.47 136.52 69.58 136.52 69.69 136.53 69.8 136.54 69.91 136.54 70.02 136.55 70.13 136.56 70.24 136.56 70.35 136.57 70.46 136.58 70.57 136.58 70.68 136.59 70.79 136.59 70.91 136.6 71.02 136.61 71.13 136.61 71.24 136.62 71.35 136.62 71.46 136.63 71.57 136.64 71.68 136.64 71.79 136.65 71.9 136.65 72.01 136.66 72.12 136.66 72.23 136.67 72.34 136.68 72.45 136.68 72.56 136.69 72.67 136.69 72.78 136.7 72.89 136.7 73 136.71 73.11 136.71 73.23 136.72 73.34 136.72 73.45 136.73 73.56 136.73 73.67 136.74 73.78 136.74 73.89 136.75 74 136.75 74.11 136.76 74.22 136.76 74.33 136.77 74.44 136.77 74.55 136.78 74.66 136.78 74.77 136.79 74.88 136.79 74.99 136.8 75.1 136.8 75.21 136.81 75.32 136.81 75.44 136.82 75.55 136.82 75.66 136.82 75.77 136.83 75.88 136.83 75.99 136.84 76.1 136.84 76.21 136.85 76.32 136.85 76.43 136.85 76.54 136.86 76.65 136.86 76.76 136.87 76.87 136.87 76.98 136.88 77.09 136.88 77.2 136.88 77.31 136.89 77.42 136.89 77.53 136.9 77.64 136.9 77.76 136.9 77.87 136.91 77.98 136.91 78.09 136.91 78.2 136.92 78.31 136.92 78.42 136.93 78.53 136.93 78.64 136.93 78.75 136.94 78.86 136.94 78.97 136.94 79.08 136.95 79.19 136.95 79.3 136.96 79.41 136.96 79.52 136.96 79.63 136.97 79.74 136.97 79.85 136.97 79.97 136.98 80.08 136.98 80.19 136.98 80.3 136.99 80.41 136.99 80.52 136.99 80.63 137 80.74 137 80.85 137 80.96 137.01 81.07 137.01 81.18 137.01 81.29 137.02 81.4 137.02 81.51 137.02 81.62 137.03 81.73 137.03 81.84 137.03 81.95 137.03 82.06 137.04 82.17 137.04 82.29 137.04 82.4 137.05 82.51 137.05 82.62 137.05 82.73 137.06 82.84 137.06 82.95 137.06 83.06 137.06 83.17 137.07 83.28 137.07 83.39 137.07 83.5 137.08 83.61 137.08 83.72 137.08 83.83 137.08 83.94 137.09 84.05 137.09 84.16 137.09 84.27 137.1 84.38 137.1 84.5 137.1 84.61 137.1 84.72 137.11 84.83 137.11 84.94 137.11 85.05 137.11 85.16 137.12 85.27 137.12 85.38 137.12 85.49 137.13 85.6 137.13 85.71 137.13 85.82 137.13 85.93 137.14 86.04 137.14 86.15 137.14 86.26 137.14 86.37 137.15 86.48 137.15 86.59 137.15 86.7 137.15 86.82 137.15 86.93 137.16 87.04 137.16 87.15 137.16 87.26 137.16 87.37 137.17 87.48 137.17 87.59 137.17 87.7 137.17 87.81 137.18 87.92 137.18 88.03 137.18 88.14 137.18 88.25 137.19 88.36 137.19 88.47 137.19 88.58 137.19 88.69 137.19 88.8 137.2 88.91 137.2 89.03 137.2 89.14 137.2 89.25 137.21 89.36 137.21 89.47 137.21 89.58 137.21 89.69 137.21 89.8 137.22 89.91 137.22 90.02 137.22 90.13 137.22 90.24 137.22 90.35 137.23 90.46 137.23 90.57 137.23 90.68 137.23 90.79 137.23 90.9 137.24 91.01 137.24 91.12 137.24 91.23 137.24 91.35 137.24 91.46 137.25 91.57 137.25 91.68 137.25 91.79 137.25 91.9 137.25 92.01 137.26 92.12 137.26 92.23 137.26 92.34 137.26 92.45 137.26 92.56 137.27 92.67 137.27 92.78 137.27 92.89 137.27 93 137.27 93.11 137.28 93.22 137.28 93.33 137.28 93.44 137.28 93.56 137.28 93.67 137.28 93.78 137.29 93.89 137.29 94 137.29 94.11 137.29 94.22 137.29 94.33 137.29 94.44 137.3 94.55 137.3 94.66 137.3 94.77 137.3 94.88 137.3 94.99 137.31 95.1 137.31 95.21 137.31 95.32 137.31 95.43 137.31 95.54 137.31 95.65 137.32 95.77 137.32 95.88 137.32 95.99 137.32 96.1 137.32 96.21 137.32 96.32 137.33 96.43 137.33 96.54 137.33 96.65 137.33 96.76 137.33 96.87 137.33 96.98 137.33 97.09 137.34 97.2 137.34 97.31 137.34 97.42 137.34 97.53 137.34 97.64 137.34 97.75 137.35 97.86 137.35 97.97 137.35 98.09 137.35 98.2 137.35 98.31 137.35 98.42 137.35 98.53 137.36 98.64 137.36 98.75 137.36 98.86 137.36 98.97 137.36 99.08 137.36 99.19 137.37 99.3 137.37 99.41 137.37 99.52 137.37 99.63 137.37 99.74 137.37 99.85 137.37 99.96 137.38 100.07 137.38 100.18 137.38 100.3 137.38 100.41 137.38 100.52 137.38 100.63 137.38 100.74 137.39 100.85 137.39 100.96 137.39 101.07 137.39 101.18 137.39 101.29 137.39 101.4 137.39 101.51 137.39 101.62 137.4 101.73 137.4 101.84 137.4 101.95 137.4 102.06 137.4 102.17 137.4 102.28 137.4 102.39 137.41 102.5 137.41 102.62 137.41 102.73 137.41 102.84 137.41 102.95 137.41 103.06 137.41 103.17 137.41 103.28 137.42 103.39 137.42 103.5 137.42 103.61 137.42 103.72 137.42 103.83 137.42 103.94 137.42 104.05 137.42 104.16 137.43 104.27 137.43 104.38 137.43 104.49 137.43 104.6 137.43 104.71 137.43 104.83 137.43 104.94 137.43 105.05 137.44 105.16 137.44 105.27 137.44 105.38 137.44 105.49 137.44 105.6 137.44 105.71 137.44 105.82 137.44 105.93 137.45 106.04 137.45 106.15 137.45 106.26 137.45 106.37 137.45 106.48 137.45 106.59 137.45 106.7 137.45 106.81 137.45 106.92 137.46 107.03 137.46 107.15 137.46 107.26 137.46 107.37 137.46 107.48 137.46 107.59 137.46 107.7 137.46 107.81 137.46 107.92 137.47 108.03 137.47 108.14 137.47 108.25 137.47 108.36 137.47 108.47 137.47 108.58 137.47 108.69 137.47 108.8 137.47 108.91 137.48 109.02 137.48 109.13 137.48 109.24 137.48 109.36 137.48 109.47 137.48 109.58 137.48 109.69 137.48 109.8 137.48 109.91 137.48 110.02 137.49 110.13 137.49 110.24 137.49 110.35 137.49 110.46 137.49 110.57 137.49 110.68 137.49 110.79 137.49 110.9 137.49 111.01 137.5 111.12 137.5 111.23 137.5 111.34 137.5 111.45 137.5 111.56 137.5 111.68 137.5 111.79 137.5 111.9 137.5 112.01 137.5 112.12 137.5 112.23 137.51 112.34 137.51 112.45 137.51 112.56 137.51 112.67 137.51 112.78 137.51 112.89 137.51 113 137.51 113.11 137.51 113.22 137.51 113.33 137.52 113.44 137.52 113.55 137.52 113.66 137.52 113.77 137.52 113.89 137.52 114 137.52 114.11 137.52 114.22 137.52 114.33 137.52 114.44 137.52 114.55 137.53 114.66 137.53 114.77 137.53 114.88 137.53 114.99 137.53 115.1 137.53 115.21 137.53 115.32 137.53 115.43 137.53 115.54 137.53 115.65 137.53 115.76 137.54 115.87 137.54 115.98 137.54 116.09 137.54 116.21 137.54 116.32 137.54 116.43 137.54 116.54 137.54 116.65 137.54 116.76 137.54 116.87 137.54 116.98 137.54 117.09 137.55 117.2 137.55 117.31 137.55 117.42 137.55 117.53 137.55 117.64 137.55 117.75 137.55 117.86 137.55 117.97 137.55 118.08 137.55 118.19 137.55 118.3 137.55 118.42 137.56 118.53 137.56 118.64 137.56 118.75 137.56 118.86 137.56 118.97 137.56 119.08 137.56 119.19 137.56 119.3 137.56 119.41 137.56 119.52 137.56 119.63 137.56 119.74 137.57 119.85 137.57 119.96 137.57 120.07 137.57 120.18 137.57 120.29 137.57 120.4 137.57 120.51 137.57 120.62 137.57 120.74 137.57 120.85 137.57 120.96 137.57 121.07 137.57 121.18 137.58 121.29 137.58 121.4 137.58 121.51 137.58 121.62 137.58 121.73 137.58 121.84 137.58 121.95 137.58 122.06 137.58 122.17 137.58 122.28 137.58 122.39 137.58 122.5 137.58 122.61 137.59 122.72 137.59 122.83 137.59 122.95 137.59 123.06 137.59 123.17 137.59 123.28 137.59 123.39 137.59 123.5 137.59 123.61 137.59 123.72 137.59 123.83 137.59 123.94 137.59 124.05 137.59 124.16 137.6 124.27 137.6 124.38 137.6 124.49 137.6 124.6 137.6 124.71 137.6 124.82 137.6 124.93 137.6 125.04 137.6 125.15 137.6 125.27 137.6 125.38 137.6 125.49 137.6 125.6 137.6 125.71 137.6 125.82 137.61 125.93 137.61 126.04 137.61 126.15 137.61 126.26 137.61 126.37 137.61 126.48 137.61 126.59 137.61 126.7 137.61 126.81 137.61 126.92 137.61 127.03 137.61 127.14 137.61 127.25 137.61 127.36 137.61 127.48 137.62 127.59 137.62 127.7 137.62 127.81 137.62 127.92 137.62 128.03 137.62 128.14 137.62 128.25 137.62 128.36 137.62 128.47 137.62 128.58 137.62 128.69 137.62 128.8 137.62 128.91 137.62 129.02 137.62 129.13 137.62 129.24 137.63 129.35 137.63 129.46 137.63 129.57 137.63 129.68 137.63 129.8 137.63 129.91 137.63 130.02 137.63 130.13 137.63 130.24 137.63 130.35 137.63 130.46 137.63 130.57 137.63 130.68 137.63 130.79 137.63 130.9 137.63 131.01 137.63 131.12 137.64 131.23 137.64 131.34 137.64 131.45 137.64 131.56 137.64 131.67 137.64 131.78 137.64 131.89 137.64 132.01 137.64 132.12 137.64 132.23 137.64 132.34 137.64 132.45 137.64 132.56 137.64 132.67 137.64 132.78 137.64 132.89 137.64 133 137.65 133.11 137.65 133.22 137.65 133.33 137.65 133.44 137.65 133.55 137.65 133.66 137.65 133.77 137.65 133.88 137.65 133.99 137.65 134.1 137.65 134.21 137.65 134.33 137.65 134.44 137.65 134.55 137.65 134.66 137.65 134.77 137.65 134.88 137.65 134.99 137.66 135.1 137.66 135.21 137.66 135.32 137.66 135.43 137.66 135.54 137.66 135.65 137.66 135.76 137.66 135.87 137.66 135.98 137.66 136.09 137.66 136.2 137.66 136.31 137.66 136.42 137.66 136.54 137.66 136.65 137.66 136.76 137.66 136.87 137.66" id="fig-5e9648bf565346ab807930f02053adfe-element-31" stroke="#D4CA3A" class="geometry color_ite=1000:epsion=0.5:hidden_layer:100-75-1"/>
        <path fill="none" d="M26.49,115.73 L 26.6 52.47 26.71 23.35 26.82 118.71 26.93 100.87 27.04 71.57 27.15 75.8 27.26 117.54 27.37 111.23 27.48 110.17 27.59 107.06 27.7 116.97 27.81 117.18 27.93 119.12 28.04 119.59 28.15 120.38 28.26 120.68 28.37 121.04 28.48 121.23 28.59 121.43 28.7 121.57 28.81 121.71 28.92 121.83 29.03 121.95 29.14 122.06 29.25 122.18 29.36 122.28 29.47 122.38 29.58 122.45 29.69 122.51 29.8 122.5 29.91 122.47 30.02 122.21 30.13 121.95 30.25 121.14 30.36 120.77 30.47 119.5 30.58 120.14 30.69 119.46 30.8 120.97 30.91 120.99 31.02 122.11 31.13 122.28 31.24 122.94 31.35 123.05 31.46 123.45 31.57 123.46 31.68 123.71 31.79 123.56 31.9 123.72 32.01 123.35 32.12 123.49 32.23 122.9 32.34 123.25 32.46 122.64 32.57 123.37 32.68 122.98 32.79 123.88 32.9 123.7 33.01 124.5 33.12 124.38 33.23 125.01 33.34 124.85 33.45 125.34 33.56 125.08 33.67 125.51 33.78 125.12 33.89 125.58 34 125.09 34.11 125.66 34.22 125.16 34.33 125.87 34.44 125.43 34.55 126.22 34.66 125.85 34.78 126.62 34.89 126.31 35 127.01 35.11 126.7 35.22 127.34 35.33 126.99 35.44 127.59 35.55 127.19 35.66 127.8 35.77 127.35 35.88 127.99 35.99 127.52 36.1 128.21 36.21 127.74 36.32 128.46 36.43 128 36.54 128.74 36.65 128.31 36.76 129.03 36.87 128.63 36.99 129.32 37.1 128.93 37.21 129.59 37.32 129.2 37.43 129.83 37.54 129.45 37.65 130.06 37.76 129.67 37.87 130.27 37.98 129.88 38.09 130.47 38.2 130.08 38.31 130.67 38.42 130.28 38.53 130.86 38.64 130.49 38.75 131.06 38.86 130.7 38.97 131.26 39.08 130.91 39.19 131.45 39.31 131.13 39.42 131.64 39.53 131.33 39.64 131.83 39.75 131.54 39.86 132.01 39.97 131.73 40.08 132.18 40.19 131.92 40.3 132.34 40.41 132.1 40.52 132.5 40.63 132.27 40.74 132.65 40.85 132.43 40.96 132.79 41.07 132.58 41.18 132.93 41.29 132.74 41.4 133.07 41.52 132.88 41.63 133.2 41.74 133.03 41.85 133.32 41.96 133.17 42.07 133.45 42.18 133.3 42.29 133.57 42.4 133.44 42.51 133.69 42.62 133.57 42.73 133.8 42.84 133.7 42.95 133.91 43.06 133.82 43.17 134.02 43.28 133.94 43.39 134.13 43.5 134.06 43.61 134.23 43.73 134.18 43.84 134.34 43.95 134.29 44.06 134.43 44.17 134.39 44.28 134.53 44.39 134.5 44.5 134.62 44.61 134.59 44.72 134.7 44.83 134.69 44.94 134.79 45.05 134.78 45.16 134.87 45.27 134.87 45.38 134.95 45.49 134.95 45.6 135.02 45.71 135.03 45.82 135.1 45.93 135.1 46.05 135.17 46.16 135.18 46.27 135.23 46.38 135.24 46.49 135.3 46.6 135.31 46.71 135.36 46.82 135.37 46.93 135.42 47.04 135.44 47.15 135.47 47.26 135.49 47.37 135.53 47.48 135.55 47.59 135.58 47.7 135.6 47.81 135.63 47.92 135.65 48.03 135.68 48.14 135.7 48.26 135.73 48.37 135.75 48.48 135.77 48.59 135.79 48.7 135.82 48.81 135.83 48.92 135.86 49.03 135.88 49.14 135.9 49.25 135.92 49.36 135.93 49.47 135.95 49.58 135.97 49.69 135.99 49.8 136.01 49.91 136.02 50.02 136.04 50.13 136.06 50.24 136.07 50.35 136.09 50.46 136.11 50.58 136.12 50.69 136.14 50.8 136.15 50.91 136.17 51.02 136.18 51.13 136.2 51.24 136.21 51.35 136.22 51.46 136.24 51.57 136.25 51.68 136.27 51.79 136.28 51.9 136.29 52.01 136.3 52.12 136.32 52.23 136.33 52.34 136.34 52.45 136.35 52.56 136.37 52.67 136.38 52.79 136.39 52.9 136.4 53.01 136.41 53.12 136.42 53.23 136.44 53.34 136.45 53.45 136.46 53.56 136.47 53.67 136.48 53.78 136.49 53.89 136.5 54 136.51 54.11 136.52 54.22 136.53 54.33 136.54 54.44 136.55 54.55 136.56 54.66 136.57 54.77 136.58 54.88 136.59 54.99 136.6 55.11 136.6 55.22 136.61 55.33 136.62 55.44 136.63 55.55 136.64 55.66 136.65 55.77 136.66 55.88 136.66 55.99 136.67 56.1 136.68 56.21 136.69 56.32 136.7 56.43 136.7 56.54 136.71 56.65 136.72 56.76 136.73 56.87 136.74 56.98 136.74 57.09 136.75 57.2 136.76 57.32 136.76 57.43 136.77 57.54 136.78 57.65 136.79 57.76 136.79 57.87 136.8 57.98 136.81 58.09 136.81 58.2 136.82 58.31 136.83 58.42 136.83 58.53 136.84 58.64 136.84 58.75 136.85 58.86 136.86 58.97 136.86 59.08 136.87 59.19 136.87 59.3 136.88 59.41 136.89 59.52 136.89 59.64 136.9 59.75 136.9 59.86 136.91 59.97 136.91 60.08 136.92 60.19 136.93 60.3 136.93 60.41 136.94 60.52 136.94 60.63 136.95 60.74 136.95 60.85 136.96 60.96 136.96 61.07 136.97 61.18 136.97 61.29 136.98 61.4 136.98 61.51 136.99 61.62 136.99 61.73 137 61.85 137 61.96 137.01 62.07 137.01 62.18 137.01 62.29 137.02 62.4 137.02 62.51 137.03 62.62 137.03 62.73 137.04 62.84 137.04 62.95 137.05 63.06 137.05 63.17 137.05 63.28 137.06 63.39 137.06 63.5 137.07 63.61 137.07 63.72 137.08 63.83 137.08 63.94 137.08 64.05 137.09 64.17 137.09 64.28 137.1 64.39 137.1 64.5 137.1 64.61 137.11 64.72 137.11 64.83 137.12 64.94 137.12 65.05 137.12 65.16 137.13 65.27 137.13 65.38 137.13 65.49 137.14 65.6 137.14 65.71 137.14 65.82 137.15 65.93 137.15 66.04 137.16 66.15 137.16 66.26 137.16 66.38 137.17 66.49 137.17 66.6 137.17 66.71 137.18 66.82 137.18 66.93 137.18 67.04 137.19 67.15 137.19 67.26 137.19 67.37 137.2 67.48 137.2 67.59 137.2 67.7 137.2 67.81 137.21 67.92 137.21 68.03 137.21 68.14 137.22 68.25 137.22 68.36 137.22 68.47 137.23 68.58 137.23 68.7 137.23 68.81 137.24 68.92 137.24 69.03 137.24 69.14 137.24 69.25 137.25 69.36 137.25 69.47 137.25 69.58 137.26 69.69 137.26 69.8 137.26 69.91 137.26 70.02 137.27 70.13 137.27 70.24 137.27 70.35 137.28 70.46 137.28 70.57 137.28 70.68 137.28 70.79 137.29 70.91 137.29 71.02 137.29 71.13 137.29 71.24 137.3 71.35 137.3 71.46 137.3 71.57 137.3 71.68 137.31 71.79 137.31 71.9 137.31 72.01 137.31 72.12 137.32 72.23 137.32 72.34 137.32 72.45 137.32 72.56 137.33 72.67 137.33 72.78 137.33 72.89 137.33 73 137.34 73.11 137.34 73.23 137.34 73.34 137.34 73.45 137.35 73.56 137.35 73.67 137.35 73.78 137.35 73.89 137.36 74 137.36 74.11 137.36 74.22 137.36 74.33 137.36 74.44 137.37 74.55 137.37 74.66 137.37 74.77 137.37 74.88 137.38 74.99 137.38 75.1 137.38 75.21 137.38 75.32 137.38 75.44 137.39 75.55 137.39 75.66 137.39 75.77 137.39 75.88 137.39 75.99 137.4 76.1 137.4 76.21 137.4 76.32 137.4 76.43 137.41 76.54 137.41 76.65 137.41 76.76 137.41 76.87 137.41 76.98 137.42 77.09 137.42 77.2 137.42 77.31 137.42 77.42 137.42 77.53 137.43 77.64 137.43 77.76 137.43 77.87 137.43 77.98 137.43 78.09 137.43 78.2 137.44 78.31 137.44 78.42 137.44 78.53 137.44 78.64 137.44 78.75 137.45 78.86 137.45 78.97 137.45 79.08 137.45 79.19 137.45 79.3 137.46 79.41 137.46 79.52 137.46 79.63 137.46 79.74 137.46 79.85 137.46 79.97 137.47 80.08 137.47 80.19 137.47 80.3 137.47 80.41 137.47 80.52 137.47 80.63 137.48 80.74 137.48 80.85 137.48 80.96 137.48 81.07 137.48 81.18 137.48 81.29 137.49 81.4 137.49 81.51 137.49 81.62 137.49 81.73 137.49 81.84 137.49 81.95 137.5 82.06 137.5 82.17 137.5 82.29 137.5 82.4 137.5 82.51 137.5 82.62 137.51 82.73 137.51 82.84 137.51 82.95 137.51 83.06 137.51 83.17 137.51 83.28 137.51 83.39 137.52 83.5 137.52 83.61 137.52 83.72 137.52 83.83 137.52 83.94 137.52 84.05 137.53 84.16 137.53 84.27 137.53 84.38 137.53 84.5 137.53 84.61 137.53 84.72 137.53 84.83 137.54 84.94 137.54 85.05 137.54 85.16 137.54 85.27 137.54 85.38 137.54 85.49 137.54 85.6 137.55 85.71 137.55 85.82 137.55 85.93 137.55 86.04 137.55 86.15 137.55 86.26 137.55 86.37 137.56 86.48 137.56 86.59 137.56 86.7 137.56 86.82 137.56 86.93 137.56 87.04 137.56 87.15 137.56 87.26 137.57 87.37 137.57 87.48 137.57 87.59 137.57 87.7 137.57 87.81 137.57 87.92 137.57 88.03 137.57 88.14 137.58 88.25 137.58 88.36 137.58 88.47 137.58 88.58 137.58 88.69 137.58 88.8 137.58 88.91 137.58 89.03 137.59 89.14 137.59 89.25 137.59 89.36 137.59 89.47 137.59 89.58 137.59 89.69 137.59 89.8 137.59 89.91 137.6 90.02 137.6 90.13 137.6 90.24 137.6 90.35 137.6 90.46 137.6 90.57 137.6 90.68 137.6 90.79 137.6 90.9 137.61 91.01 137.61 91.12 137.61 91.23 137.61 91.35 137.61 91.46 137.61 91.57 137.61 91.68 137.61 91.79 137.61 91.9 137.62 92.01 137.62 92.12 137.62 92.23 137.62 92.34 137.62 92.45 137.62 92.56 137.62 92.67 137.62 92.78 137.62 92.89 137.63 93 137.63 93.11 137.63 93.22 137.63 93.33 137.63 93.44 137.63 93.56 137.63 93.67 137.63 93.78 137.63 93.89 137.63 94 137.64 94.11 137.64 94.22 137.64 94.33 137.64 94.44 137.64 94.55 137.64 94.66 137.64 94.77 137.64 94.88 137.64 94.99 137.64 95.1 137.65 95.21 137.65 95.32 137.65 95.43 137.65 95.54 137.65 95.65 137.65 95.77 137.65 95.88 137.65 95.99 137.65 96.1 137.65 96.21 137.65 96.32 137.66 96.43 137.66 96.54 137.66 96.65 137.66 96.76 137.66 96.87 137.66 96.98 137.66 97.09 137.66 97.2 137.66 97.31 137.66 97.42 137.66 97.53 137.67 97.64 137.67 97.75 137.67 97.86 137.67 97.97 137.67 98.09 137.67 98.2 137.67 98.31 137.67 98.42 137.67 98.53 137.67 98.64 137.67 98.75 137.68 98.86 137.68 98.97 137.68 99.08 137.68 99.19 137.68 99.3 137.68 99.41 137.68 99.52 137.68 99.63 137.68 99.74 137.68 99.85 137.68 99.96 137.68 100.07 137.68 100.18 137.69 100.3 137.69 100.41 137.69 100.52 137.69 100.63 137.69 100.74 137.69 100.85 137.69 100.96 137.69 101.07 137.69 101.18 137.69 101.29 137.69 101.4 137.69 101.51 137.69 101.62 137.7 101.73 137.7 101.84 137.7 101.95 137.7 102.06 137.7 102.17 137.7 102.28 137.7 102.39 137.7 102.5 137.7 102.62 137.7 102.73 137.7 102.84 137.7 102.95 137.7 103.06 137.71 103.17 137.71 103.28 137.71 103.39 137.71 103.5 137.71 103.61 137.71 103.72 137.71 103.83 137.71 103.94 137.71 104.05 137.71 104.16 137.71 104.27 137.71 104.38 137.71 104.49 137.71 104.6 137.71 104.71 137.72 104.83 137.72 104.94 137.72 105.05 137.72 105.16 137.72 105.27 137.72 105.38 137.72 105.49 137.72 105.6 137.72 105.71 137.72 105.82 137.72 105.93 137.72 106.04 137.72 106.15 137.72 106.26 137.72 106.37 137.73 106.48 137.73 106.59 137.73 106.7 137.73 106.81 137.73 106.92 137.73 107.03 137.73 107.15 137.73 107.26 137.73 107.37 137.73 107.48 137.73 107.59 137.73 107.7 137.73 107.81 137.73 107.92 137.73 108.03 137.73 108.14 137.73 108.25 137.74 108.36 137.74 108.47 137.74 108.58 137.74 108.69 137.74 108.8 137.74 108.91 137.74 109.02 137.74 109.13 137.74 109.24 137.74 109.36 137.74 109.47 137.74 109.58 137.74 109.69 137.74 109.8 137.74 109.91 137.74 110.02 137.74 110.13 137.75 110.24 137.75 110.35 137.75 110.46 137.75 110.57 137.75 110.68 137.75 110.79 137.75 110.9 137.75 111.01 137.75 111.12 137.75 111.23 137.75 111.34 137.75 111.45 137.75 111.56 137.75 111.68 137.75 111.79 137.75 111.9 137.75 112.01 137.75 112.12 137.75 112.23 137.75 112.34 137.76 112.45 137.76 112.56 137.76 112.67 137.76 112.78 137.76 112.89 137.76 113 137.76 113.11 137.76 113.22 137.76 113.33 137.76 113.44 137.76 113.55 137.76 113.66 137.76 113.77 137.76 113.89 137.76 114 137.76 114.11 137.76 114.22 137.76 114.33 137.76 114.44 137.76 114.55 137.77 114.66 137.77 114.77 137.77 114.88 137.77 114.99 137.77 115.1 137.77 115.21 137.77 115.32 137.77 115.43 137.77 115.54 137.77 115.65 137.77 115.76 137.77 115.87 137.77 115.98 137.77 116.09 137.77 116.21 137.77 116.32 137.77 116.43 137.77 116.54 137.77 116.65 137.77 116.76 137.77 116.87 137.77 116.98 137.77 117.09 137.78 117.2 137.78 117.31 137.78 117.42 137.78 117.53 137.78 117.64 137.78 117.75 137.78 117.86 137.78 117.97 137.78 118.08 137.78 118.19 137.78 118.3 137.78 118.42 137.78 118.53 137.78 118.64 137.78 118.75 137.78 118.86 137.78 118.97 137.78 119.08 137.78 119.19 137.78 119.3 137.78 119.41 137.78 119.52 137.78 119.63 137.78 119.74 137.79 119.85 137.79 119.96 137.79 120.07 137.79 120.18 137.79 120.29 137.79 120.4 137.79 120.51 137.79 120.62 137.79 120.74 137.79 120.85 137.79 120.96 137.79 121.07 137.79 121.18 137.79 121.29 137.79 121.4 137.79 121.51 137.79 121.62 137.79 121.73 137.79 121.84 137.79 121.95 137.79 122.06 137.79 122.17 137.79 122.28 137.79 122.39 137.79 122.5 137.79 122.61 137.79 122.72 137.8 122.83 137.8 122.95 137.8 123.06 137.8 123.17 137.8 123.28 137.8 123.39 137.8 123.5 137.8 123.61 137.8 123.72 137.8 123.83 137.8 123.94 137.8 124.05 137.8 124.16 137.8 124.27 137.8 124.38 137.8 124.49 137.8 124.6 137.8 124.71 137.8 124.82 137.8 124.93 137.8 125.04 137.8 125.15 137.8 125.27 137.8 125.38 137.8 125.49 137.8 125.6 137.8 125.71 137.8 125.82 137.8 125.93 137.8 126.04 137.8 126.15 137.81 126.26 137.81 126.37 137.81 126.48 137.81 126.59 137.81 126.7 137.81 126.81 137.81 126.92 137.81 127.03 137.81 127.14 137.81 127.25 137.81 127.36 137.81 127.48 137.81 127.59 137.81 127.7 137.81 127.81 137.81 127.92 137.81 128.03 137.81 128.14 137.81 128.25 137.81 128.36 137.81 128.47 137.81 128.58 137.81 128.69 137.81 128.8 137.81 128.91 137.81 129.02 137.81 129.13 137.81 129.24 137.81 129.35 137.81 129.46 137.81 129.57 137.81 129.68 137.81 129.8 137.81 129.91 137.82 130.02 137.82 130.13 137.82 130.24 137.82 130.35 137.82 130.46 137.82 130.57 137.82 130.68 137.82 130.79 137.82 130.9 137.82 131.01 137.82 131.12 137.82 131.23 137.82 131.34 137.82 131.45 137.82 131.56 137.82 131.67 137.82 131.78 137.82 131.89 137.82 132.01 137.82 132.12 137.82 132.23 137.82 132.34 137.82 132.45 137.82 132.56 137.82 132.67 137.82 132.78 137.82 132.89 137.82 133 137.82 133.11 137.82 133.22 137.82 133.33 137.82 133.44 137.82 133.55 137.82 133.66 137.82 133.77 137.82 133.88 137.82 133.99 137.82 134.1 137.83 134.21 137.83 134.33 137.83 134.44 137.83 134.55 137.83 134.66 137.83 134.77 137.83 134.88 137.83 134.99 137.83 135.1 137.83 135.21 137.83 135.32 137.83 135.43 137.83 135.54 137.83 135.65 137.83 135.76 137.83 135.87 137.83 135.98 137.83 136.09 137.83 136.2 137.83 136.31 137.83 136.42 137.83 136.54 137.83 136.65 137.83 136.76 137.83 136.87 137.83" id="fig-5e9648bf565346ab807930f02053adfe-element-32" stroke="#FF5EA0" class="geometry color_ite=1000:epsion=0.9:hidden_layer:100-75-1"/>
      </g>
    </g>
  </g>
  <g class="guide ylabels" font-size="2.82" font-family="'PT Sans Caption','Helvetica Neue','Helvetica',sans-serif" fill="#6C606B" id="fig-5e9648bf565346ab807930f02053adfe-element-33">
    <text x="23.38" y="138.72" text-anchor="end" dy="0.35em" id="fig-5e9648bf565346ab807930f02053adfe-element-34">0</text>
    <text x="23.38" y="94.81" text-anchor="end" dy="0.35em" id="fig-5e9648bf565346ab807930f02053adfe-element-35">1×10³</text>
    <text x="23.38" y="50.91" text-anchor="end" dy="0.35em" id="fig-5e9648bf565346ab807930f02053adfe-element-36">2×10³</text>
    <text x="23.38" y="7" text-anchor="end" dy="0.35em" id="fig-5e9648bf565346ab807930f02053adfe-element-37">3×10³</text>
  </g>
  <g font-size="3.88" font-family="'PT Sans','Helvetica Neue','Helvetica',sans-serif" fill="#564A55" stroke="#000000" stroke-opacity="0.000" id="fig-5e9648bf565346ab807930f02053adfe-element-38">
    <text x="8.81" y="70.86" text-anchor="middle" dy="0.35em" transform="rotate(-90, 8.81, 72.86)" id="fig-5e9648bf565346ab807930f02053adfe-element-39">err</text>
  </g>
</g>
<defs>
<clipPath id="fig-5e9648bf565346ab807930f02053adfe-element-16">
  <path d="M24.38,5 L 138.87 5 138.87 140.72 24.38 140.72" />
</clipPath
></defs>
</svg>
