<?xml version="1.0" encoding="UTF-8"?>
<svg xmlns="http://www.w3.org/2000/svg"
     xmlns:xlink="http://www.w3.org/1999/xlink"
     xmlns:gadfly="http://www.gadflyjl.org/ns"
     version="1.2"
     width="200mm" height="160mm" viewBox="0 0 200 160"
     stroke="none"
     fill="#000000"
     stroke-width="0.3"
     font-size="3.88"
>
<g class="plotroot xscalable yscalable" id="fig-ce67f2e273bc49f19a4c36b3748aabce-element-1">
  <g font-size="3.88" font-family="'PT Sans','Helvetica Neue','Helvetica',sans-serif" fill="#564A55" stroke="#000000" stroke-opacity="0.000" id="fig-ce67f2e273bc49f19a4c36b3748aabce-element-2">
    <text x="84.7" y="148.39" text-anchor="middle" dy="0.6em">ite</text>
  </g>
  <g class="guide xlabels" font-size="2.82" font-family="'PT Sans Caption','Helvetica Neue','Helvetica',sans-serif" fill="#6C606B" id="fig-ce67f2e273bc49f19a4c36b3748aabce-element-3">
    <text x="23.31" y="141.72" text-anchor="middle" dy="0.6em">0</text>
    <text x="35.58" y="141.72" text-anchor="middle" dy="0.6em">40</text>
    <text x="47.86" y="141.72" text-anchor="middle" dy="0.6em">80</text>
    <text x="60.14" y="141.72" text-anchor="middle" dy="0.6em">120</text>
    <text x="72.42" y="141.72" text-anchor="middle" dy="0.6em">160</text>
    <text x="84.7" y="141.72" text-anchor="middle" dy="0.6em">200</text>
    <text x="96.98" y="141.72" text-anchor="middle" dy="0.6em">240</text>
    <text x="109.26" y="141.72" text-anchor="middle" dy="0.6em">280</text>
    <text x="121.54" y="141.72" text-anchor="middle" dy="0.6em">320</text>
    <text x="133.82" y="141.72" text-anchor="middle" dy="0.6em">360</text>
    <text x="146.1" y="141.72" text-anchor="middle" dy="0.6em">400</text>
  </g>
  <g class="guide colorkey" id="fig-ce67f2e273bc49f19a4c36b3748aabce-element-4">
    <g fill="#4C404B" font-size="2.82" font-family="'PT Sans','Helvetica Neue','Helvetica',sans-serif" id="fig-ce67f2e273bc49f19a4c36b3748aabce-element-5">
      <text x="151.91" y="65.6" dy="0.35em" id="fig-ce67f2e273bc49f19a4c36b3748aabce-element-6" class="color_hidden_layer:100-75-1">hidden_layer:100-75-1</text>
      <text x="151.91" y="69.23" dy="0.35em" id="fig-ce67f2e273bc49f19a4c36b3748aabce-element-7" class="color_hidden_layer:3-1">hidden_layer:3-1</text>
      <text x="151.91" y="72.86" dy="0.35em" id="fig-ce67f2e273bc49f19a4c36b3748aabce-element-8" class="color_hidden_layer:3-3-3-3-3-3-3-3-3-3-1">hidden_layer:3-3-3-3-3-3-3-3-3-3-1</text>
      <text x="151.91" y="76.48" dy="0.35em" id="fig-ce67f2e273bc49f19a4c36b3748aabce-element-9" class="color_hidden_layer:100-75-50-25-1">hidden_layer:100-75-50-25-1</text>
      <text x="151.91" y="80.11" dy="0.35em" id="fig-ce67f2e273bc49f19a4c36b3748aabce-element-10" class="color_hidden_layer:200-100-1">hidden_layer:200-100-1</text>
      <text x="151.91" y="83.74" dy="0.35em" id="fig-ce67f2e273bc49f19a4c36b3748aabce-element-11" class="color_hidden_layer:200-200-1">hidden_layer:200-200-1</text>
    </g>
    <g stroke="#000000" stroke-opacity="0.000" id="fig-ce67f2e273bc49f19a4c36b3748aabce-element-12">
      <rect x="149.1" y="64.7" width="1.81" height="1.81" id="fig-ce67f2e273bc49f19a4c36b3748aabce-element-13" class="color_hidden_layer:100-75-1" fill="#00BFFF"/>
      <rect x="149.1" y="68.32" width="1.81" height="1.81" id="fig-ce67f2e273bc49f19a4c36b3748aabce-element-14" class="color_hidden_layer:3-1" fill="#D4CA3A"/>
      <rect x="149.1" y="71.95" width="1.81" height="1.81" id="fig-ce67f2e273bc49f19a4c36b3748aabce-element-15" class="color_hidden_layer:3-3-3-3-3-3-3-3-3-3-1" fill="#FF5EA0"/>
      <rect x="149.1" y="75.58" width="1.81" height="1.81" id="fig-ce67f2e273bc49f19a4c36b3748aabce-element-16" class="color_hidden_layer:100-75-50-25-1" fill="#00E5B2"/>
      <rect x="149.1" y="79.2" width="1.81" height="1.81" id="fig-ce67f2e273bc49f19a4c36b3748aabce-element-17" class="color_hidden_layer:200-100-1" fill="#F6A6FF"/>
      <rect x="149.1" y="82.83" width="1.81" height="1.81" id="fig-ce67f2e273bc49f19a4c36b3748aabce-element-18" class="color_hidden_layer:200-200-1" fill="#9E9E9E"/>
    </g>
    <g fill="#362A35" font-size="3.88" font-family="'PT Sans','Helvetica Neue','Helvetica',sans-serif" stroke="#000000" stroke-opacity="0.000" id="fig-ce67f2e273bc49f19a4c36b3748aabce-element-19">
      <text x="149.1" y="61.78" id="fig-ce67f2e273bc49f19a4c36b3748aabce-element-20">params</text>
    </g>
  </g>
  <g clip-path="url(#fig-ce67f2e273bc49f19a4c36b3748aabce-element-22)" id="fig-ce67f2e273bc49f19a4c36b3748aabce-element-21">
    <g pointer-events="visible" opacity="1" fill="#000000" fill-opacity="0.000" stroke="#000000" stroke-opacity="0.000" class="guide background" id="fig-ce67f2e273bc49f19a4c36b3748aabce-element-23">
      <rect x="21.31" y="5" width="126.79" height="135.72" id="fig-ce67f2e273bc49f19a4c36b3748aabce-element-24"/>
    </g>
    <g class="guide ygridlines xfixed" stroke-dasharray="0.5,0.5" stroke-width="0.2" stroke="#D0D0E0" id="fig-ce67f2e273bc49f19a4c36b3748aabce-element-25">
      <path fill="none" d="M21.31,138.72 L 148.1 138.72" id="fig-ce67f2e273bc49f19a4c36b3748aabce-element-26"/>
      <path fill="none" d="M21.31,105.79 L 148.1 105.79" id="fig-ce67f2e273bc49f19a4c36b3748aabce-element-27"/>
      <path fill="none" d="M21.31,72.86 L 148.1 72.86" id="fig-ce67f2e273bc49f19a4c36b3748aabce-element-28"/>
      <path fill="none" d="M21.31,39.93 L 148.1 39.93" id="fig-ce67f2e273bc49f19a4c36b3748aabce-element-29"/>
      <path fill="none" d="M21.31,7 L 148.1 7" id="fig-ce67f2e273bc49f19a4c36b3748aabce-element-30"/>
    </g>
    <g class="guide xgridlines yfixed" stroke-dasharray="0.5,0.5" stroke-width="0.2" stroke="#D0D0E0" id="fig-ce67f2e273bc49f19a4c36b3748aabce-element-31">
      <path fill="none" d="M23.31,5 L 23.31 140.72" id="fig-ce67f2e273bc49f19a4c36b3748aabce-element-32"/>
      <path fill="none" d="M35.58,5 L 35.58 140.72" id="fig-ce67f2e273bc49f19a4c36b3748aabce-element-33"/>
      <path fill="none" d="M47.86,5 L 47.86 140.72" id="fig-ce67f2e273bc49f19a4c36b3748aabce-element-34"/>
      <path fill="none" d="M60.14,5 L 60.14 140.72" id="fig-ce67f2e273bc49f19a4c36b3748aabce-element-35"/>
      <path fill="none" d="M72.42,5 L 72.42 140.72" id="fig-ce67f2e273bc49f19a4c36b3748aabce-element-36"/>
      <path fill="none" d="M84.7,5 L 84.7 140.72" id="fig-ce67f2e273bc49f19a4c36b3748aabce-element-37"/>
      <path fill="none" d="M96.98,5 L 96.98 140.72" id="fig-ce67f2e273bc49f19a4c36b3748aabce-element-38"/>
      <path fill="none" d="M109.26,5 L 109.26 140.72" id="fig-ce67f2e273bc49f19a4c36b3748aabce-element-39"/>
      <path fill="none" d="M121.54,5 L 121.54 140.72" id="fig-ce67f2e273bc49f19a4c36b3748aabce-element-40"/>
      <path fill="none" d="M133.82,5 L 133.82 140.72" id="fig-ce67f2e273bc49f19a4c36b3748aabce-element-41"/>
      <path fill="none" d="M146.1,5 L 146.1 140.72" id="fig-ce67f2e273bc49f19a4c36b3748aabce-element-42"/>
    </g>
    <g class="plotpanel" id="fig-ce67f2e273bc49f19a4c36b3748aabce-element-43">
      <g stroke-width="0.3" fill="#000000" fill-opacity="0.000" stroke-dasharray="none" id="fig-ce67f2e273bc49f19a4c36b3748aabce-element-44">
        <path fill="none" d="M23.61,107.18 L 23.92 110.88 24.23 111.32 24.53 111.42 24.84 111.49 25.15 111.56 25.45 111.63 25.76 111.69 26.07 111.76 26.37 111.83 26.68 111.89 26.99 111.96 27.3 112.02 27.6 112.08 27.91 112.15 28.22 112.21 28.52 112.27 28.83 112.34 29.14 112.4 29.44 112.46 29.75 112.52 30.06 112.59 30.37 112.65 30.67 112.71 30.98 112.77 31.29 112.83 31.59 112.89 31.9 112.95 32.21 113.01 32.51 113.07 32.82 113.13 33.13 113.19 33.44 113.25 33.74 113.31 34.05 113.37 34.36 113.43 34.66 113.49 34.97 113.55 35.28 113.61 35.58 113.67 35.89 113.73 36.2 113.79 36.51 113.85 36.81 113.91 37.12 113.97 37.43 114.03 37.73 114.09 38.04 114.15 38.35 114.21 38.65 114.27 38.96 114.33 39.27 114.39 39.58 114.45 39.88 114.51 40.19 114.57 40.5 114.63 40.8 114.69 41.11 114.75 41.42 114.81 41.72 114.87 42.03 114.94 42.34 115 42.65 115.06 42.95 115.12 43.26 115.18 43.57 115.24 43.87 115.3 44.18 115.36 44.49 115.43 44.79 115.49 45.1 115.55 45.41 115.61 45.72 115.67 46.02 115.74 46.33 115.8 46.64 115.86 46.94 115.92 47.25 115.99 47.56 116.05 47.86 116.11 48.17 116.18 48.48 116.24 48.78 116.3 49.09 116.37 49.4 116.43 49.71 116.49 50.01 116.56 50.32 116.62 50.63 116.69 50.93 116.75 51.24 116.81 51.55 116.88 51.85 116.94 52.16 117.01 52.47 117.07 52.78 117.14 53.08 117.2 53.39 117.27 53.7 117.33 54 117.39 54.31 117.46 54.62 117.52 54.92 117.59 55.23 117.65 55.54 117.72 55.85 117.78 56.15 117.85 56.46 117.91 56.77 117.98 57.07 118.05 57.38 118.11 57.69 118.18 57.99 118.24 58.3 118.31 58.61 118.37 58.92 118.44 59.22 118.5 59.53 118.57 59.84 118.63 60.14 118.7 60.45 118.76 60.76 118.83 61.06 118.89 61.37 118.96 61.68 119.02 61.99 119.09 62.29 119.15 62.6 119.22 62.91 119.28 63.21 119.34 63.52 119.41 63.83 119.47 64.13 119.54 64.44 119.6 64.75 119.67 65.06 119.73 65.36 119.79 65.67 119.86 65.98 119.92 66.28 119.99 66.59 120.05 66.9 120.11 67.2 120.18 67.51 120.24 67.82 120.3 68.13 120.36 68.43 120.43 68.74 120.49 69.05 120.55 69.35 120.61 69.66 120.68 69.97 120.74 70.27 120.8 70.58 120.86 70.89 120.92 71.2 120.98 71.5 121.05 71.81 121.11 72.12 121.17 72.42 121.23 72.73 121.29 73.04 121.35 73.34 121.41 73.65 121.47 73.96 121.53 74.26 121.59 74.57 121.65 74.88 121.71 75.19 121.76 75.49 121.82 75.8 121.88 76.11 121.94 76.41 122 76.72 122.06 77.03 122.11 77.33 122.17 77.64 122.23 77.95 122.29 78.26 122.34 78.56 122.4 78.87 122.46 79.18 122.51 79.48 122.57 79.79 122.63 80.1 122.68 80.4 122.74 80.71 122.79 81.02 122.85 81.33 122.9 81.63 122.96 81.94 123.01 82.25 123.07 82.55 123.12 82.86 123.17 83.17 123.23 83.47 123.28 83.78 123.33 84.09 123.39 84.4 123.44 84.7 123.49 85.01 123.54 85.32 123.6 85.62 123.65 85.93 123.7 86.24 123.75 86.54 123.8 86.85 123.85 87.16 123.9 87.47 123.95 87.77 124 88.08 124.05 88.39 124.1 88.69 124.15 89 124.2 89.31 124.25 89.61 124.3 89.92 124.35 90.23 124.4 90.54 124.45 90.84 124.5 91.15 124.54 91.46 124.59 91.76 124.64 92.07 124.69 92.38 124.73 92.68 124.78 92.99 124.83 93.3 124.87 93.61 124.92 93.91 124.97 94.22 125.01 94.53 125.06 94.83 125.1 95.14 125.15 95.45 125.19 95.75 125.24 96.06 125.28 96.37 125.33 96.68 125.37 96.98 125.42 97.29 125.46 97.6 125.51 97.9 125.55 98.21 125.59 98.52 125.64 98.82 125.68 99.13 125.72 99.44 125.76 99.74 125.81 100.05 125.85 100.36 125.89 100.67 125.93 100.97 125.97 101.28 126.01 101.59 126.06 101.89 126.1 102.2 126.14 102.51 126.18 102.81 126.22 103.12 126.26 103.43 126.3 103.74 126.34 104.04 126.38 104.35 126.42 104.66 126.46 104.96 126.5 105.27 126.53 105.58 126.57 105.88 126.61 106.19 126.65 106.5 126.69 106.81 126.73 107.11 126.76 107.42 126.8 107.73 126.84 108.03 126.88 108.34 126.91 108.65 126.95 108.95 126.99 109.26 127.02 109.57 127.06 109.88 127.1 110.18 127.13 110.49 127.17 110.8 127.21 111.1 127.24 111.41 127.28 111.72 127.31 112.02 127.35 112.33 127.38 112.64 127.42 112.95 127.45 113.25 127.49 113.56 127.52 113.87 127.55 114.17 127.59 114.48 127.62 114.79 127.66 115.09 127.69 115.4 127.72 115.71 127.76 116.02 127.79 116.32 127.82 116.63 127.86 116.94 127.89 117.24 127.92 117.55 127.95 117.86 127.98 118.16 128.02 118.47 128.05 118.78 128.08 119.09 128.11 119.39 128.14 119.7 128.17 120.01 128.21 120.31 128.24 120.62 128.27 120.93 128.3 121.23 128.33 121.54 128.36 121.85 128.39 122.15 128.42 122.46 128.45 122.77 128.48 123.08 128.51 123.38 128.54 123.69 128.57 124 128.6 124.3 128.63 124.61 128.66 124.92 128.69 125.22 128.71 125.53 128.74 125.84 128.77 126.15 128.8 126.45 128.83 126.76 128.86 127.07 128.88 127.37 128.91 127.68 128.94 127.99 128.97 128.29 129 128.6 129.02 128.91 129.05 129.22 129.08 129.52 129.1 129.83 129.13 130.14 129.16 130.44 129.19 130.75 129.21 131.06 129.24 131.36 129.26 131.67 129.29 131.98 129.32 132.29 129.34 132.59 129.37 132.9 129.39 133.21 129.42 133.51 129.45 133.82 129.47 134.13 129.5 134.43 129.52 134.74 129.55 135.05 129.57 135.36 129.6 135.66 129.62 135.97 129.65 136.28 129.67 136.58 129.7 136.89 129.72 137.2 129.74 137.5 129.77 137.81 129.79 138.12 129.82 138.43 129.84 138.73 129.86 139.04 129.89 139.35 129.91 139.65 129.94 139.96 129.96 140.27 129.98 140.57 130 140.88 130.03 141.19 130.05 141.5 130.07 141.8 130.1 142.11 130.12 142.42 130.14 142.72 130.16 143.03 130.19 143.34 130.21 143.64 130.23 143.95 130.25 144.26 130.28 144.57 130.3 144.87 130.32 145.18 130.34 145.49 130.36 145.79 130.38 146.1 130.41" id="fig-ce67f2e273bc49f19a4c36b3748aabce-element-45" stroke="#00BFFF" class="geometry color_hidden_layer:100-75-1"/>
        <path fill="none" d="M23.61,104.68 L 23.92 109.5 24.23 110.78 24.53 111.08 24.84 111.15 25.15 111.17 25.45 111.17 25.76 111.18 26.07 111.18 26.37 111.18 26.68 111.18 26.99 111.18 27.3 111.18 27.6 111.19 27.91 111.19 28.22 111.19 28.52 111.19 28.83 111.19 29.14 111.19 29.44 111.19 29.75 111.2 30.06 111.2 30.37 111.2 30.67 111.2 30.98 111.2 31.29 111.2 31.59 111.2 31.9 111.21 32.21 111.21 32.51 111.21 32.82 111.21 33.13 111.21 33.44 111.21 33.74 111.21 34.05 111.22 34.36 111.22 34.66 111.22 34.97 111.22 35.28 111.22 35.58 111.22 35.89 111.22 36.2 111.23 36.51 111.23 36.81 111.23 37.12 111.23 37.43 111.23 37.73 111.23 38.04 111.23 38.35 111.24 38.65 111.24 38.96 111.24 39.27 111.24 39.58 111.24 39.88 111.24 40.19 111.25 40.5 111.25 40.8 111.25 41.11 111.25 41.42 111.25 41.72 111.25 42.03 111.25 42.34 111.26 42.65 111.26 42.95 111.26 43.26 111.26 43.57 111.26 43.87 111.26 44.18 111.27 44.49 111.27 44.79 111.27 45.1 111.27 45.41 111.27 45.72 111.27 46.02 111.28 46.33 111.28 46.64 111.28 46.94 111.28 47.25 111.28 47.56 111.28 47.86 111.29 48.17 111.29 48.48 111.29 48.78 111.29 49.09 111.29 49.4 111.29 49.71 111.3 50.01 111.3 50.32 111.3 50.63 111.3 50.93 111.3 51.24 111.3 51.55 111.31 51.85 111.31 52.16 111.31 52.47 111.31 52.78 111.31 53.08 111.32 53.39 111.32 53.7 111.32 54 111.32 54.31 111.32 54.62 111.32 54.92 111.33 55.23 111.33 55.54 111.33 55.85 111.33 56.15 111.33 56.46 111.34 56.77 111.34 57.07 111.34 57.38 111.34 57.69 111.34 57.99 111.35 58.3 111.35 58.61 111.35 58.92 111.35 59.22 111.35 59.53 111.36 59.84 111.36 60.14 111.36 60.45 111.36 60.76 111.36 61.06 111.37 61.37 111.37 61.68 111.37 61.99 111.37 62.29 111.37 62.6 111.38 62.91 111.38 63.21 111.38 63.52 111.38 63.83 111.39 64.13 111.39 64.44 111.39 64.75 111.39 65.06 111.39 65.36 111.4 65.67 111.4 65.98 111.4 66.28 111.4 66.59 111.41 66.9 111.41 67.2 111.41 67.51 111.41 67.82 111.41 68.13 111.42 68.43 111.42 68.74 111.42 69.05 111.42 69.35 111.43 69.66 111.43 69.97 111.43 70.27 111.43 70.58 111.44 70.89 111.44 71.2 111.44 71.5 111.44 71.81 111.45 72.12 111.45 72.42 111.45 72.73 111.45 73.04 111.46 73.34 111.46 73.65 111.46 73.96 111.46 74.26 111.47 74.57 111.47 74.88 111.47 75.19 111.48 75.49 111.48 75.8 111.48 76.11 111.48 76.41 111.49 76.72 111.49 77.03 111.49 77.33 111.49 77.64 111.5 77.95 111.5 78.26 111.5 78.56 111.51 78.87 111.51 79.18 111.51 79.48 111.52 79.79 111.52 80.1 111.52 80.4 111.52 80.71 111.53 81.02 111.53 81.33 111.53 81.63 111.54 81.94 111.54 82.25 111.54 82.55 111.55 82.86 111.55 83.17 111.55 83.47 111.56 83.78 111.56 84.09 111.56 84.4 111.57 84.7 111.57 85.01 111.57 85.32 111.58 85.62 111.58 85.93 111.58 86.24 111.59 86.54 111.59 86.85 111.59 87.16 111.6 87.47 111.6 87.77 111.6 88.08 111.61 88.39 111.61 88.69 111.62 89 111.62 89.31 111.62 89.61 111.63 89.92 111.63 90.23 111.63 90.54 111.64 90.84 111.64 91.15 111.65 91.46 111.65 91.76 111.65 92.07 111.66 92.38 111.66 92.68 111.67 92.99 111.67 93.3 111.67 93.61 111.68 93.91 111.68 94.22 111.69 94.53 111.69 94.83 111.7 95.14 111.7 95.45 111.7 95.75 111.71 96.06 111.71 96.37 111.72 96.68 111.72 96.98 111.73 97.29 111.73 97.6 111.74 97.9 111.74 98.21 111.75 98.52 111.75 98.82 111.76 99.13 111.76 99.44 111.77 99.74 111.77 100.05 111.78 100.36 111.78 100.67 111.79 100.97 111.79 101.28 111.8 101.59 111.8 101.89 111.81 102.2 111.81 102.51 111.82 102.81 111.82 103.12 111.83 103.43 111.83 103.74 111.84 104.04 111.84 104.35 111.85 104.66 111.86 104.96 111.86 105.27 111.87 105.58 111.87 105.88 111.88 106.19 111.89 106.5 111.89 106.81 111.9 107.11 111.9 107.42 111.91 107.73 111.92 108.03 111.92 108.34 111.93 108.65 111.93 108.95 111.94 109.26 111.95 109.57 111.95 109.88 111.96 110.18 111.97 110.49 111.97 110.8 111.98 111.1 111.99 111.41 112 111.72 112 112.02 112.01 112.33 112.02 112.64 112.02 112.95 112.03 113.25 112.04 113.56 112.05 113.87 112.05 114.17 112.06 114.48 112.07 114.79 112.08 115.09 112.08 115.4 112.09 115.71 112.1 116.02 112.11 116.32 112.12 116.63 112.12 116.94 112.13 117.24 112.14 117.55 112.15 117.86 112.16 118.16 112.17 118.47 112.18 118.78 112.18 119.09 112.19 119.39 112.2 119.7 112.21 120.01 112.22 120.31 112.23 120.62 112.24 120.93 112.25 121.23 112.26 121.54 112.27 121.85 112.28 122.15 112.29 122.46 112.3 122.77 112.31 123.08 112.32 123.38 112.33 123.69 112.34 124 112.35 124.3 112.36 124.61 112.37 124.92 112.38 125.22 112.39 125.53 112.4 125.84 112.42 126.15 112.43 126.45 112.44 126.76 112.45 127.07 112.46 127.37 112.47 127.68 112.49 127.99 112.5 128.29 112.51 128.6 112.52 128.91 112.53 129.22 112.55 129.52 112.56 129.83 112.57 130.14 112.59 130.44 112.6 130.75 112.61 131.06 112.63 131.36 112.64 131.67 112.65 131.98 112.67 132.29 112.68 132.59 112.7 132.9 112.71 133.21 112.72 133.51 112.74 133.82 112.75 134.13 112.77 134.43 112.78 134.74 112.8 135.05 112.82 135.36 112.83 135.66 112.85 135.97 112.86 136.28 112.88 136.58 112.9 136.89 112.91 137.2 112.93 137.5 112.95 137.81 112.96 138.12 112.98 138.43 113 138.73 113.02 139.04 113.04 139.35 113.05 139.65 113.07 139.96 113.09 140.27 113.11 140.57 113.13 140.88 113.15 141.19 113.17 141.5 113.19 141.8 113.21 142.11 113.23 142.42 113.25 142.72 113.27 143.03 113.29 143.34 113.31 143.64 113.33 143.95 113.35 144.26 113.38 144.57 113.4 144.87 113.42 145.18 113.44 145.49 113.47 145.79 113.49 146.1 113.51" id="fig-ce67f2e273bc49f19a4c36b3748aabce-element-46" stroke="#00E5B2" class="geometry color_hidden_layer:100-75-50-25-1"/>
        <path fill="none" d="M23.61,103.58 L 23.92 78.31 24.23 32.64 24.53 99.13 24.84 60.86 25.15 77.13 25.45 38.49 25.76 101.07 26.07 67.02 26.37 79.3 26.68 45.09 26.99 101.84 27.3 70.47 27.6 83.32 27.91 51.84 28.22 101.99 28.52 72.86 28.83 87.58 29.14 58.58 29.44 101.77 29.75 74.87 30.06 91.56 30.37 65.19 30.67 101.38 30.98 76.89 31.29 95.01 31.59 71.48 31.9 101.07 32.21 79.22 32.51 97.8 32.82 77.19 33.13 101.12 33.44 82 33.74 99.96 34.05 82.14 34.36 101.66 34.66 85.19 34.97 101.64 35.28 86.4 35.58 102.61 35.89 88.56 36.2 103.08 36.51 90.13 36.81 103.81 37.12 91.91 37.43 104.44 37.73 93.51 38.04 105.12 38.35 95.11 38.65 105.79 38.96 96.64 39.27 106.47 39.58 98.11 39.88 107.16 40.19 99.53 40.5 107.84 40.8 100.9 41.11 108.53 41.42 102.22 41.72 109.21 42.03 103.48 42.34 109.88 42.65 104.7 42.95 110.55 43.26 105.86 43.57 111.21 43.87 106.98 44.18 111.86 44.49 108.04 44.79 112.5 45.1 109.06 45.41 113.12 45.72 110.04 46.02 113.73 46.33 110.97 46.64 114.32 46.94 111.85 47.25 114.9 47.56 112.7 47.86 115.46 48.17 113.5 48.48 116 48.78 114.26 49.09 116.53 49.4 114.99 49.71 117.03 50.01 115.68 50.32 117.52 50.63 116.34 50.93 117.99 51.24 116.96 51.55 118.45 51.85 117.54 52.16 118.88 52.47 118.1 52.78 119.3 53.08 118.63 53.39 119.7 53.7 119.13 54 120.09 54.31 119.6 54.62 120.46 54.92 120.05 55.23 120.81 55.54 120.47 55.85 121.15 56.15 120.87 56.46 121.47 56.77 121.24 57.07 121.78 57.38 121.6 57.69 122.07 57.99 121.93 58.3 122.35 58.61 122.25 58.92 122.62 59.22 122.55 59.53 122.88 59.84 122.83 60.14 123.12 60.45 123.1 60.76 123.35 61.06 123.35 61.37 123.58 61.68 123.58 61.99 123.79 62.29 123.81 62.6 123.99 62.91 124.02 63.21 124.18 63.52 124.22 63.83 124.36 64.13 124.41 64.44 124.53 64.75 124.58 65.06 124.7 65.36 124.75 65.67 124.86 65.98 124.91 66.28 125.01 66.59 125.06 66.9 125.15 67.2 125.21 67.51 125.29 67.82 125.35 68.13 125.42 68.43 125.48 68.74 125.55 69.05 125.6 69.35 125.67 69.66 125.72 69.97 125.78 70.27 125.84 70.58 125.9 70.89 125.95 71.2 126.01 71.5 126.06 71.81 126.11 72.12 126.16 72.42 126.21 72.73 126.26 73.04 126.31 73.34 126.36 73.65 126.41 73.96 126.46 74.26 126.51 74.57 126.55 74.88 126.6 75.19 126.64 75.49 126.69 75.8 126.73 76.11 126.78 76.41 126.82 76.72 126.87 77.03 126.91 77.33 126.95 77.64 127 77.95 127.04 78.26 127.08 78.56 127.12 78.87 127.17 79.18 127.21 79.48 127.25 79.79 127.29 80.1 127.33 80.4 127.37 80.71 127.41 81.02 127.45 81.33 127.49 81.63 127.53 81.94 127.57 82.25 127.61 82.55 127.65 82.86 127.69 83.17 127.72 83.47 127.76 83.78 127.8 84.09 127.84 84.4 127.87 84.7 127.91 85.01 127.95 85.32 127.98 85.62 128.02 85.93 128.06 86.24 128.09 86.54 128.13 86.85 128.16 87.16 128.2 87.47 128.24 87.77 128.27 88.08 128.3 88.39 128.34 88.69 128.37 89 128.41 89.31 128.44 89.61 128.48 89.92 128.51 90.23 128.54 90.54 128.58 90.84 128.61 91.15 128.64 91.46 128.67 91.76 128.71 92.07 128.74 92.38 128.77 92.68 128.8 92.99 128.83 93.3 128.87 93.61 128.9 93.91 128.93 94.22 128.96 94.53 128.99 94.83 129.02 95.14 129.05 95.45 129.08 95.75 129.11 96.06 129.14 96.37 129.17 96.68 129.2 96.98 129.23 97.29 129.26 97.6 129.29 97.9 129.32 98.21 129.35 98.52 129.38 98.82 129.41 99.13 129.43 99.44 129.46 99.74 129.49 100.05 129.52 100.36 129.55 100.67 129.57 100.97 129.6 101.28 129.63 101.59 129.66 101.89 129.68 102.2 129.71 102.51 129.74 102.81 129.76 103.12 129.79 103.43 129.82 103.74 129.84 104.04 129.87 104.35 129.89 104.66 129.92 104.96 129.95 105.27 129.97 105.58 130 105.88 130.02 106.19 130.05 106.5 130.07 106.81 130.1 107.11 130.12 107.42 130.15 107.73 130.17 108.03 130.2 108.34 130.22 108.65 130.25 108.95 130.27 109.26 130.29 109.57 130.32 109.88 130.34 110.18 130.36 110.49 130.39 110.8 130.41 111.1 130.44 111.41 130.46 111.72 130.48 112.02 130.5 112.33 130.53 112.64 130.55 112.95 130.57 113.25 130.59 113.56 130.62 113.87 130.64 114.17 130.66 114.48 130.68 114.79 130.71 115.09 130.73 115.4 130.75 115.71 130.77 116.02 130.79 116.32 130.81 116.63 130.84 116.94 130.86 117.24 130.88 117.55 130.9 117.86 130.92 118.16 130.94 118.47 130.96 118.78 130.98 119.09 131 119.39 131.02 119.7 131.04 120.01 131.06 120.31 131.08 120.62 131.1 120.93 131.12 121.23 131.14 121.54 131.16 121.85 131.18 122.15 131.2 122.46 131.22 122.77 131.24 123.08 131.26 123.38 131.28 123.69 131.3 124 131.32 124.3 131.34 124.61 131.36 124.92 131.38 125.22 131.4 125.53 131.41 125.84 131.43 126.15 131.45 126.45 131.47 126.76 131.49 127.07 131.51 127.37 131.52 127.68 131.54 127.99 131.56 128.29 131.58 128.6 131.6 128.91 131.61 129.22 131.63 129.52 131.65 129.83 131.67 130.14 131.68 130.44 131.7 130.75 131.72 131.06 131.74 131.36 131.75 131.67 131.77 131.98 131.79 132.29 131.8 132.59 131.82 132.9 131.84 133.21 131.86 133.51 131.87 133.82 131.89 134.13 131.91 134.43 131.92 134.74 131.94 135.05 131.95 135.36 131.97 135.66 131.99 135.97 132 136.28 132.02 136.58 132.04 136.89 132.05 137.2 132.07 137.5 132.08 137.81 132.1 138.12 132.11 138.43 132.13 138.73 132.15 139.04 132.16 139.35 132.18 139.65 132.19 139.96 132.21 140.27 132.22 140.57 132.24 140.88 132.25 141.19 132.27 141.5 132.28 141.8 132.3 142.11 132.31 142.42 132.33 142.72 132.34 143.03 132.36 143.34 132.37 143.64 132.39 143.95 132.4 144.26 132.41 144.57 132.43 144.87 132.44 145.18 132.46 145.49 132.47 145.79 132.49 146.1 132.5" id="fig-ce67f2e273bc49f19a4c36b3748aabce-element-47" stroke="#9E9E9E" class="geometry color_hidden_layer:200-200-1"/>
        <path fill="none" d="M23.61,110.91 L 23.92 110.92 24.23 110.92 24.53 110.93 24.84 110.94 25.15 110.94 25.45 110.95 25.76 110.95 26.07 110.96 26.37 110.96 26.68 110.97 26.99 110.97 27.3 110.98 27.6 110.98 27.91 110.99 28.22 110.99 28.52 111 28.83 111 29.14 111.01 29.44 111.01 29.75 111.02 30.06 111.02 30.37 111.02 30.67 111.03 30.98 111.03 31.29 111.04 31.59 111.04 31.9 111.04 32.21 111.05 32.51 111.05 32.82 111.06 33.13 111.06 33.44 111.06 33.74 111.07 34.05 111.07 34.36 111.08 34.66 111.08 34.97 111.08 35.28 111.09 35.58 111.09 35.89 111.1 36.2 111.1 36.51 111.1 36.81 111.11 37.12 111.11 37.43 111.11 37.73 111.12 38.04 111.12 38.35 111.13 38.65 111.13 38.96 111.13 39.27 111.14 39.58 111.14 39.88 111.14 40.19 111.15 40.5 111.15 40.8 111.16 41.11 111.16 41.42 111.16 41.72 111.17 42.03 111.17 42.34 111.17 42.65 111.18 42.95 111.18 43.26 111.18 43.57 111.19 43.87 111.19 44.18 111.2 44.49 111.2 44.79 111.2 45.1 111.21 45.41 111.21 45.72 111.21 46.02 111.22 46.33 111.22 46.64 111.23 46.94 111.23 47.25 111.23 47.56 111.24 47.86 111.24 48.17 111.25 48.48 111.25 48.78 111.25 49.09 111.26 49.4 111.26 49.71 111.27 50.01 111.27 50.32 111.27 50.63 111.28 50.93 111.28 51.24 111.29 51.55 111.29 51.85 111.29 52.16 111.3 52.47 111.3 52.78 111.31 53.08 111.31 53.39 111.31 53.7 111.32 54 111.32 54.31 111.33 54.62 111.33 54.92 111.34 55.23 111.34 55.54 111.34 55.85 111.35 56.15 111.35 56.46 111.36 56.77 111.36 57.07 111.37 57.38 111.37 57.69 111.38 57.99 111.38 58.3 111.39 58.61 111.39 58.92 111.4 59.22 111.4 59.53 111.4 59.84 111.41 60.14 111.41 60.45 111.42 60.76 111.42 61.06 111.43 61.37 111.43 61.68 111.44 61.99 111.45 62.29 111.45 62.6 111.46 62.91 111.46 63.21 111.47 63.52 111.47 63.83 111.48 64.13 111.48 64.44 111.49 64.75 111.49 65.06 111.5 65.36 111.51 65.67 111.51 65.98 111.52 66.28 111.52 66.59 111.53 66.9 111.53 67.2 111.54 67.51 111.55 67.82 111.55 68.13 111.56 68.43 111.57 68.74 111.57 69.05 111.58 69.35 111.59 69.66 111.59 69.97 111.6 70.27 111.61 70.58 111.61 70.89 111.62 71.2 111.63 71.5 111.63 71.81 111.64 72.12 111.65 72.42 111.65 72.73 111.66 73.04 111.67 73.34 111.68 73.65 111.68 73.96 111.69 74.26 111.7 74.57 111.71 74.88 111.71 75.19 111.72 75.49 111.73 75.8 111.74 76.11 111.75 76.41 111.75 76.72 111.76 77.03 111.77 77.33 111.78 77.64 111.79 77.95 111.8 78.26 111.81 78.56 111.81 78.87 111.82 79.18 111.83 79.48 111.84 79.79 111.85 80.1 111.86 80.4 111.87 80.71 111.88 81.02 111.89 81.33 111.9 81.63 111.91 81.94 111.92 82.25 111.93 82.55 111.94 82.86 111.95 83.17 111.96 83.47 111.97 83.78 111.98 84.09 111.99 84.4 112 84.7 112.01 85.01 112.02 85.32 112.03 85.62 112.05 85.93 112.06 86.24 112.07 86.54 112.08 86.85 112.09 87.16 112.1 87.47 112.11 87.77 112.13 88.08 112.14 88.39 112.15 88.69 112.16 89 112.18 89.31 112.19 89.61 112.2 89.92 112.21 90.23 112.23 90.54 112.24 90.84 112.25 91.15 112.27 91.46 112.28 91.76 112.29 92.07 112.31 92.38 112.32 92.68 112.34 92.99 112.35 93.3 112.37 93.61 112.38 93.91 112.4 94.22 112.41 94.53 112.42 94.83 112.44 95.14 112.46 95.45 112.47 95.75 112.49 96.06 112.5 96.37 112.52 96.68 112.53 96.98 112.55 97.29 112.57 97.6 112.58 97.9 112.6 98.21 112.62 98.52 112.63 98.82 112.65 99.13 112.67 99.44 112.69 99.74 112.7 100.05 112.72 100.36 112.74 100.67 112.76 100.97 112.78 101.28 112.79 101.59 112.81 101.89 112.83 102.2 112.85 102.51 112.87 102.81 112.89 103.12 112.91 103.43 112.93 103.74 112.95 104.04 112.97 104.35 112.99 104.66 113.01 104.96 113.03 105.27 113.05 105.58 113.07 105.88 113.09 106.19 113.11 106.5 113.13 106.81 113.16 107.11 113.18 107.42 113.2 107.73 113.22 108.03 113.24 108.34 113.27 108.65 113.29 108.95 113.31 109.26 113.34 109.57 113.36 109.88 113.38 110.18 113.41 110.49 113.43 110.8 113.45 111.1 113.48 111.41 113.5 111.72 113.53 112.02 113.55 112.33 113.58 112.64 113.6 112.95 113.63 113.25 113.65 113.56 113.68 113.87 113.71 114.17 113.73 114.48 113.76 114.79 113.78 115.09 113.81 115.4 113.84 115.71 113.87 116.02 113.89 116.32 113.92 116.63 113.95 116.94 113.98 117.24 114 117.55 114.03 117.86 114.06 118.16 114.09 118.47 114.12 118.78 114.15 119.09 114.18 119.39 114.21 119.7 114.24 120.01 114.27 120.31 114.3 120.62 114.33 120.93 114.36 121.23 114.39 121.54 114.42 121.85 114.45 122.15 114.48 122.46 114.51 122.77 114.55 123.08 114.58 123.38 114.61 123.69 114.64 124 114.67 124.3 114.71 124.61 114.74 124.92 114.77 125.22 114.81 125.53 114.84 125.84 114.87 126.15 114.91 126.45 114.94 126.76 114.98 127.07 115.01 127.37 115.05 127.68 115.08 127.99 115.12 128.29 115.15 128.6 115.19 128.91 115.22 129.22 115.26 129.52 115.29 129.83 115.33 130.14 115.37 130.44 115.4 130.75 115.44 131.06 115.48 131.36 115.51 131.67 115.55 131.98 115.59 132.29 115.62 132.59 115.66 132.9 115.7 133.21 115.74 133.51 115.78 133.82 115.81 134.13 115.85 134.43 115.89 134.74 115.93 135.05 115.97 135.36 116.01 135.66 116.05 135.97 116.09 136.28 116.13 136.58 116.17 136.89 116.21 137.2 116.25 137.5 116.29 137.81 116.33 138.12 116.37 138.43 116.41 138.73 116.45 139.04 116.49 139.35 116.53 139.65 116.57 139.96 116.61 140.27 116.65 140.57 116.7 140.88 116.74 141.19 116.78 141.5 116.82 141.8 116.86 142.11 116.9 142.42 116.95 142.72 116.99 143.03 117.03 143.34 117.07 143.64 117.12 143.95 117.16 144.26 117.2 144.57 117.24 144.87 117.29 145.18 117.33 145.49 117.37 145.79 117.41 146.1 117.46" id="fig-ce67f2e273bc49f19a4c36b3748aabce-element-48" stroke="#D4CA3A" class="geometry color_hidden_layer:3-1"/>
        <path fill="none" d="M23.61,98.94 L 23.92 99.9 24.23 105.48 24.53 104.9 24.84 106.78 25.15 106.26 25.45 107.6 25.76 107.15 26.07 108.25 26.37 107.86 26.68 108.81 26.99 108.48 27.3 109.32 27.6 109.03 27.91 109.79 28.22 109.54 28.52 110.23 28.83 110.02 29.14 110.65 29.44 110.46 29.75 111.04 30.06 110.88 30.37 111.42 30.67 111.28 30.98 111.78 31.29 111.66 31.59 112.13 31.9 112.02 32.21 112.46 32.51 112.36 32.82 112.78 33.13 112.69 33.44 113.08 33.74 113.01 34.05 113.38 34.36 113.31 34.66 113.66 34.97 113.6 35.28 113.94 35.58 113.89 35.89 114.21 36.2 114.16 36.51 114.47 36.81 114.42 37.12 114.72 37.43 114.68 37.73 114.96 38.04 114.93 38.35 115.2 38.65 115.17 38.96 115.44 39.27 115.41 39.58 115.67 39.88 115.64 40.19 115.89 40.5 115.86 40.8 116.11 41.11 116.08 41.42 116.32 41.72 116.3 42.03 116.54 42.34 116.51 42.65 116.74 42.95 116.72 43.26 116.95 43.57 116.93 43.87 117.15 44.18 117.13 44.49 117.35 44.79 117.33 45.1 117.55 45.41 117.53 45.72 117.75 46.02 117.73 46.33 117.94 46.64 117.92 46.94 118.14 47.25 118.12 47.56 118.33 47.86 118.31 48.17 118.52 48.48 118.51 48.78 118.71 49.09 118.7 49.4 118.9 49.71 118.89 50.01 119.09 50.32 119.08 50.63 119.28 50.93 119.27 51.24 119.47 51.55 119.46 51.85 119.66 52.16 119.65 52.47 119.84 52.78 119.84 53.08 120.03 53.39 120.03 53.7 120.21 54 120.22 54.31 120.4 54.62 120.41 54.92 120.58 55.23 120.6 55.54 120.77 55.85 120.79 56.15 120.95 56.46 120.97 56.77 121.13 57.07 121.16 57.38 121.31 57.69 121.35 57.99 121.49 58.3 121.53 58.61 121.67 58.92 121.71 59.22 121.85 59.53 121.89 59.84 122.02 60.14 122.07 60.45 122.2 60.76 122.25 61.06 122.37 61.37 122.42 61.68 122.54 61.99 122.59 62.29 122.7 62.6 122.76 62.91 122.87 63.21 122.93 63.52 123.03 63.83 123.09 64.13 123.19 64.44 123.25 64.75 123.34 65.06 123.4 65.36 123.49 65.67 123.55 65.98 123.64 66.28 123.7 66.59 123.78 66.9 123.85 67.2 123.93 67.51 123.99 67.82 124.06 68.13 124.13 68.43 124.2 68.74 124.26 69.05 124.33 69.35 124.39 69.66 124.45 69.97 124.51 70.27 124.58 70.58 124.64 70.89 124.7 71.2 124.76 71.5 124.82 71.81 124.87 72.12 124.93 72.42 124.98 72.73 125.04 73.04 125.1 73.34 125.15 73.65 125.2 73.96 125.26 74.26 125.31 74.57 125.36 74.88 125.41 75.19 125.46 75.49 125.51 75.8 125.56 76.11 125.61 76.41 125.66 76.72 125.71 77.03 125.75 77.33 125.8 77.64 125.85 77.95 125.89 78.26 125.94 78.56 125.99 78.87 126.03 79.18 126.08 79.48 126.12 79.79 126.17 80.1 126.21 80.4 126.25 80.71 126.3 81.02 126.34 81.33 126.38 81.63 126.43 81.94 126.47 82.25 126.51 82.55 126.55 82.86 126.59 83.17 126.63 83.47 126.67 83.78 126.71 84.09 126.75 84.4 126.79 84.7 126.83 85.01 126.87 85.32 126.91 85.62 126.95 85.93 126.99 86.24 127.03 86.54 127.07 86.85 127.1 87.16 127.14 87.47 127.18 87.77 127.21 88.08 127.25 88.39 127.29 88.69 127.32 89 127.36 89.31 127.4 89.61 127.43 89.92 127.47 90.23 127.5 90.54 127.54 90.84 127.57 91.15 127.61 91.46 127.64 91.76 127.67 92.07 127.71 92.38 127.74 92.68 127.77 92.99 127.81 93.3 127.84 93.61 127.87 93.91 127.9 94.22 127.94 94.53 127.97 94.83 128 95.14 128.03 95.45 128.06 95.75 128.1 96.06 128.13 96.37 128.16 96.68 128.19 96.98 128.22 97.29 128.25 97.6 128.28 97.9 128.31 98.21 128.34 98.52 128.37 98.82 128.4 99.13 128.43 99.44 128.46 99.74 128.49 100.05 128.52 100.36 128.54 100.67 128.57 100.97 128.6 101.28 128.63 101.59 128.66 101.89 128.68 102.2 128.71 102.51 128.74 102.81 128.77 103.12 128.8 103.43 128.82 103.74 128.85 104.04 128.88 104.35 128.9 104.66 128.93 104.96 128.96 105.27 128.98 105.58 129.01 105.88 129.03 106.19 129.06 106.5 129.09 106.81 129.11 107.11 129.14 107.42 129.16 107.73 129.19 108.03 129.21 108.34 129.24 108.65 129.26 108.95 129.29 109.26 129.31 109.57 129.34 109.88 129.36 110.18 129.39 110.49 129.41 110.8 129.43 111.1 129.46 111.41 129.48 111.72 129.51 112.02 129.53 112.33 129.55 112.64 129.58 112.95 129.6 113.25 129.62 113.56 129.65 113.87 129.67 114.17 129.69 114.48 129.71 114.79 129.74 115.09 129.76 115.4 129.78 115.71 129.8 116.02 129.83 116.32 129.85 116.63 129.87 116.94 129.89 117.24 129.92 117.55 129.94 117.86 129.96 118.16 129.98 118.47 130 118.78 130.02 119.09 130.05 119.39 130.07 119.7 130.09 120.01 130.11 120.31 130.13 120.62 130.15 120.93 130.17 121.23 130.19 121.54 130.21 121.85 130.23 122.15 130.25 122.46 130.27 122.77 130.3 123.08 130.32 123.38 130.34 123.69 130.36 124 130.38 124.3 130.4 124.61 130.42 124.92 130.44 125.22 130.46 125.53 130.47 125.84 130.49 126.15 130.51 126.45 130.53 126.76 130.55 127.07 130.57 127.37 130.59 127.68 130.61 127.99 130.63 128.29 130.65 128.6 130.67 128.91 130.69 129.22 130.71 129.52 130.72 129.83 130.74 130.14 130.76 130.44 130.78 130.75 130.8 131.06 130.82 131.36 130.84 131.67 130.85 131.98 130.87 132.29 130.89 132.59 130.91 132.9 130.93 133.21 130.94 133.51 130.96 133.82 130.98 134.13 131 134.43 131.02 134.74 131.03 135.05 131.05 135.36 131.07 135.66 131.09 135.97 131.1 136.28 131.12 136.58 131.14 136.89 131.15 137.2 131.17 137.5 131.19 137.81 131.21 138.12 131.22 138.43 131.24 138.73 131.26 139.04 131.27 139.35 131.29 139.65 131.31 139.96 131.32 140.27 131.34 140.57 131.36 140.88 131.37 141.19 131.39 141.5 131.41 141.8 131.42 142.11 131.44 142.42 131.46 142.72 131.47 143.03 131.49 143.34 131.5 143.64 131.52 143.95 131.54 144.26 131.55 144.57 131.57 144.87 131.58 145.18 131.6 145.49 131.62 145.79 131.63 146.1 131.65" id="fig-ce67f2e273bc49f19a4c36b3748aabce-element-49" stroke="#F6A6FF" class="geometry color_hidden_layer:200-100-1"/>
        <path fill="none" d="M23.61,106.97 L 23.92 107.59 24.23 108.13 24.53 108.58 24.84 108.97 25.15 109.3 25.45 109.58 25.76 109.82 26.07 110.02 26.37 110.19 26.68 110.34 26.99 110.46 27.3 110.57 27.6 110.65 27.91 110.73 28.22 110.79 28.52 110.85 28.83 110.89 29.14 110.93 29.44 110.96 29.75 110.99 30.06 111.02 30.37 111.04 30.67 111.05 30.98 111.07 31.29 111.08 31.59 111.09 31.9 111.1 32.21 111.11 32.51 111.11 32.82 111.12 33.13 111.12 33.44 111.13 33.74 111.13 34.05 111.13 34.36 111.13 34.66 111.14 34.97 111.14 35.28 111.14 35.58 111.14 35.89 111.14 36.2 111.14 36.51 111.14 36.81 111.14 37.12 111.14 37.43 111.14 37.73 111.15 38.04 111.15 38.35 111.15 38.65 111.15 38.96 111.15 39.27 111.15 39.58 111.15 39.88 111.15 40.19 111.15 40.5 111.15 40.8 111.15 41.11 111.15 41.42 111.15 41.72 111.15 42.03 111.15 42.34 111.15 42.65 111.15 42.95 111.15 43.26 111.15 43.57 111.15 43.87 111.15 44.18 111.15 44.49 111.15 44.79 111.15 45.1 111.15 45.41 111.15 45.72 111.15 46.02 111.15 46.33 111.15 46.64 111.15 46.94 111.15 47.25 111.15 47.56 111.15 47.86 111.15 48.17 111.15 48.48 111.15 48.78 111.15 49.09 111.15 49.4 111.15 49.71 111.15 50.01 111.15 50.32 111.15 50.63 111.15 50.93 111.15 51.24 111.15 51.55 111.15 51.85 111.15 52.16 111.15 52.47 111.15 52.78 111.15 53.08 111.15 53.39 111.15 53.7 111.15 54 111.15 54.31 111.15 54.62 111.15 54.92 111.15 55.23 111.15 55.54 111.15 55.85 111.15 56.15 111.15 56.46 111.15 56.77 111.15 57.07 111.15 57.38 111.15 57.69 111.15 57.99 111.15 58.3 111.15 58.61 111.15 58.92 111.15 59.22 111.15 59.53 111.15 59.84 111.15 60.14 111.15 60.45 111.15 60.76 111.15 61.06 111.15 61.37 111.15 61.68 111.15 61.99 111.15 62.29 111.15 62.6 111.15 62.91 111.15 63.21 111.15 63.52 111.15 63.83 111.15 64.13 111.15 64.44 111.15 64.75 111.15 65.06 111.15 65.36 111.15 65.67 111.15 65.98 111.15 66.28 111.15 66.59 111.15 66.9 111.15 67.2 111.15 67.51 111.15 67.82 111.15 68.13 111.15 68.43 111.15 68.74 111.15 69.05 111.15 69.35 111.15 69.66 111.15 69.97 111.15 70.27 111.15 70.58 111.15 70.89 111.15 71.2 111.15 71.5 111.15 71.81 111.15 72.12 111.15 72.42 111.15 72.73 111.15 73.04 111.15 73.34 111.15 73.65 111.15 73.96 111.15 74.26 111.15 74.57 111.15 74.88 111.15 75.19 111.15 75.49 111.15 75.8 111.15 76.11 111.15 76.41 111.15 76.72 111.15 77.03 111.15 77.33 111.15 77.64 111.15 77.95 111.15 78.26 111.15 78.56 111.15 78.87 111.15 79.18 111.15 79.48 111.15 79.79 111.15 80.1 111.15 80.4 111.15 80.71 111.15 81.02 111.15 81.33 111.15 81.63 111.15 81.94 111.15 82.25 111.15 82.55 111.15 82.86 111.15 83.17 111.15 83.47 111.15 83.78 111.15 84.09 111.15 84.4 111.15 84.7 111.15 85.01 111.15 85.32 111.15 85.62 111.15 85.93 111.15 86.24 111.15 86.54 111.15 86.85 111.15 87.16 111.15 87.47 111.15 87.77 111.15 88.08 111.15 88.39 111.15 88.69 111.15 89 111.15 89.31 111.15 89.61 111.15 89.92 111.15 90.23 111.15 90.54 111.15 90.84 111.15 91.15 111.15 91.46 111.15 91.76 111.15 92.07 111.15 92.38 111.15 92.68 111.15 92.99 111.15 93.3 111.15 93.61 111.15 93.91 111.15 94.22 111.15 94.53 111.15 94.83 111.15 95.14 111.15 95.45 111.15 95.75 111.15 96.06 111.15 96.37 111.15 96.68 111.15 96.98 111.15 97.29 111.15 97.6 111.15 97.9 111.15 98.21 111.15 98.52 111.15 98.82 111.15 99.13 111.15 99.44 111.15 99.74 111.15 100.05 111.15 100.36 111.15 100.67 111.15 100.97 111.15 101.28 111.15 101.59 111.15 101.89 111.15 102.2 111.15 102.51 111.15 102.81 111.15 103.12 111.15 103.43 111.15 103.74 111.15 104.04 111.15 104.35 111.15 104.66 111.15 104.96 111.15 105.27 111.15 105.58 111.15 105.88 111.15 106.19 111.15 106.5 111.15 106.81 111.15 107.11 111.15 107.42 111.15 107.73 111.15 108.03 111.15 108.34 111.15 108.65 111.15 108.95 111.15 109.26 111.15 109.57 111.15 109.88 111.15 110.18 111.15 110.49 111.15 110.8 111.15 111.1 111.15 111.41 111.15 111.72 111.15 112.02 111.15 112.33 111.15 112.64 111.15 112.95 111.15 113.25 111.15 113.56 111.15 113.87 111.15 114.17 111.15 114.48 111.15 114.79 111.15 115.09 111.15 115.4 111.15 115.71 111.15 116.02 111.15 116.32 111.15 116.63 111.15 116.94 111.15 117.24 111.15 117.55 111.15 117.86 111.15 118.16 111.15 118.47 111.15 118.78 111.15 119.09 111.15 119.39 111.15 119.7 111.15 120.01 111.15 120.31 111.15 120.62 111.15 120.93 111.15 121.23 111.15 121.54 111.15 121.85 111.15 122.15 111.15 122.46 111.15 122.77 111.15 123.08 111.15 123.38 111.15 123.69 111.15 124 111.15 124.3 111.15 124.61 111.15 124.92 111.15 125.22 111.15 125.53 111.15 125.84 111.15 126.15 111.15 126.45 111.15 126.76 111.15 127.07 111.15 127.37 111.15 127.68 111.15 127.99 111.15 128.29 111.15 128.6 111.15 128.91 111.15 129.22 111.15 129.52 111.15 129.83 111.15 130.14 111.15 130.44 111.15 130.75 111.15 131.06 111.15 131.36 111.15 131.67 111.15 131.98 111.15 132.29 111.15 132.59 111.15 132.9 111.15 133.21 111.15 133.51 111.15 133.82 111.15 134.13 111.15 134.43 111.15 134.74 111.15 135.05 111.15 135.36 111.15 135.66 111.15 135.97 111.15 136.28 111.15 136.58 111.15 136.89 111.15 137.2 111.15 137.5 111.15 137.81 111.15 138.12 111.15 138.43 111.15 138.73 111.15 139.04 111.15 139.35 111.15 139.65 111.15 139.96 111.15 140.27 111.15 140.57 111.15 140.88 111.15 141.19 111.15 141.5 111.15 141.8 111.15 142.11 111.15 142.42 111.15 142.72 111.15 143.03 111.15 143.34 111.15 143.64 111.15 143.95 111.15 144.26 111.15 144.57 111.15 144.87 111.15 145.18 111.15 145.49 111.15 145.79 111.15 146.1 111.15" id="fig-ce67f2e273bc49f19a4c36b3748aabce-element-50" stroke="#FF5EA0" class="geometry color_hidden_layer:3-3-3-3-3-3-3-3-3-3-1"/>
      </g>
    </g>
  </g>
  <g class="guide ylabels" font-size="2.82" font-family="'PT Sans Caption','Helvetica Neue','Helvetica',sans-serif" fill="#6C606B" id="fig-ce67f2e273bc49f19a4c36b3748aabce-element-51">
    <text x="20.31" y="138.72" text-anchor="end" dy="0.35em" id="fig-ce67f2e273bc49f19a4c36b3748aabce-element-52">0</text>
    <text x="20.31" y="105.79" text-anchor="end" dy="0.35em" id="fig-ce67f2e273bc49f19a4c36b3748aabce-element-53">500</text>
    <text x="20.31" y="72.86" text-anchor="end" dy="0.35em" id="fig-ce67f2e273bc49f19a4c36b3748aabce-element-54">1000</text>
    <text x="20.31" y="39.93" text-anchor="end" dy="0.35em" id="fig-ce67f2e273bc49f19a4c36b3748aabce-element-55">1500</text>
    <text x="20.31" y="7" text-anchor="end" dy="0.35em" id="fig-ce67f2e273bc49f19a4c36b3748aabce-element-56">2000</text>
  </g>
  <g font-size="3.88" font-family="'PT Sans','Helvetica Neue','Helvetica',sans-serif" fill="#564A55" stroke="#000000" stroke-opacity="0.000" id="fig-ce67f2e273bc49f19a4c36b3748aabce-element-57">
    <text x="8.81" y="70.86" text-anchor="middle" dy="0.35em" transform="rotate(-90, 8.81, 72.86)" id="fig-ce67f2e273bc49f19a4c36b3748aabce-element-58">err</text>
  </g>
</g>
<defs>
<clipPath id="fig-ce67f2e273bc49f19a4c36b3748aabce-element-22">
  <path d="M21.31,5 L 148.1 5 148.1 140.72 21.31 140.72" />
</clipPath
></defs>
</svg>
