<?xml version="1.0" encoding="UTF-8"?>
<svg xmlns="http://www.w3.org/2000/svg"
     xmlns:xlink="http://www.w3.org/1999/xlink"
     xmlns:gadfly="http://www.gadflyjl.org/ns"
     version="1.2"
     width="200mm" height="160mm" viewBox="0 0 200 160"
     stroke="none"
     fill="#000000"
     stroke-width="0.3"
     font-size="3.88"
>
<g class="plotroot xscalable yscalable" id="fig-cf5300ec97744df6a679acca933c126f-element-1">
  <g font-size="3.88" font-family="'PT Sans','Helvetica Neue','Helvetica',sans-serif" fill="#564A55" stroke="#000000" stroke-opacity="0.000" id="fig-cf5300ec97744df6a679acca933c126f-element-2">
    <text x="82.78" y="148.39" text-anchor="middle" dy="0.6em">ite</text>
  </g>
  <g class="guide xlabels" font-size="2.82" font-family="'PT Sans Caption','Helvetica Neue','Helvetica',sans-serif" fill="#6C606B" id="fig-cf5300ec97744df6a679acca933c126f-element-3">
    <text x="18.28" y="141.72" text-anchor="middle" dy="0.6em">0</text>
    <text x="31.18" y="141.72" text-anchor="middle" dy="0.6em">60</text>
    <text x="44.08" y="141.72" text-anchor="middle" dy="0.6em">120</text>
    <text x="56.98" y="141.72" text-anchor="middle" dy="0.6em">180</text>
    <text x="69.88" y="141.72" text-anchor="middle" dy="0.6em">240</text>
    <text x="82.78" y="141.72" text-anchor="middle" dy="0.6em">300</text>
    <text x="95.68" y="141.72" text-anchor="middle" dy="0.6em">360</text>
    <text x="108.58" y="141.72" text-anchor="middle" dy="0.6em">420</text>
    <text x="121.48" y="141.72" text-anchor="middle" dy="0.6em">480</text>
    <text x="134.37" y="141.72" text-anchor="middle" dy="0.6em">540</text>
    <text x="147.27" y="141.72" text-anchor="middle" dy="0.6em">600</text>
  </g>
  <g class="guide colorkey" id="fig-cf5300ec97744df6a679acca933c126f-element-4">
    <g fill="#4C404B" font-size="2.82" font-family="'PT Sans','Helvetica Neue','Helvetica',sans-serif" id="fig-cf5300ec97744df6a679acca933c126f-element-5">
      <text x="153.09" y="69.23" dy="0.35em" id="fig-cf5300ec97744df6a679acca933c126f-element-6" class="color_batch:40_hidden_layer:200-100-1">batch:40_hidden_layer:200-100-1</text>
      <text x="153.09" y="72.86" dy="0.35em" id="fig-cf5300ec97744df6a679acca933c126f-element-7" class="color_batch:5_hidden_layer:200-100-1">batch:5_hidden_layer:200-100-1</text>
      <text x="153.09" y="76.48" dy="0.35em" id="fig-cf5300ec97744df6a679acca933c126f-element-8" class="color_batch:100_hidden_layer:200-100-1">batch:100_hidden_layer:200-100-1</text>
      <text x="153.09" y="80.11" dy="0.35em" id="fig-cf5300ec97744df6a679acca933c126f-element-9" class="color_hidden_layer:200-100-1">hidden_layer:200-100-1</text>
    </g>
    <g stroke="#000000" stroke-opacity="0.000" id="fig-cf5300ec97744df6a679acca933c126f-element-10">
      <rect x="150.27" y="68.32" width="1.81" height="1.81" id="fig-cf5300ec97744df6a679acca933c126f-element-11" fill="#00BFFF" class="color_batch:40_hidden_layer:200-100-1"/>
      <rect x="150.27" y="71.95" width="1.81" height="1.81" id="fig-cf5300ec97744df6a679acca933c126f-element-12" fill="#D4CA3A" class="color_batch:5_hidden_layer:200-100-1"/>
      <rect x="150.27" y="75.58" width="1.81" height="1.81" id="fig-cf5300ec97744df6a679acca933c126f-element-13" fill="#FF5EA0" class="color_batch:100_hidden_layer:200-100-1"/>
      <rect x="150.27" y="79.2" width="1.81" height="1.81" id="fig-cf5300ec97744df6a679acca933c126f-element-14" fill="#00E5B2" class="color_hidden_layer:200-100-1"/>
    </g>
    <g fill="#362A35" font-size="3.88" font-family="'PT Sans','Helvetica Neue','Helvetica',sans-serif" stroke="#000000" stroke-opacity="0.000" id="fig-cf5300ec97744df6a679acca933c126f-element-15">
      <text x="150.27" y="65.41" id="fig-cf5300ec97744df6a679acca933c126f-element-16">params</text>
    </g>
  </g>
  <g clip-path="url(#fig-cf5300ec97744df6a679acca933c126f-element-18)" id="fig-cf5300ec97744df6a679acca933c126f-element-17">
    <g pointer-events="visible" opacity="1" fill="#000000" fill-opacity="0.000" stroke="#000000" stroke-opacity="0.000" class="guide background" id="fig-cf5300ec97744df6a679acca933c126f-element-19">
      <rect x="16.28" y="5" width="132.99" height="135.72" id="fig-cf5300ec97744df6a679acca933c126f-element-20"/>
    </g>
    <g class="guide ygridlines xfixed" stroke-dasharray="0.5,0.5" stroke-width="0.2" stroke="#D0D0E0" id="fig-cf5300ec97744df6a679acca933c126f-element-21">
      <path fill="none" d="M16.28,138.72 L 149.27 138.72" id="fig-cf5300ec97744df6a679acca933c126f-element-22"/>
      <path fill="none" d="M16.28,105.79 L 149.27 105.79" id="fig-cf5300ec97744df6a679acca933c126f-element-23"/>
      <path fill="none" d="M16.28,72.86 L 149.27 72.86" id="fig-cf5300ec97744df6a679acca933c126f-element-24"/>
      <path fill="none" d="M16.28,39.93 L 149.27 39.93" id="fig-cf5300ec97744df6a679acca933c126f-element-25"/>
      <path fill="none" d="M16.28,7 L 149.27 7" id="fig-cf5300ec97744df6a679acca933c126f-element-26"/>
    </g>
    <g class="guide xgridlines yfixed" stroke-dasharray="0.5,0.5" stroke-width="0.2" stroke="#D0D0E0" id="fig-cf5300ec97744df6a679acca933c126f-element-27">
      <path fill="none" d="M18.28,5 L 18.28 140.72" id="fig-cf5300ec97744df6a679acca933c126f-element-28"/>
      <path fill="none" d="M31.18,5 L 31.18 140.72" id="fig-cf5300ec97744df6a679acca933c126f-element-29"/>
      <path fill="none" d="M44.08,5 L 44.08 140.72" id="fig-cf5300ec97744df6a679acca933c126f-element-30"/>
      <path fill="none" d="M56.98,5 L 56.98 140.72" id="fig-cf5300ec97744df6a679acca933c126f-element-31"/>
      <path fill="none" d="M69.88,5 L 69.88 140.72" id="fig-cf5300ec97744df6a679acca933c126f-element-32"/>
      <path fill="none" d="M82.78,5 L 82.78 140.72" id="fig-cf5300ec97744df6a679acca933c126f-element-33"/>
      <path fill="none" d="M95.68,5 L 95.68 140.72" id="fig-cf5300ec97744df6a679acca933c126f-element-34"/>
      <path fill="none" d="M108.58,5 L 108.58 140.72" id="fig-cf5300ec97744df6a679acca933c126f-element-35"/>
      <path fill="none" d="M121.48,5 L 121.48 140.72" id="fig-cf5300ec97744df6a679acca933c126f-element-36"/>
      <path fill="none" d="M134.37,5 L 134.37 140.72" id="fig-cf5300ec97744df6a679acca933c126f-element-37"/>
      <path fill="none" d="M147.27,5 L 147.27 140.72" id="fig-cf5300ec97744df6a679acca933c126f-element-38"/>
    </g>
    <g class="plotpanel" id="fig-cf5300ec97744df6a679acca933c126f-element-39">
      <g stroke-width="0.3" fill="#000000" fill-opacity="0.000" stroke-dasharray="none" id="fig-cf5300ec97744df6a679acca933c126f-element-40">
        <path fill="none" d="M18.5,85.89 L 18.71 104.82 18.93 104.69 19.14 102.52 19.36 104.05 19.57 105.87 19.79 107.03 20 103.8 20.22 105.43 20.43 106.48 20.65 105.07 20.86 104.09 21.08 107.29 21.29 106.8 21.51 101.12 21.72 104.84 21.94 104.93 22.15 106.24 22.37 108.78 22.58 100.76 22.8 103.98 23.01 109.06 23.23 104.17 23.44 106.2 23.66 105.14 23.87 107.07 24.09 103.75 24.3 105.51 24.52 106.48 24.73 107.13 24.95 107.74 25.16 107.49 25.38 108.31 25.59 111.43 25.81 102.96 26.02 108.71 26.24 106.67 26.45 105.29 26.67 108.15 26.88 107.85 27.1 109.33 27.31 108.39 27.53 108.56 27.74 108.93 27.96 106.94 28.17 108.75 28.39 107.27 28.6 107.26 28.82 106.76 29.03 106.89 29.25 108.16 29.46 109.39 29.68 107.3 29.89 108.59 30.11 105.74 30.32 110.63 30.54 110.99 30.75 109.08 30.97 109.62 31.18 105.72 31.4 109.31 31.61 111.1 31.83 110.02 32.04 108.6 32.26 111.98 32.47 101.62 32.69 108.54 32.9 108.74 33.12 108.65 33.33 110.44 33.55 113.1 33.76 110.51 33.98 111.44 34.19 111.42 34.41 106.66 34.62 110.33 34.84 109.71 35.05 112.28 35.27 108.34 35.48 110.34 35.7 107.89 35.91 108.88 36.13 114.35 36.34 111.96 36.56 108.18 36.77 111.07 36.99 108.82 37.2 109.82 37.42 111.26 37.63 111.47 37.85 104.56 38.06 108.7 38.28 108.59 38.49 112.47 38.71 110.21 38.92 112.5 39.14 108.2 39.35 111.81 39.57 111.32 39.78 110.95 40 107.03 40.21 108.85 40.43 107.4 40.64 111.36 40.86 105.22 41.07 107.31 41.29 110.07 41.5 112.33 41.72 118.85 41.93 105.12 42.15 108.62 42.36 108.31 42.58 110.24 42.79 113.12 43.01 110.96 43.22 107.99 43.44 108.94 43.65 108.99 43.87 115.44 44.08 109.83 44.3 110.48 44.51 113.86 44.73 110.83 44.94 111.35 45.16 113.13 45.37 113.29 45.59 109.66 45.8 110.89 46.02 109.43 46.23 106.62 46.45 111.07 46.66 108.7 46.88 112.32 47.09 114.12 47.31 112.34 47.52 110.91 47.74 112.85 47.95 113.7 48.17 112.57 48.38 111.71 48.6 114.55 48.81 115.55 49.03 112.42 49.24 115.58 49.46 113.81 49.67 111.44 49.89 115.89 50.1 115.8 50.32 113.26 50.53 112.28 50.75 113.07 50.96 113.02 51.18 110.76 51.39 111.75 51.61 110.76 51.82 115.18 52.04 113.83 52.25 116.32 52.47 116.54 52.68 116.76 52.9 110.76 53.11 113.06 53.33 112 53.54 117.48 53.76 115.24 53.97 115.66 54.19 114.68 54.4 116.31 54.62 109.2 54.83 115.71 55.05 114.71 55.26 117.96 55.48 115.22 55.69 115 55.91 118.17 56.12 116.39 56.34 114.75 56.55 116.97 56.77 115.96 56.98 112.24 57.2 114.18 57.41 116.76 57.63 117.73 57.84 115.76 58.06 115.86 58.27 118.53 58.49 119.33 58.7 113.96 58.92 114.17 59.13 115.93 59.35 111.28 59.56 114.11 59.78 115.39 59.99 116.61 60.21 117.7 60.42 117.21 60.64 119.03 60.85 118.86 61.07 115.66 61.28 117.97 61.5 116 61.71 116.62 61.93 116.45 62.14 115.79 62.36 119.63 62.57 117.8 62.79 117.66 63 116.33 63.22 119.98 63.43 112.99 63.65 115.79 63.86 120.09 64.08 115.72 64.29 115.76 64.51 116.06 64.72 116.66 64.94 112.46 65.15 115.3 65.37 115.83 65.58 115.33 65.8 117.37 66.01 116.81 66.23 115.89 66.44 114.35 66.66 117.47 66.87 119.85 67.09 119.67 67.3 116.08 67.52 116.6 67.73 119.39 67.95 121.57 68.16 117.25 68.38 118.28 68.59 120.5 68.81 117.88 69.02 118.28 69.24 120.88 69.45 117.34 69.67 118.99 69.88 119.39 70.1 113.91 70.31 121.35 70.53 120.57 70.74 117.27 70.96 121.14 71.17 121.76 71.39 119.43 71.6 117.01 71.82 118.47 72.03 118.43 72.25 117.18 72.46 123.51 72.68 123.32 72.89 118.42 73.11 115.08 73.32 118.04 73.54 120.32 73.75 119.77 73.96 114.83 74.18 121.66 74.39 120.11 74.61 121.63 74.82 117.42 75.04 118.18 75.25 123.06 75.47 119.4 75.68 115.82 75.9 117.04 76.11 123.82 76.33 118.37 76.54 119.18 76.76 118.47 76.97 118.75 77.19 119.36 77.4 122.13 77.62 115.29 77.83 118.21 78.05 116.74 78.26 122.15 78.48 116.63 78.69 118.42 78.91 120.15 79.12 120.2 79.34 123.19 79.55 112.11 79.77 119.37 79.98 122.74 80.2 119.72 80.41 120.48 80.63 120.61 80.84 123.85 81.06 126.02 81.27 119.8 81.49 119.2 81.7 121.47 81.92 125.43 82.13 122.36 82.35 113.83 82.56 123.24 82.78 122.27 82.99 123.14 83.21 115.57 83.42 124.42 83.64 122.57 83.85 118.38 84.07 121.34 84.28 122.34 84.5 114.24 84.71 116.67 84.93 120.72 85.14 125.02 85.36 124.66 85.57 126.08 85.79 125.41 86 122.23 86.22 124.6 86.43 116.72 86.65 117.8 86.86 126.05 87.08 118.65 87.29 125.04 87.51 124.4 87.72 120.88 87.94 116.46 88.15 122.01 88.37 123.09 88.58 125.33 88.8 117.51 89.01 122.46 89.23 125.09 89.44 120 89.66 120.53 89.87 124.36 90.09 119.99 90.3 121.63 90.52 120.91 90.73 125.13 90.95 122.41 91.16 119.6 91.38 124.72 91.59 122.35 91.81 119.73 92.02 120.69 92.24 121.64 92.45 119.43 92.67 122.38 92.88 120.52 93.1 119.85 93.31 121.37 93.53 129.24 93.74 119.91 93.96 121.65 94.17 124.05 94.39 124.32 94.6 123.55 94.82 123.95 95.03 121.91 95.25 126.32 95.46 122.11 95.68 120.97 95.89 119.27 96.11 126.68 96.32 119.69 96.54 123.85 96.75 126.29 96.97 122.37 97.18 124.97 97.4 117.45 97.61 119.04 97.83 124.99 98.04 126.74 98.26 122.48 98.47 123.31 98.69 127.14 98.9 122.49 99.12 125.18 99.33 124.23 99.55 120.5 99.76 124.96 99.98 124.48 100.19 124.42 100.41 123.74 100.62 124.04 100.84 124.13 101.05 121.57 101.27 128.37 101.48 119.09 101.7 123.33 101.91 122.58 102.13 127.32 102.34 122.39 102.56 124.97 102.77 122.19 102.99 124.15 103.2 127.94 103.42 125.96 103.63 120.44 103.85 124.71 104.06 125.02 104.28 114.4 104.49 122.59 104.71 124.78 104.92 120.36 105.14 126.5 105.35 123.75 105.57 125.79 105.78 125.14 106 122.03 106.21 119.2 106.43 123.21 106.64 120.71 106.86 126.76 107.07 120.18 107.29 124.88 107.5 126.81 107.72 126.53 107.93 126.06 108.15 127.05 108.36 123.24 108.58 124.66 108.79 123.15 109.01 124.3 109.22 122.99 109.44 126.68 109.65 124.63 109.87 122.33 110.08 122.06 110.3 121.96 110.51 124.99 110.73 123.06 110.94 128.94 111.16 127.58 111.37 127.5 111.59 122.09 111.8 125.5 112.02 123.79 112.23 124.17 112.45 121.24 112.66 122.05 112.88 125.93 113.09 125.43 113.31 128.13 113.52 127.45 113.74 124.59 113.95 121.15 114.17 125.81 114.38 127.59 114.6 125.9 114.81 126.75 115.03 124.53 115.24 124.94 115.46 126.29 115.67 123.33 115.89 123.67 116.1 126.46 116.32 128.16 116.53 127.87 116.75 123.58 116.96 129.79 117.18 124.27 117.39 122.66 117.61 122.62 117.82 125.62 118.04 123.96 118.25 128.05 118.47 122.97 118.68 127.18 118.9 128.54 119.11 125.4 119.33 120.67 119.54 126.37 119.76 125.06 119.97 127.05 120.19 120.15 120.4 126.63 120.62 125.93 120.83 116.91 121.05 127.15 121.26 123.36 121.48 126.47 121.69 123.71 121.91 123.61 122.12 126.72 122.34 125.51 122.55 125 122.77 127.05 122.98 129.67 123.2 122.52 123.41 124.9 123.63 125.13 123.84 130.79 124.06 129.62 124.27 128.13 124.49 122.01 124.7 123.87 124.92 126.01 125.13 127.81 125.35 129.3 125.56 124.23 125.78 129.23 125.99 125.52 126.21 125.13 126.42 123.5 126.64 127.46 126.85 124.87 127.07 127.75 127.28 128.43 127.5 126.8 127.71 128.43 127.93 129.02 128.14 122.09 128.36 126.47 128.57 119.39 128.79 126.39 129 123.14 129.21 122.57 129.43 128.39 129.64 123.75 129.86 129.53 130.07 124.5 130.29 128.05 130.5 128.38 130.72 126.46 130.93 126.21 131.15 126.25 131.36 125.21 131.58 128.58 131.79 126.98 132.01 125.49 132.22 124.03 132.44 129.27 132.65 126.33 132.87 126.52 133.08 127.53 133.3 124.49 133.51 119.05 133.73 122.91 133.94 125.5 134.16 128.93 134.37 130.24 134.59 125.06 134.8 125.64 135.02 127.61 135.23 122.17 135.45 128.56 135.66 128.87 135.88 121.15 136.09 128.23 136.31 126.05 136.52 126.23 136.74 122.9 136.95 128.84 137.17 126.63 137.38 131.38 137.6 122.27 137.81 127.51 138.03 123.28 138.24 124.78 138.46 125.76 138.67 125.4 138.89 128.34 139.1 124.31 139.32 126.19 139.53 128.3 139.75 128.6 139.96 129.9 140.18 128.66 140.39 132.08 140.61 128.63 140.82 124.02 141.04 124.88 141.25 129.17 141.47 124.58 141.68 130.38 141.9 125.47 142.11 127.84 142.33 128.39 142.54 132.05 142.76 128.07 142.97 129.23 143.19 128.1 143.4 129.08 143.62 130.57 143.83 131.52 144.05 127.33 144.26 125.01 144.48 126.15 144.69 129.95 144.91 126.64 145.12 126.77 145.34 127.69 145.55 128.12 145.77 127.26 145.98 126.42 146.2 125.97 146.41 130.08 146.63 128.22 146.84 125.57 147.06 126.64 147.27 129.14" id="fig-cf5300ec97744df6a679acca933c126f-element-41" class="geometry color_batch:40_hidden_layer:200-100-1" stroke="#00BFFF"/>
        <path fill="none" d="M18.5,72.94 L 18.71 98.64 18.93 107.39 19.14 107.85 19.36 107.91 19.57 107.98 19.79 108.04 20 108.1 20.22 108.16 20.43 108.23 20.65 108.29 20.86 108.35 21.08 108.41 21.29 108.47 21.51 108.53 21.72 108.59 21.94 108.65 22.15 108.71 22.37 108.77 22.58 108.83 22.8 108.89 23.01 108.95 23.23 109.01 23.44 109.07 23.66 109.13 23.87 109.18 24.09 109.24 24.3 109.3 24.52 109.36 24.73 109.42 24.95 109.47 25.16 109.53 25.38 109.59 25.59 109.64 25.81 109.7 26.02 109.76 26.24 109.81 26.45 109.87 26.67 109.93 26.88 109.98 27.1 110.04 27.31 110.1 27.53 110.15 27.74 110.21 27.96 110.26 28.17 110.32 28.39 110.37 28.6 110.43 28.82 110.48 29.03 110.54 29.25 110.6 29.46 110.65 29.68 110.71 29.89 110.76 30.11 110.81 30.32 110.87 30.54 110.92 30.75 110.98 30.97 111.03 31.18 111.09 31.4 111.14 31.61 111.2 31.83 111.25 32.04 111.3 32.26 111.36 32.47 111.41 32.69 111.47 32.9 111.52 33.12 111.57 33.33 111.63 33.55 111.68 33.76 111.74 33.98 111.79 34.19 111.84 34.41 111.9 34.62 111.95 34.84 112 35.05 112.06 35.27 112.11 35.48 112.16 35.7 112.22 35.91 112.27 36.13 112.32 36.34 112.38 36.56 112.43 36.77 112.48 36.99 112.53 37.2 112.59 37.42 112.64 37.63 112.69 37.85 112.75 38.06 112.8 38.28 112.85 38.49 112.9 38.71 112.96 38.92 113.01 39.14 113.06 39.35 113.11 39.57 113.17 39.78 113.22 40 113.27 40.21 113.32 40.43 113.38 40.64 113.43 40.86 113.48 41.07 113.53 41.29 113.58 41.5 113.64 41.72 113.69 41.93 113.74 42.15 113.79 42.36 113.84 42.58 113.89 42.79 113.95 43.01 114 43.22 114.05 43.44 114.1 43.65 114.15 43.87 114.2 44.08 114.26 44.3 114.31 44.51 114.36 44.73 114.41 44.94 114.46 45.16 114.51 45.37 114.56 45.59 114.61 45.8 114.66 46.02 114.71 46.23 114.77 46.45 114.82 46.66 114.87 46.88 114.92 47.09 114.97 47.31 115.02 47.52 115.07 47.74 115.12 47.95 115.17 48.17 115.22 48.38 115.27 48.6 115.32 48.81 115.37 49.03 115.42 49.24 115.47 49.46 115.52 49.67 115.57 49.89 115.62 50.1 115.67 50.32 115.72 50.53 115.77 50.75 115.82 50.96 115.87 51.18 115.92 51.39 115.97 51.61 116.02 51.82 116.06 52.04 116.11 52.25 116.16 52.47 116.21 52.68 116.26 52.9 116.31 53.11 116.36 53.33 116.41 53.54 116.45 53.76 116.5 53.97 116.55 54.19 116.6 54.4 116.65 54.62 116.69 54.83 116.74 55.05 116.79 55.26 116.84 55.48 116.89 55.69 116.93 55.91 116.98 56.12 117.03 56.34 117.07 56.55 117.12 56.77 117.17 56.98 117.22 57.2 117.26 57.41 117.31 57.63 117.36 57.84 117.4 58.06 117.45 58.27 117.5 58.49 117.54 58.7 117.59 58.92 117.63 59.13 117.68 59.35 117.73 59.56 117.77 59.78 117.82 59.99 117.86 60.21 117.91 60.42 117.95 60.64 118 60.85 118.05 61.07 118.09 61.28 118.14 61.5 118.18 61.71 118.23 61.93 118.27 62.14 118.31 62.36 118.36 62.57 118.4 62.79 118.45 63 118.49 63.22 118.54 63.43 118.58 63.65 118.62 63.86 118.67 64.08 118.71 64.29 118.76 64.51 118.8 64.72 118.84 64.94 118.89 65.15 118.93 65.37 118.97 65.58 119.01 65.8 119.06 66.01 119.1 66.23 119.14 66.44 119.19 66.66 119.23 66.87 119.27 67.09 119.31 67.3 119.35 67.52 119.4 67.73 119.44 67.95 119.48 68.16 119.52 68.38 119.56 68.59 119.6 68.81 119.65 69.02 119.69 69.24 119.73 69.45 119.77 69.67 119.81 69.88 119.85 70.1 119.89 70.31 119.93 70.53 119.97 70.74 120.01 70.96 120.05 71.17 120.09 71.39 120.13 71.6 120.17 71.82 120.21 72.03 120.25 72.25 120.29 72.46 120.33 72.68 120.37 72.89 120.41 73.11 120.45 73.32 120.49 73.54 120.53 73.75 120.57 73.96 120.6 74.18 120.64 74.39 120.68 74.61 120.72 74.82 120.76 75.04 120.8 75.25 120.83 75.47 120.87 75.68 120.91 75.9 120.95 76.11 120.98 76.33 121.02 76.54 121.06 76.76 121.1 76.97 121.13 77.19 121.17 77.4 121.21 77.62 121.24 77.83 121.28 78.05 121.32 78.26 121.35 78.48 121.39 78.69 121.43 78.91 121.46 79.12 121.5 79.34 121.53 79.55 121.57 79.77 121.61 79.98 121.64 80.2 121.68 80.41 121.71 80.63 121.75 80.84 121.78 81.06 121.82 81.27 121.85 81.49 121.89 81.7 121.92 81.92 121.96 82.13 121.99 82.35 122.03 82.56 122.06 82.78 122.09 82.99 122.13 83.21 122.16 83.42 122.2 83.64 122.23 83.85 122.26 84.07 122.3 84.28 122.33 84.5 122.36 84.71 122.4 84.93 122.43 85.14 122.46 85.36 122.49 85.57 122.53 85.79 122.56 86 122.59 86.22 122.63 86.43 122.66 86.65 122.69 86.86 122.72 87.08 122.75 87.29 122.79 87.51 122.82 87.72 122.85 87.94 122.88 88.15 122.91 88.37 122.94 88.58 122.98 88.8 123.01 89.01 123.04 89.23 123.07 89.44 123.1 89.66 123.13 89.87 123.16 90.09 123.19 90.3 123.22 90.52 123.25 90.73 123.28 90.95 123.31 91.16 123.34 91.38 123.37 91.59 123.4 91.81 123.43 92.02 123.46 92.24 123.49 92.45 123.52 92.67 123.55 92.88 123.58 93.1 123.61 93.31 123.64 93.53 123.67 93.74 123.7 93.96 123.73 94.17 123.76 94.39 123.78 94.6 123.81 94.82 123.84 95.03 123.87 95.25 123.9 95.46 123.93 95.68 123.96 95.89 123.98 96.11 124.01 96.32 124.04 96.54 124.07 96.75 124.09 96.97 124.12 97.18 124.15 97.4 124.18 97.61 124.2 97.83 124.23 98.04 124.26 98.26 124.29 98.47 124.31 98.69 124.34 98.9 124.37 99.12 124.39 99.33 124.42 99.55 124.45 99.76 124.47 99.98 124.5 100.19 124.53 100.41 124.55 100.62 124.58 100.84 124.61 101.05 124.63 101.27 124.66 101.48 124.68 101.7 124.71 101.91 124.74 102.13 124.76 102.34 124.79 102.56 124.81 102.77 124.84 102.99 124.86 103.2 124.89 103.42 124.91 103.63 124.94 103.85 124.96 104.06 124.99 104.28 125.01 104.49 125.04 104.71 125.06 104.92 125.09 105.14 125.11 105.35 125.14 105.57 125.16 105.78 125.19 106 125.21 106.21 125.23 106.43 125.26 106.64 125.28 106.86 125.31 107.07 125.33 107.29 125.35 107.5 125.38 107.72 125.4 107.93 125.43 108.15 125.45 108.36 125.47 108.58 125.5 108.79 125.52 109.01 125.54 109.22 125.57 109.44 125.59 109.65 125.61 109.87 125.64 110.08 125.66 110.3 125.68 110.51 125.7 110.73 125.73 110.94 125.75 111.16 125.77 111.37 125.79 111.59 125.82 111.8 125.84 112.02 125.86 112.23 125.88 112.45 125.91 112.66 125.93 112.88 125.95 113.09 125.97 113.31 125.99 113.52 126.02 113.74 126.04 113.95 126.06 114.17 126.08 114.38 126.1 114.6 126.12 114.81 126.15 115.03 126.17 115.24 126.19 115.46 126.21 115.67 126.23 115.89 126.25 116.1 126.27 116.32 126.29 116.53 126.32 116.75 126.34 116.96 126.36 117.18 126.38 117.39 126.4 117.61 126.42 117.82 126.44 118.04 126.46 118.25 126.48 118.47 126.5 118.68 126.52 118.9 126.54 119.11 126.56 119.33 126.58 119.54 126.6 119.76 126.62 119.97 126.64 120.19 126.66 120.4 126.68 120.62 126.7 120.83 126.72 121.05 126.74 121.26 126.76 121.48 126.78 121.69 126.8 121.91 126.82 122.12 126.84 122.34 126.86 122.55 126.88 122.77 126.9 122.98 126.92 123.2 126.94 123.41 126.96 123.63 126.98 123.84 127 124.06 127.02 124.27 127.03 124.49 127.05 124.7 127.07 124.92 127.09 125.13 127.11 125.35 127.13 125.56 127.15 125.78 127.17 125.99 127.18 126.21 127.2 126.42 127.22 126.64 127.24 126.85 127.26 127.07 127.28 127.28 127.3 127.5 127.31 127.71 127.33 127.93 127.35 128.14 127.37 128.36 127.39 128.57 127.4 128.79 127.42 129 127.44 129.21 127.46 129.43 127.48 129.64 127.49 129.86 127.51 130.07 127.53 130.29 127.55 130.5 127.56 130.72 127.58 130.93 127.6 131.15 127.62 131.36 127.63 131.58 127.65 131.79 127.67 132.01 127.69 132.22 127.7 132.44 127.72 132.65 127.74 132.87 127.75 133.08 127.77 133.3 127.79 133.51 127.81 133.73 127.82 133.94 127.84 134.16 127.86 134.37 127.87 134.59 127.89 134.8 127.91 135.02 127.92 135.23 127.94 135.45 127.96 135.66 127.97 135.88 127.99 136.09 128.01 136.31 128.02 136.52 128.04 136.74 128.05 136.95 128.07 137.17 128.09 137.38 128.1 137.6 128.12 137.81 128.14 138.03 128.15 138.24 128.17 138.46 128.18 138.67 128.2 138.89 128.22 139.1 128.23 139.32 128.25 139.53 128.26 139.75 128.28 139.96 128.29 140.18 128.31 140.39 128.33 140.61 128.34 140.82 128.36 141.04 128.37 141.25 128.39 141.47 128.4 141.68 128.42 141.9 128.43 142.11 128.45 142.33 128.46 142.54 128.48 142.76 128.49 142.97 128.51 143.19 128.52 143.4 128.54 143.62 128.56 143.83 128.57 144.05 128.59 144.26 128.6 144.48 128.61 144.69 128.63 144.91 128.64 145.12 128.66 145.34 128.67 145.55 128.69 145.77 128.7 145.98 128.72 146.2 128.73 146.41 128.75 146.63 128.76 146.84 128.78 147.06 128.79 147.27 128.81" id="fig-cf5300ec97744df6a679acca933c126f-element-42" class="geometry color_hidden_layer:200-100-1" stroke="#00E5B2"/>
        <path fill="none" d="M18.5,87.88 L 18.71 103.83 18.93 94.86 19.14 109.5 19.36 104.72 19.57 109.55 19.79 85.84 20 92.15 20.22 109.12 20.43 108.31 20.65 99.66 20.86 103.03 21.08 107.21 21.29 101.56 21.51 111.07 21.72 109.44 21.94 105.08 22.15 107.81 22.37 95.37 22.58 99.38 22.8 97.62 23.01 105.41 23.23 103.91 23.44 111.04 23.66 88.21 23.87 95.8 24.09 111.78 24.3 128.64 24.52 56.64 24.73 95.15 24.95 102.56 25.16 100.5 25.38 102.41 25.59 103.44 25.81 116.18 26.02 82.65 26.24 110.86 26.45 117.46 26.67 104.59 26.88 111.04 27.1 126.2 27.31 37.92 27.53 87.08 27.74 110.33 27.96 98.04 28.17 95.87 28.39 109.77 28.6 107.77 28.82 99.68 29.03 108.03 29.25 115.24 29.46 112.14 29.68 93.98 29.89 108.99 30.11 110.76 30.32 91.8 30.54 80.72 30.75 106.67 30.97 108.6 31.18 100.94 31.4 122.24 31.61 76.86 31.83 87.62 32.04 98.46 32.26 105.21 32.47 112.98 32.69 113.32 32.9 111.67 33.12 109.19 33.33 108.21 33.55 105.76 33.76 113.73 33.98 82.9 34.19 99.53 34.41 109.72 34.62 116.98 34.84 79.21 35.05 116.95 35.27 114.28 35.48 105.29 35.7 110.39 35.91 107.56 36.13 111.98 36.34 102.76 36.56 120.8 36.77 106.74 36.99 108.69 37.2 102.19 37.42 95.83 37.63 110.34 37.85 109.11 38.06 101.7 38.28 114.66 38.49 113.13 38.71 114.8 38.92 100.7 39.14 108.73 39.35 118.9 39.57 114.07 39.78 110.42 40 101.21 40.21 94.49 40.43 117.64 40.64 102.5 40.86 110.93 41.07 113.11 41.29 112.93 41.5 119.01 41.72 101.87 41.93 120.64 42.15 100.32 42.36 108.23 42.58 113.47 42.79 109.95 43.01 114.69 43.22 118.38 43.44 114.77 43.65 104.5 43.87 114.42 44.08 104.81 44.3 107.51 44.51 112.77 44.73 111.44 44.94 103.13 45.16 110.32 45.37 107.05 45.59 118.75 45.8 118.94 46.02 125.35 46.23 109.98 46.45 112.2 46.66 107.99 46.88 107.51 47.09 99.47 47.31 101.78 47.52 93.36 47.74 126.39 47.95 109.21 48.17 112.11 48.38 110.21 48.6 112.99 48.81 116.4 49.03 114.18 49.24 111.63 49.46 121.63 49.67 118.23 49.89 105.21 50.1 113.19 50.32 118.29 50.53 115.8 50.75 107.45 50.96 112.45 51.18 106.38 51.39 117.73 51.61 113.65 51.82 113.07 52.04 112.57 52.25 102.61 52.47 118.37 52.68 117.08 52.9 112.26 53.11 118.27 53.33 113.53 53.54 116.82 53.76 107.66 53.97 116.56 54.19 105.79 54.4 109.97 54.62 110.53 54.83 124.81 55.05 98.59 55.26 109.61 55.48 115.48 55.69 107.8 55.91 122.03 56.12 108.64 56.34 115.34 56.55 116.85 56.77 117.79 56.98 105.74 57.2 108.82 57.41 105.03 57.63 112.09 57.84 121.95 58.06 102.08 58.27 114.43 58.49 114.48 58.7 117.84 58.92 93.07 59.13 117.62 59.35 91.04 59.56 117.81 59.78 116.95 59.99 120.79 60.21 105.84 60.42 114.31 60.64 122.26 60.85 103.76 61.07 117.58 61.28 118.29 61.5 124.25 61.71 120.17 61.93 106.04 62.14 121.25 62.36 105.68 62.57 119.91 62.79 118.14 63 120.79 63.22 124.19 63.43 111.03 63.65 103.97 63.86 126.69 64.08 126.4 64.29 113.15 64.51 117.55 64.72 118.7 64.94 116.66 65.15 116.22 65.37 115.89 65.58 115.09 65.8 113.99 66.01 122.51 66.23 82.25 66.44 109.94 66.66 116.55 66.87 104.73 67.09 111.58 67.3 116.66 67.52 117.11 67.73 121.98 67.95 130.9 68.16 96.98 68.38 104.29 68.59 112.02 68.81 112.4 69.02 118.14 69.24 121.37 69.45 107.15 69.67 113.53 69.88 120 70.1 118.37 70.31 116.83 70.53 100.34 70.74 116.7 70.96 117.25 71.17 128.35 71.39 91.75 71.6 102.42 71.82 114.94 72.03 106.19 72.25 118.95 72.46 104.81 72.68 117.75 72.89 122.35 73.11 117.37 73.32 115.18 73.54 122.34 73.75 111.33 73.96 112.78 74.18 112.71 74.39 111.55 74.61 106.5 74.82 104.23 75.04 112.41 75.25 133.01 75.47 135.9 75.68 111.37 75.9 120.2 76.11 116.8 76.33 111.28 76.54 109.35 76.76 125.26 76.97 116.27 77.19 122.27 77.4 110.47 77.62 116.95 77.83 123.3 78.05 114.57 78.26 126.93 78.48 103.4 78.69 117.33 78.91 127.1 79.12 119.56 79.34 120.25 79.55 122.85 79.77 134.27 79.98 134.51 80.2 128.37 80.41 107.33 80.63 130.71 80.84 128.53 81.06 102.18 81.27 119.93 81.49 123.6 81.7 127.16 81.92 123.35 82.13 129.67 82.35 103.19 82.56 116.24 82.78 117.69 82.99 114.13 83.21 84.97 83.42 132.34 83.64 81.62 83.85 121.19 84.07 112.62 84.28 111.59 84.5 128.06 84.71 127.58 84.93 126.2 85.14 131.5 85.36 125.47 85.57 104.82 85.79 118.16 86 110.56 86.22 115.46 86.43 128.45 86.65 117.85 86.86 115.44 87.08 113.09 87.29 116.25 87.51 120.69 87.72 130.95 87.94 126.93 88.15 119.86 88.37 129.15 88.58 98.89 88.8 117.46 89.01 121.03 89.23 111.7 89.44 117.25 89.66 121.89 89.87 110.07 90.09 130.58 90.3 123.09 90.52 125.34 90.73 127.11 90.95 126.38 91.16 126.21 91.38 122.46 91.59 117.4 91.81 123.31 92.02 109.32 92.24 118.85 92.45 115.36 92.67 124.03 92.88 127.02 93.1 123.07 93.31 104.52 93.53 121.09 93.74 130.77 93.96 114.43 94.17 134.36 94.39 123.22 94.6 130.32 94.82 131.26 95.03 132.22 95.25 105.26 95.46 126.58 95.68 121.86 95.89 113.49 96.11 116.7 96.32 118.18 96.54 115.05 96.75 105.91 96.97 132.45 97.18 118.71 97.4 127.51 97.61 130.12 97.83 135.44 98.04 107.92 98.26 130.14 98.47 126.73 98.69 117.98 98.9 112.93 99.12 124.84 99.33 120.53 99.55 132 99.76 110.69 99.98 134.07 100.19 133 100.41 129.89 100.62 125.12 100.84 133.37 101.05 115.77 101.27 115.9 101.48 128.32 101.7 133.58 101.91 112.84 102.13 122.86 102.34 129.01 102.56 132.12 102.77 108.11 102.99 127.33 103.2 117.17 103.42 131.86 103.63 107.75 103.85 125.76 104.06 118.32 104.28 130.51 104.49 128.88 104.71 122.32 104.92 126.31 105.14 130.56 105.35 132.41 105.57 126.55 105.78 123.78 106 109.94 106.21 122.72 106.43 130.57 106.64 124.3 106.86 124.4 107.07 133.59 107.29 129.05 107.5 115.16 107.72 120.61 107.93 133.84 108.15 118.95 108.36 118.55 108.58 125.65 108.79 131.16 109.01 129.53 109.22 130.89 109.44 125.4 109.65 113.56 109.87 123.41 110.08 126.3 110.3 136.38 110.51 132.48 110.73 121.18 110.94 124.15 111.16 116.1 111.37 126.72 111.59 127.92 111.8 115.78 112.02 107.12 112.23 98.49 112.45 112.22 112.66 127.78 112.88 125.59 113.09 109.08 113.31 116.67 113.52 110.38 113.74 120.69 113.95 112.56 114.17 123.57 114.38 100.13 114.6 127.5 114.81 128.55 115.03 110.05 115.24 122.13 115.46 130.31 115.67 121.87 115.89 119.44 116.1 123.11 116.32 113.68 116.53 116.46 116.75 131.06 116.96 133.09 117.18 113.91 117.39 132.09 117.61 115.4 117.82 116.4 118.04 132.61 118.25 130.65 118.47 133.1 118.68 123.7 118.9 126.75 119.11 120.33 119.33 125.33 119.54 126.24 119.76 134.67 119.97 112.2 120.19 126.68 120.4 134.83 120.62 112.82 120.83 118.05 121.05 126.52 121.26 125.98 121.48 127.69 121.69 114.92 121.91 115.84 122.12 133.74 122.34 128.87 122.55 131.82 122.77 133.03 122.98 73.78 123.2 123.7 123.41 131.44 123.63 130.4 123.84 122.25 124.06 114.72 124.27 124.12 124.49 131.48 124.7 129.31 124.92 131.91 125.13 130.38 125.35 135.84 125.56 115.35 125.78 119.55 125.99 127.28 126.21 129.21 126.42 123.59 126.64 134.36 126.85 119.47 127.07 130.25 127.28 132.39 127.5 107.83 127.71 132.35 127.93 120.18 128.14 118.66 128.36 131.84 128.57 135.46 128.79 122.39 129 130.26 129.21 123.21 129.43 129.38 129.64 134.47 129.86 119.12 130.07 132.49 130.29 125.04 130.5 115.76 130.72 125.22 130.93 127.34 131.15 120.34 131.36 129.56 131.58 107.59 131.79 122.87 132.01 119.94 132.22 128.91 132.44 135.31 132.65 127.69 132.87 131.6 133.08 130.96 133.3 134.1 133.51 111.35 133.73 107.96 133.94 122.96 134.16 133.85 134.37 133.12 134.59 132.68 134.8 134.12 135.02 136.77 135.23 111.31 135.45 124.36 135.66 130.47 135.88 128.75 136.09 132.26 136.31 133.11 136.52 127.09 136.74 131.02 136.95 118.31 137.17 128.39 137.38 112.58 137.6 133.34 137.81 124.79 138.03 112.59 138.24 128.85 138.46 130.51 138.67 124.52 138.89 118.91 139.1 124.12 139.32 129.56 139.53 131.39 139.75 131.74 139.96 135.3 140.18 109.26 140.39 134.17 140.61 120.52 140.82 132.97 141.04 133 141.25 116.27 141.47 132.88 141.68 118.94 141.9 127.25 142.11 132.13 142.33 106.01 142.54 128.05 142.76 138.02 142.97 123.73 143.19 127.32 143.4 124.8 143.62 108.96 143.83 119.94 144.05 128.5 144.26 118.04 144.48 133.35 144.69 111.05 144.91 134.49 145.12 135.95 145.34 121.59 145.55 127.2 145.77 119.62 145.98 115.5 146.2 117.8 146.41 135.13 146.63 132.41 146.84 133.94 147.06 133.1 147.27 128.96" id="fig-cf5300ec97744df6a679acca933c126f-element-43" class="geometry color_batch:5_hidden_layer:200-100-1" stroke="#D4CA3A"/>
        <path fill="none" d="M18.5,104.93 L 18.71 104.75 18.93 102.35 19.14 104.26 19.36 101.95 19.57 104.02 19.79 106.32 20 104.79 20.22 105.08 20.43 105.65 20.65 106.09 20.86 105.63 21.08 107.69 21.29 105.2 21.51 105.86 21.72 106.89 21.94 105.37 22.15 105.96 22.37 106.34 22.58 106.74 22.8 107.25 23.01 106.12 23.23 105.45 23.44 106.9 23.66 107.24 23.87 109.6 24.09 105.16 24.3 107.9 24.52 108.45 24.73 103.72 24.95 106.88 25.16 109.18 25.38 105.85 25.59 108.25 25.81 106.92 26.02 108.54 26.24 109.49 26.45 107.03 26.67 107.01 26.88 107.57 27.1 109.25 27.31 109.5 27.53 107.34 27.74 110.55 27.96 109.76 28.17 108.65 28.39 111.04 28.6 102.83 28.82 107.92 29.03 109.81 29.25 109.3 29.46 109.91 29.68 108.91 29.89 108.3 30.11 109.02 30.32 109.57 30.54 112.88 30.75 111.96 30.97 110.23 31.18 113 31.4 111.19 31.61 110.04 31.83 111.08 32.04 111.29 32.26 109.92 32.47 111.68 32.69 111.45 32.9 109.29 33.12 108.16 33.33 111.49 33.55 111.04 33.76 111.83 33.98 108.29 34.19 109.61 34.41 113.04 34.62 112.87 34.84 106.77 35.05 108.82 35.27 112.15 35.48 111.3 35.7 112.14 35.91 111.06 36.13 111.03 36.34 112.21 36.56 112.51 36.77 112.41 36.99 110.67 37.2 111.67 37.42 111.92 37.63 112.55 37.85 115.06 38.06 113.93 38.28 112.15 38.49 111.84 38.71 113.71 38.92 113.18 39.14 111.58 39.35 112.67 39.57 114.68 39.78 113.46 40 112.46 40.21 112.51 40.43 113.63 40.64 113.07 40.86 112.67 41.07 113.55 41.29 115.73 41.5 115.91 41.72 113.55 41.93 113.52 42.15 113.57 42.36 113.84 42.58 117.48 42.79 114.05 43.01 112.3 43.22 113.98 43.44 115.03 43.65 115.36 43.87 117.75 44.08 115.58 44.3 112.49 44.51 112.83 44.73 115.25 44.94 112.64 45.16 112.98 45.37 114.4 45.59 114.44 45.8 114.42 46.02 113.85 46.23 113.87 46.45 115.93 46.66 114 46.88 116.06 47.09 114.19 47.31 116.88 47.52 116.28 47.74 116.12 47.95 114.76 48.17 114.39 48.38 116.32 48.6 115.82 48.81 117.34 49.03 116.66 49.24 117.71 49.46 116 49.67 115.76 49.89 115.56 50.1 115.55 50.32 116.38 50.53 116.54 50.75 118.74 50.96 116.4 51.18 117.21 51.39 117.36 51.61 119.22 51.82 115.94 52.04 117.65 52.25 115.6 52.47 114.55 52.68 117.99 52.9 118.31 53.11 115.97 53.33 118.82 53.54 118.61 53.76 111.01 53.97 117.72 54.19 117.9 54.4 115.21 54.62 116.55 54.83 117.39 55.05 115.28 55.26 116.69 55.48 116.88 55.69 115.86 55.91 117.82 56.12 119.06 56.34 115.74 56.55 117.36 56.77 114.9 56.98 118.6 57.2 122.92 57.41 117.49 57.63 118.94 57.84 117.31 58.06 119.4 58.27 117.15 58.49 117.45 58.7 115.97 58.92 120.21 59.13 118.77 59.35 119.02 59.56 118.12 59.78 119.47 59.99 119.13 60.21 115.95 60.42 116.01 60.64 117.45 60.85 119.04 61.07 120.98 61.28 119.72 61.5 120.24 61.71 118.11 61.93 118.13 62.14 117.94 62.36 119.97 62.57 121.49 62.79 117.78 63 119.47 63.22 116.27 63.43 119.26 63.65 120.9 63.86 118.38 64.08 120.69 64.29 117.79 64.51 120.83 64.72 119.02 64.94 122.98 65.15 112.97 65.37 118.98 65.58 120.45 65.8 119.78 66.01 120.15 66.23 120.84 66.44 120.49 66.66 121.22 66.87 120.12 67.09 119.64 67.3 123.73 67.52 119.19 67.73 120.67 67.95 122.68 68.16 119.25 68.38 121.55 68.59 122.93 68.81 120.14 69.02 122.14 69.24 121.22 69.45 119.48 69.67 118.75 69.88 120.48 70.1 121.37 70.31 120.88 70.53 118.77 70.74 119.66 70.96 118.5 71.17 120.4 71.39 122.35 71.6 120.57 71.82 119.18 72.03 124.25 72.25 121.29 72.46 124.05 72.68 121 72.89 123.06 73.11 119.55 73.32 120.5 73.54 122.62 73.75 123.02 73.96 121.45 74.18 122.13 74.39 123.09 74.61 122.26 74.82 117.67 75.04 123.53 75.25 121.98 75.47 122.49 75.68 120.94 75.9 121.81 76.11 122.55 76.33 124.58 76.54 123.89 76.76 123.47 76.97 120.48 77.19 123.22 77.4 121.53 77.62 120.8 77.83 124.43 78.05 119.44 78.26 124.79 78.48 122.18 78.69 123.16 78.91 122.69 79.12 121.56 79.34 123.32 79.55 124.59 79.77 123.58 79.98 123.67 80.2 123.38 80.41 123.91 80.63 124.48 80.84 122.95 81.06 121.46 81.27 120.9 81.49 124.57 81.7 123.37 81.92 123.4 82.13 122.52 82.35 122.42 82.56 123.88 82.78 123.82 82.99 123.68 83.21 122.43 83.42 123.23 83.64 122.41 83.85 123.99 84.07 122.09 84.28 121.55 84.5 122.71 84.71 121.32 84.93 125.64 85.14 120.66 85.36 125.32 85.57 120.88 85.79 124.53 86 124.32 86.22 123.28 86.43 125.12 86.65 125.06 86.86 121.41 87.08 121.19 87.29 123.57 87.51 124.08 87.72 123.02 87.94 124.85 88.15 126.24 88.37 117.85 88.58 123.09 88.8 125.53 89.01 122.97 89.23 123.16 89.44 126.14 89.66 124.15 89.87 124.77 90.09 122.19 90.3 121.74 90.52 125.58 90.73 123.12 90.95 123.03 91.16 125.14 91.38 123.09 91.59 124.02 91.81 124.87 92.02 121.98 92.24 126.11 92.45 124.59 92.67 124.25 92.88 127.54 93.1 124.84 93.31 124.42 93.53 125.59 93.74 126.27 93.96 125.51 94.17 122.74 94.39 124.68 94.6 123.46 94.82 125.08 95.03 126.83 95.25 125.83 95.46 124.59 95.68 125.49 95.89 124.45 96.11 124.61 96.32 128.56 96.54 123.58 96.75 125.46 96.97 126.36 97.18 127.77 97.4 126.92 97.61 125.76 97.83 126.95 98.04 125.54 98.26 124.77 98.47 127.19 98.69 124.56 98.9 124.93 99.12 125.96 99.33 122.34 99.55 122.61 99.76 127.65 99.98 124.46 100.19 126.59 100.41 126.43 100.62 127.18 100.84 126.12 101.05 128.26 101.27 123.77 101.48 125.46 101.7 125.28 101.91 126.16 102.13 125.15 102.34 122.84 102.56 123.79 102.77 124.39 102.99 125.99 103.2 122.96 103.42 125.31 103.63 127.42 103.85 126.05 104.06 126.65 104.28 125.44 104.49 125.47 104.71 125.48 104.92 127.48 105.14 125.74 105.35 127.69 105.57 124.78 105.78 126.51 106 127.71 106.21 124.82 106.43 126.4 106.64 126.46 106.86 129.22 107.07 125.1 107.29 128.02 107.5 125.34 107.72 124.64 107.93 126.88 108.15 127.74 108.36 125.86 108.58 127.17 108.79 126.27 109.01 125.68 109.22 125.23 109.44 125.09 109.65 125.96 109.87 122.83 110.08 125.45 110.3 125.25 110.51 126.49 110.73 125.53 110.94 125.37 111.16 128.93 111.37 126.44 111.59 125.42 111.8 128.33 112.02 127.68 112.23 125.75 112.45 126.84 112.66 126.67 112.88 127.83 113.09 122.79 113.31 123.52 113.52 127.13 113.74 127.92 113.95 127.69 114.17 127.01 114.38 128.62 114.6 128.36 114.81 127 115.03 127.97 115.24 124.66 115.46 127.26 115.67 125.4 115.89 126.69 116.1 127.76 116.32 126.67 116.53 125.12 116.75 126.4 116.96 128.17 117.18 127.76 117.39 126.28 117.61 127.97 117.82 126.2 118.04 127.97 118.25 125.81 118.47 127.85 118.68 126.28 118.9 126.64 119.11 129.44 119.33 128.18 119.54 123.42 119.76 126.47 119.97 127.92 120.19 128.01 120.4 125.47 120.62 126.5 120.83 127.24 121.05 125.51 121.26 127.24 121.48 126.47 121.69 127.34 121.91 127.97 122.12 127.04 122.34 128.68 122.55 128.66 122.77 127.53 122.98 127.76 123.2 125.46 123.41 128.67 123.63 125.53 123.84 128.78 124.06 130.65 124.27 128.56 124.49 127.54 124.7 126.45 124.92 128.31 125.13 129.56 125.35 126.7 125.56 130.8 125.78 130.41 125.99 128.68 126.21 130.58 126.42 128.08 126.64 129.05 126.85 128.35 127.07 128.31 127.28 129.63 127.5 127.84 127.71 131.64 127.93 129.03 128.14 129.56 128.36 128.4 128.57 128.7 128.79 128.88 129 125.9 129.21 128.52 129.43 123.82 129.64 127.31 129.86 130.38 130.07 128.67 130.29 126.15 130.5 130.93 130.72 128.33 130.93 127.46 131.15 124.71 131.36 127.44 131.58 127.94 131.79 129.29 132.01 129.1 132.22 128.19 132.44 129.46 132.65 129.52 132.87 128.21 133.08 129.63 133.3 128.96 133.51 131.05 133.73 130.77 133.94 128.6 134.16 129.19 134.37 129.68 134.59 129.37 134.8 129.1 135.02 129.17 135.23 125.73 135.45 127.41 135.66 129.41 135.88 131.11 136.09 129.46 136.31 125.79 136.52 128.98 136.74 127.32 136.95 130.08 137.17 129.18 137.38 131.15 137.6 129.97 137.81 128.79 138.03 127.48 138.24 128.32 138.46 127.21 138.67 128.96 138.89 129.16 139.1 128.6 139.32 130.42 139.53 130.45 139.75 127 139.96 126.34 140.18 126.85 140.39 127.26 140.61 129.72 140.82 128.8 141.04 130.57 141.25 128.76 141.47 128.5 141.68 129.4 141.9 128.97 142.11 129.37 142.33 128.41 142.54 126.06 142.76 129.05 142.97 127.26 143.19 127.82 143.4 128.11 143.62 127.98 143.83 125.76 144.05 129.4 144.26 128.4 144.48 130.82 144.69 126.96 144.91 127.97 145.12 127.15 145.34 126.07 145.55 129.23 145.77 126.15 145.98 127.08 146.2 126.3 146.41 127.95 146.63 129.45 146.84 129.44 147.06 129.7 147.27 130.74" id="fig-cf5300ec97744df6a679acca933c126f-element-44" class="geometry color_batch:100_hidden_layer:200-100-1" stroke="#FF5EA0"/>
      </g>
    </g>
  </g>
  <g class="guide ylabels" font-size="2.82" font-family="'PT Sans Caption','Helvetica Neue','Helvetica',sans-serif" fill="#6C606B" id="fig-cf5300ec97744df6a679acca933c126f-element-45">
    <text x="15.29" y="138.72" text-anchor="end" dy="0.35em" id="fig-cf5300ec97744df6a679acca933c126f-element-46">0</text>
    <text x="15.29" y="105.79" text-anchor="end" dy="0.35em" id="fig-cf5300ec97744df6a679acca933c126f-element-47">1</text>
    <text x="15.29" y="72.86" text-anchor="end" dy="0.35em" id="fig-cf5300ec97744df6a679acca933c126f-element-48">2</text>
    <text x="15.29" y="39.93" text-anchor="end" dy="0.35em" id="fig-cf5300ec97744df6a679acca933c126f-element-49">3</text>
    <text x="15.29" y="7" text-anchor="end" dy="0.35em" id="fig-cf5300ec97744df6a679acca933c126f-element-50">4</text>
  </g>
  <g font-size="3.88" font-family="'PT Sans','Helvetica Neue','Helvetica',sans-serif" fill="#564A55" stroke="#000000" stroke-opacity="0.000" id="fig-cf5300ec97744df6a679acca933c126f-element-51">
    <text x="8.81" y="70.86" text-anchor="middle" dy="0.35em" transform="rotate(-90, 8.81, 72.86)" id="fig-cf5300ec97744df6a679acca933c126f-element-52">err</text>
  </g>
</g>
<defs>
<clipPath id="fig-cf5300ec97744df6a679acca933c126f-element-18">
  <path d="M16.28,5 L 149.27 5 149.27 140.72 16.28 140.72" />
</clipPath
></defs>
</svg>
